{"glyphs":{"0":{"ha":900,"x_min":19,"x_max":868,"o":"m 868 471 q 833 289 868 375 q 740 138 799 203 q 605 34 682 72 q 442 -4 528 -4 q 278 33 356 -4 q 144 133 201 69 q 53 280 86 196 q 19 458 19 364 q 55 651 19 558 q 151 813 90 743 q 290 925 211 883 q 454 967 368 967 q 613 927 538 967 q 745 819 689 888 q 835 661 801 751 q 868 471 868 571 m 446 347 q 503 378 478 347 q 529 471 529 410 q 506 568 529 532 q 450 604 482 604 q 391 569 418 604 q 364 474 364 535 q 389 381 364 415 q 446 347 414 347 z "},"1":{"ha":556,"x_min":32,"x_max":497,"o":"m 294 -28 q 207 -5 240 -28 q 156 52 174 18 q 132 124 138 86 q 126 192 126 163 q 135 408 126 301 q 139 606 144 515 q 128 639 138 632 q 104 646 118 646 q 65 660 79 646 q 43 694 50 674 q 34 739 36 715 q 32 781 32 763 q 53 862 32 825 q 106 925 74 899 q 180 966 139 951 q 261 981 221 981 q 368 959 324 981 q 441 888 413 938 q 483 755 469 838 q 497 549 497 672 q 489 337 497 440 q 458 152 481 233 q 395 22 435 71 q 294 -28 356 -28 z "},"2":{"ha":676,"x_min":0,"x_max":653,"o":"m 633 683 q 603 546 633 606 q 535 442 572 486 q 467 369 497 399 q 436 319 436 339 q 451 309 436 311 q 484 307 465 307 q 520 308 503 307 q 542 310 538 310 q 597 296 575 310 q 631 259 618 282 q 648 209 643 236 q 653 154 653 182 q 635 103 653 126 q 587 61 617 79 q 521 29 557 43 q 448 6 485 15 q 378 -7 411 -3 q 324 -11 346 -11 q 217 -8 274 -11 q 113 13 161 -4 q 32 67 64 31 q 0 171 0 104 q 24 255 0 214 q 85 335 49 296 q 165 410 122 374 q 244 483 207 447 q 305 555 281 519 q 329 625 329 590 q 318 672 329 653 q 275 690 307 690 q 244 681 253 690 q 234 658 236 672 q 231 628 232 644 q 222 597 229 611 q 197 574 215 583 q 143 565 179 565 q 51 604 88 565 q 14 697 14 643 q 39 803 14 754 q 105 888 64 851 q 198 946 146 925 q 304 967 250 967 q 435 951 375 967 q 540 901 496 935 q 608 813 583 867 q 633 683 633 760 z "},"3":{"ha":649,"x_min":0,"x_max":626,"o":"m 107 493 q 115 540 107 522 q 138 566 124 557 q 171 578 153 575 q 208 581 189 581 q 249 581 228 581 q 286 585 269 581 q 313 599 303 589 q 324 631 324 610 q 299 670 324 664 q 244 676 275 676 q 172 667 206 676 q 122 657 138 657 q 48 688 79 657 q 17 794 17 719 q 41 878 17 844 q 103 931 65 911 q 185 958 140 950 q 272 967 231 967 q 407 950 343 967 q 519 899 471 933 q 595 813 567 865 q 624 686 624 760 q 608 598 624 631 q 574 545 593 565 q 540 513 556 525 q 524 485 524 500 q 540 456 524 469 q 575 419 556 443 q 610 356 594 396 q 626 244 626 315 q 597 139 626 185 q 519 62 568 93 q 406 15 469 31 q 272 0 342 0 q 185 10 233 0 q 97 47 138 21 q 28 116 56 72 q 0 226 0 160 q 31 308 0 282 q 104 335 63 335 q 164 322 132 335 q 232 310 196 310 q 288 330 265 310 q 310 385 310 350 q 301 411 310 404 q 276 419 292 418 q 243 418 261 421 q 206 415 225 415 q 169 416 188 415 q 138 424 151 417 q 115 447 124 431 q 107 493 107 463 z "},"4":{"ha":778,"x_min":11,"x_max":767,"o":"m 525 -22 q 415 29 443 -22 q 389 168 388 81 q 275 162 339 168 q 161 156 211 156 q 47 190 82 156 q 11 304 11 225 q 26 417 11 361 q 61 525 40 472 q 103 608 75 560 q 169 707 132 656 q 249 808 206 758 q 338 899 293 858 q 428 963 383 939 q 511 988 472 988 q 578 967 550 988 q 628 915 607 947 q 662 842 649 883 q 683 760 675 801 q 693 679 690 718 q 696 613 696 640 q 695 529 696 571 q 693 446 694 488 q 729 426 715 443 q 751 388 743 410 q 763 342 760 365 q 767 301 767 318 q 751 224 767 261 q 690 179 736 186 q 683 101 690 138 q 658 37 676 64 q 608 -6 640 10 q 525 -22 576 -22 m 389 582 q 367 567 378 582 q 347 531 356 551 q 333 490 339 510 q 328 460 328 469 q 338 433 328 443 q 365 422 349 422 q 391 431 382 422 q 404 451 400 439 q 409 478 408 464 q 410 506 410 493 q 410 522 410 510 q 408 548 410 535 q 401 572 406 561 q 389 582 397 582 z "},"5":{"ha":708,"x_min":28,"x_max":699,"o":"m 699 350 q 597 86 699 172 q 307 0 494 0 q 97 58 167 0 q 28 226 28 115 q 56 326 28 285 q 125 368 83 368 q 167 356 150 368 q 197 328 183 343 q 226 300 211 313 q 267 288 242 288 q 321 307 308 288 q 333 367 333 326 q 318 417 333 399 q 279 435 303 435 q 230 435 254 435 q 181 436 206 436 q 116 459 143 436 q 72 519 89 482 q 46 606 54 557 q 38 707 38 654 q 48 807 38 760 q 82 890 58 854 q 146 946 106 925 q 244 967 186 967 l 457 967 q 533 959 496 967 q 601 935 571 951 q 649 890 631 918 q 667 822 667 863 q 642 732 667 769 q 569 694 618 694 q 528 697 544 694 q 499 703 513 700 q 469 708 485 707 q 431 704 454 708 q 410 694 421 701 q 399 676 399 686 q 403 638 399 657 q 432 618 407 618 q 526 607 478 618 q 612 566 574 596 q 674 484 650 536 q 699 350 699 432 z "},"6":{"ha":822,"x_min":51,"x_max":808,"o":"m 808 347 q 777 208 808 275 q 693 91 746 142 q 573 10 640 40 q 432 -21 506 -21 q 277 6 347 -21 q 157 81 207 32 q 79 198 107 129 q 51 351 51 267 q 64 473 51 414 q 99 589 76 532 q 132 658 110 618 q 184 739 154 697 q 249 822 214 781 q 322 894 283 863 q 399 947 360 926 q 474 967 438 967 q 521 960 496 967 q 567 940 546 953 q 603 907 589 926 q 617 863 617 888 q 602 805 617 832 q 570 754 588 778 q 538 710 553 731 q 524 671 524 689 q 543 642 524 646 q 581 639 563 639 q 683 612 640 639 q 754 543 726 585 q 795 449 782 501 q 808 347 808 397 m 385 356 q 397 301 385 315 q 433 286 410 286 q 461 301 449 286 q 474 351 474 317 q 461 402 474 388 q 433 417 449 417 q 401 399 417 417 q 385 356 385 382 z "},"7":{"ha":665,"x_min":10,"x_max":665,"o":"m 124 188 q 149 297 124 239 q 204 415 174 356 q 261 532 235 475 q 289 639 288 589 q 267 661 289 657 q 215 663 244 665 q 153 656 185 661 q 103 651 121 651 q 60 663 78 651 q 32 694 43 675 q 15 739 21 714 q 10 789 10 764 q 33 873 10 840 q 96 925 57 906 q 183 953 135 944 q 282 965 232 963 q 379 967 332 968 q 461 967 426 967 q 537 958 500 967 q 602 924 574 949 q 648 859 631 900 q 665 754 665 818 q 642 628 665 700 q 589 476 619 557 q 526 310 558 396 q 476 142 494 224 q 447 78 468 106 q 399 34 426 51 q 340 8 371 17 q 285 -1 310 -1 q 234 10 263 -1 q 181 44 206 21 q 140 102 157 67 q 124 188 124 138 z "},"8":{"ha":815,"x_min":4,"x_max":793,"o":"m 793 326 q 753 175 793 239 q 654 68 714 111 q 526 4 594 25 q 399 -17 457 -17 q 253 5 324 -17 q 127 67 182 26 q 38 167 72 108 q 4 300 4 226 q 16 373 4 340 q 44 431 28 406 q 77 476 60 457 q 106 507 94 494 q 118 521 115 519 l 107 532 q 85 557 99 542 q 60 593 72 572 q 40 642 49 614 q 31 707 31 671 q 63 824 31 774 q 148 909 96 875 q 266 960 200 943 q 399 978 332 978 q 515 965 453 978 q 632 922 578 953 q 722 838 686 890 q 758 707 758 786 q 749 649 758 675 q 728 602 740 622 q 703 566 715 582 q 682 539 690 550 q 676 529 679 533 q 671 524 674 525 q 676 519 674 522 q 683 511 679 515 q 713 485 694 499 q 749 453 732 472 q 780 403 767 433 q 793 326 793 372 m 399 626 q 424 639 414 626 q 435 679 435 651 q 422 713 435 704 q 397 722 410 722 q 357 676 357 722 q 368 640 357 653 q 399 626 379 626 m 400 389 q 367 373 376 389 q 357 329 357 357 q 399 278 357 278 q 428 288 414 278 q 442 329 442 299 q 431 375 442 361 q 400 389 419 389 z "},"9":{"ha":808,"x_min":17,"x_max":772,"o":"m 17 651 q 52 785 17 726 q 143 883 88 843 q 268 945 199 924 q 406 967 338 967 q 546 937 479 967 q 663 857 613 907 q 742 741 713 807 q 772 601 772 675 q 760 449 772 524 q 718 306 747 374 q 643 179 689 238 q 531 75 597 121 q 396 15 463 29 q 249 0 329 0 q 180 7 214 0 q 118 31 146 14 q 73 75 90 47 q 56 143 56 103 q 206 292 56 292 q 243 299 221 292 q 286 317 265 306 q 322 344 307 329 q 338 378 338 360 q 333 385 338 383 q 321 388 328 388 q 308 387 314 388 q 297 386 301 386 q 188 406 239 386 q 98 460 136 425 q 38 544 60 496 q 17 651 17 593 m 463 617 q 460 637 463 625 q 453 659 458 649 q 438 676 447 669 q 413 683 428 683 q 392 676 400 683 q 378 659 383 669 q 372 638 374 649 q 369 617 369 626 q 381 573 369 593 q 413 553 393 553 q 445 573 428 553 q 463 617 463 593 z "},"\u0000":{"ha":0,"x_min":0,"x_max":0,"o":""},"\r":{"ha":347,"x_min":0,"x_max":0,"o":""}," ":{"ha":333,"x_min":0,"x_max":0,"o":""},"!":{"ha":524,"x_min":29,"x_max":476,"o":"m 256 276 q 144 315 188 276 q 74 412 100 353 q 39 540 49 471 q 29 672 29 610 q 38 772 29 715 q 71 878 46 828 q 142 965 96 929 q 263 1000 188 1000 q 381 969 338 1000 q 445 892 424 939 q 472 792 467 846 q 476 693 476 739 q 467 551 476 625 q 432 416 457 476 q 364 316 407 356 q 256 276 321 276 m 254 -82 q 109 -40 161 -82 q 57 88 57 1 q 74 158 57 128 q 121 207 92 188 q 188 235 150 226 q 264 244 225 244 q 336 237 301 244 q 398 212 371 229 q 441 167 425 194 q 457 100 457 139 q 402 -33 457 15 q 254 -82 347 -82 z "},"\"":{"ha":642,"x_min":31,"x_max":608,"o":"m 467 633 q 359 684 393 633 q 325 828 325 735 q 333 915 325 874 q 358 986 340 956 q 404 1034 375 1017 q 476 1051 433 1051 q 540 1034 514 1051 q 581 988 565 1017 q 602 920 596 958 q 608 842 608 882 q 600 764 608 801 q 574 697 592 726 q 531 651 557 668 q 467 633 504 633 m 172 622 q 65 673 99 622 q 31 817 31 724 q 38 903 31 863 q 63 975 46 944 q 110 1023 81 1006 q 182 1040 139 1040 q 245 1023 219 1040 q 286 976 271 1006 q 308 909 301 947 q 314 831 314 871 q 306 753 314 790 q 280 686 297 715 q 236 640 263 657 q 172 622 210 622 z "},"#":{"ha":1307,"x_min":49,"x_max":1247,"o":"m 124 557 q 135 626 124 590 q 188 678 147 663 q 233 688 204 685 q 292 694 261 692 q 353 699 324 697 q 400 700 382 700 q 415 744 403 710 q 443 817 428 779 q 474 888 458 856 q 500 924 490 919 q 563 936 529 936 q 617 927 588 936 q 672 903 647 918 q 715 866 697 888 q 732 819 732 844 q 724 763 732 792 q 708 707 715 733 l 801 707 q 816 749 804 715 q 844 822 828 783 q 874 892 860 861 q 896 926 889 924 q 960 936 924 936 q 1016 928 986 936 q 1072 903 1046 919 q 1114 866 1097 888 q 1131 817 1131 844 q 1122 758 1131 789 q 1104 700 1113 726 q 1126 697 1111 700 q 1159 692 1142 694 q 1192 685 1176 689 q 1214 678 1207 681 q 1230 662 1224 674 q 1240 635 1236 650 q 1246 605 1244 621 q 1247 576 1247 589 q 1242 542 1247 561 q 1228 507 1238 524 q 1205 477 1218 490 q 1175 457 1192 464 q 1149 453 1168 454 q 1106 450 1129 451 q 1063 448 1083 449 q 1032 447 1042 447 q 1019 404 1025 425 q 1006 363 1013 383 q 1033 360 1014 363 q 1074 356 1053 358 q 1113 349 1094 353 q 1136 340 1131 346 q 1165 290 1158 321 q 1171 235 1171 258 q 1166 203 1171 221 q 1151 168 1161 185 q 1129 138 1142 151 q 1100 119 1117 125 q 1066 113 1092 115 q 1012 110 1040 111 q 958 108 983 108 q 921 107 932 107 q 906 64 915 93 q 885 3 896 35 q 862 -55 874 -28 q 842 -93 850 -82 l 842 -92 q 797 -122 826 -112 q 740 -132 768 -132 q 690 -124 715 -132 q 643 -103 664 -117 q 609 -71 622 -90 q 596 -28 596 -51 q 603 37 596 4 q 617 101 610 69 l 517 101 q 486 3 501 57 q 443 -90 471 -50 q 399 -123 428 -112 q 343 -133 371 -133 q 292 -126 318 -133 q 244 -104 265 -118 q 210 -71 224 -90 q 196 -28 196 -51 q 203 41 196 7 q 218 108 210 75 q 198 109 213 108 q 167 110 183 110 q 138 113 151 111 q 117 117 124 115 q 90 133 103 121 q 69 160 78 144 q 54 191 60 175 q 49 219 49 207 q 68 301 49 274 q 120 342 88 329 q 197 356 153 354 q 289 360 240 357 q 301 403 296 382 q 315 447 307 424 q 289 447 306 447 q 254 449 272 447 q 219 451 236 450 q 193 456 203 453 q 168 472 181 460 q 146 499 156 483 q 130 530 136 514 q 124 557 124 546 m 681 372 q 701 403 694 381 q 697 438 708 425 q 666 449 688 450 q 633 438 644 449 q 613 406 619 426 q 615 372 606 386 q 646 360 625 358 q 681 372 667 363 z "},"$":{"ha":815,"x_min":17,"x_max":788,"o":"m 17 261 q 28 319 17 296 q 57 358 39 343 q 98 381 75 374 q 146 388 121 388 q 224 370 194 388 q 283 325 253 353 q 330 291 307 303 q 389 279 353 279 q 462 288 431 279 q 493 318 493 296 q 454 340 493 333 q 358 361 415 347 q 247 390 306 374 q 138 438 188 407 q 54 515 88 468 q 21 635 21 563 q 38 731 21 685 q 85 816 54 778 q 163 883 117 854 q 267 925 208 911 q 276 974 269 950 q 298 1018 283 999 q 335 1049 313 1038 q 394 1061 358 1061 q 501 1033 467 1061 q 550 936 536 1004 q 710 856 657 918 q 764 708 764 794 q 725 612 764 643 q 628 581 686 581 q 551 600 581 581 q 500 661 521 619 q 471 695 489 683 q 422 707 453 707 q 369 692 383 707 q 354 661 354 676 q 463 604 354 632 q 572 576 515 592 q 677 531 629 560 q 756 456 725 503 q 788 336 788 410 q 772 238 788 285 q 725 152 756 190 q 649 85 694 114 q 547 42 604 57 q 499 -58 533 -32 q 389 -85 464 -85 q 335 -75 357 -85 q 299 -50 314 -65 q 276 -14 285 -35 q 264 29 268 7 q 158 60 204 38 q 80 115 111 83 q 33 184 49 146 q 17 261 17 222 z "},"%":{"ha":1185,"x_min":39,"x_max":1154,"o":"m 521 717 q 503 628 521 674 q 455 544 486 582 q 378 483 424 507 q 276 460 333 460 q 176 484 221 460 q 101 546 132 508 q 55 629 71 583 q 39 718 39 675 q 54 816 39 767 q 101 905 69 865 q 181 969 133 944 q 293 993 229 993 q 401 967 358 993 q 472 901 444 942 q 510 811 499 860 q 521 717 521 763 m 301 -14 q 210 10 246 -14 q 174 85 174 35 q 197 152 174 107 q 260 257 221 197 q 351 387 300 317 q 459 528 403 457 q 572 669 515 600 q 680 796 629 739 q 770 894 731 853 q 832 953 810 936 q 914 981 868 981 q 999 950 968 981 q 1031 875 1031 919 q 1003 817 1031 861 q 933 709 976 772 q 831 569 889 646 q 713 413 774 492 q 590 260 651 335 q 478 128 529 186 q 391 32 428 69 q 342 -10 354 -6 q 322 -13 335 -12 q 301 -14 308 -14 m 286 678 q 316 694 307 678 q 325 726 325 711 q 316 758 325 740 q 286 776 307 776 q 258 758 267 776 q 250 725 250 739 q 258 694 250 711 q 286 678 267 678 m 1154 233 q 1138 144 1154 190 q 1090 61 1121 99 q 1013 -1 1058 24 q 913 -25 968 -25 q 810 -1 856 -25 q 735 62 765 24 q 688 146 704 100 q 672 235 672 192 q 688 332 672 283 q 736 420 704 381 q 815 485 768 460 q 926 510 863 510 q 1035 484 992 510 q 1105 417 1078 458 q 1143 328 1132 376 q 1154 233 1154 279 m 922 194 q 951 212 942 194 q 960 243 960 229 q 951 276 960 258 q 922 293 942 293 q 892 275 901 293 q 882 242 882 257 q 892 210 882 226 q 922 194 901 194 z "},"&":{"ha":926,"x_min":32,"x_max":893,"o":"m 703 -31 q 649 -21 671 -31 q 612 2 628 -11 q 585 30 596 15 q 565 54 575 44 q 525 22 549 39 q 471 -8 501 6 q 403 -31 440 -22 q 321 -39 365 -39 q 202 -17 256 -39 q 111 42 149 4 q 53 133 74 81 q 32 249 32 186 q 39 304 32 271 q 64 373 46 338 q 115 442 82 408 q 199 500 147 476 q 145 528 169 508 q 102 575 121 547 q 73 637 83 603 q 63 707 63 671 q 86 816 63 767 q 153 901 110 865 q 259 956 197 936 q 397 975 321 975 q 515 962 457 975 q 619 917 574 949 q 693 835 665 886 q 721 708 721 785 q 711 615 721 654 q 683 549 701 576 q 642 501 665 521 q 592 464 619 481 q 598 438 593 451 q 615 418 603 425 q 648 456 628 435 q 691 494 668 476 q 738 523 714 511 q 782 535 761 535 q 865 497 838 535 q 893 407 893 458 q 879 363 893 389 q 847 313 865 338 q 808 267 828 288 q 778 239 789 246 q 808 215 789 233 q 845 176 826 197 q 878 133 864 154 q 892 97 892 111 q 872 49 892 72 q 822 9 851 26 q 760 -19 793 -8 q 703 -31 728 -31 m 413 653 q 407 674 413 664 q 389 685 401 685 q 368 675 375 685 q 361 653 361 665 q 369 635 361 642 q 389 628 378 628 q 406 635 399 628 q 413 653 413 643 m 374 203 q 394 212 385 203 q 403 232 403 221 q 394 251 403 243 q 374 260 385 260 q 349 253 361 260 q 338 232 338 247 q 349 210 338 218 q 374 203 361 203 z "},"'":{"ha":328,"x_min":31,"x_max":314,"o":"m 172 622 q 65 673 99 622 q 31 817 31 724 q 38 903 31 863 q 63 975 46 944 q 110 1023 81 1006 q 182 1040 139 1040 q 245 1023 219 1040 q 286 976 271 1006 q 308 909 301 947 q 314 831 314 871 q 306 753 314 790 q 280 686 297 715 q 236 640 263 657 q 172 622 210 622 z "},"(":{"ha":518,"x_min":47,"x_max":496,"o":"m 343 -103 q 221 -47 275 -103 q 128 95 167 10 q 68 281 89 181 q 47 471 47 382 q 74 660 47 560 q 147 847 101 761 q 256 988 193 932 q 389 1044 318 1044 q 466 1017 436 1044 q 496 942 496 990 q 487 888 496 914 q 465 839 478 863 q 400 657 421 753 q 379 463 379 561 q 391 271 379 361 q 435 85 403 181 q 449 40 442 64 q 456 -7 456 17 q 422 -78 456 -54 q 343 -103 388 -103 z "},")":{"ha":521,"x_min":35,"x_max":483,"o":"m 188 -103 q 109 -78 143 -103 q 75 -7 75 -54 q 82 40 75 17 q 96 85 89 64 q 140 271 128 181 q 151 463 151 361 q 131 657 151 561 q 65 839 110 753 q 44 888 53 863 q 35 942 35 914 q 65 1017 35 990 q 142 1044 94 1044 q 275 988 213 1044 q 383 847 338 932 q 456 660 429 761 q 483 471 483 560 q 463 281 483 382 q 403 95 442 181 q 310 -47 365 10 q 188 -103 256 -103 z "},"*":{"ha":553,"x_min":10,"x_max":528,"o":"m 364 597 q 315 621 340 597 q 268 688 290 644 q 219 621 246 644 q 169 597 193 597 q 134 608 153 597 q 99 633 115 618 q 72 667 82 649 q 61 701 61 685 q 74 747 61 719 q 107 801 86 774 q 73 815 90 804 q 42 839 56 825 q 19 869 28 853 q 10 901 10 886 q 19 936 10 918 q 42 969 28 954 q 74 994 57 985 q 106 1004 90 1004 q 140 993 124 1004 q 172 974 156 982 q 208 1063 188 1039 q 268 1088 228 1088 q 320 1075 303 1088 q 345 1044 338 1063 q 356 1007 353 1026 q 365 974 360 988 q 401 994 388 985 q 431 1004 415 1004 q 463 994 446 1004 q 495 968 481 983 q 519 934 510 953 q 528 899 528 915 q 501 844 528 871 q 431 801 475 818 q 456 759 442 782 q 471 714 471 736 q 460 676 471 697 q 434 638 450 656 q 399 609 418 621 q 364 597 381 597 z "},"+":{"ha":740,"x_min":63,"x_max":690,"o":"m 233 335 q 101 373 140 342 q 63 471 63 404 q 101 567 63 538 q 233 600 140 596 q 279 722 239 681 q 376 763 319 763 q 469 725 431 763 q 514 604 507 688 q 650 570 610 601 q 690 469 690 539 q 651 369 690 399 q 514 333 611 340 q 469 231 506 271 q 368 192 433 192 q 269 232 303 192 q 233 335 235 272 z "},",":{"ha":418,"x_min":-29,"x_max":374,"o":"m 67 -164 q -1 -140 26 -164 q -29 -79 -29 -115 q -19 -29 -29 -54 q 1 21 -10 -4 q 22 73 13 46 q 32 129 32 100 q 41 197 32 163 q 71 260 50 232 q 126 305 92 288 q 210 322 160 322 q 288 310 257 322 q 338 278 319 299 q 365 232 357 258 q 374 175 374 206 q 344 58 374 118 q 268 -52 314 -3 q 169 -133 222 -101 q 67 -164 115 -164 z "},"-":{"ha":639,"x_min":75,"x_max":557,"o":"m 310 268 q 203 275 247 268 q 130 301 158 282 q 88 355 101 321 q 75 443 75 389 q 90 547 75 510 q 134 603 104 585 q 208 626 164 622 q 310 631 251 631 l 349 631 q 437 626 399 631 q 502 603 475 622 q 543 545 529 583 q 557 438 557 507 q 542 346 557 379 q 495 295 526 313 q 417 273 464 278 q 310 268 371 268 z "},".":{"ha":488,"x_min":32,"x_max":411,"o":"m 224 -25 q 145 -10 181 -25 q 85 28 110 4 q 46 85 60 53 q 32 156 32 118 q 44 225 32 192 q 81 283 57 258 q 140 323 104 308 q 222 338 175 338 q 358 294 304 338 q 411 156 411 250 q 398 90 411 122 q 360 33 385 58 q 301 -9 336 7 q 224 -25 267 -25 z "},"/":{"ha":644,"x_min":40,"x_max":624,"o":"m 185 -106 q 83 -76 126 -106 q 40 0 40 -46 q 57 163 40 67 q 99 365 74 258 q 158 577 125 471 q 222 771 190 683 q 280 916 253 858 q 322 982 307 974 q 340 992 328 985 q 369 1007 351 1000 q 409 1019 386 1014 q 458 1025 432 1025 q 576 989 529 1025 q 624 878 624 953 q 615 825 624 867 q 592 722 607 783 q 558 583 578 660 q 517 427 539 507 q 471 269 494 347 q 424 127 447 192 q 381 16 401 63 q 343 -47 360 -31 q 284 -90 317 -74 q 185 -106 251 -106 z "},":":{"ha":461,"x_min":32,"x_max":411,"o":"m 224 565 q 145 580 181 565 q 85 619 110 594 q 46 676 60 643 q 32 746 32 708 q 44 815 32 782 q 81 874 57 849 q 140 913 104 899 q 222 928 175 928 q 358 884 304 928 q 411 746 411 840 q 398 681 411 713 q 360 623 385 649 q 301 581 336 597 q 224 565 267 565 m 224 -25 q 145 -10 181 -25 q 85 28 110 4 q 46 85 60 53 q 32 156 32 118 q 44 225 32 192 q 81 283 57 258 q 140 323 104 308 q 222 338 175 338 q 358 294 304 338 q 411 156 411 250 q 398 90 411 122 q 360 33 385 58 q 301 -9 336 7 q 224 -25 267 -25 z "},";":{"ha":446,"x_min":-29,"x_max":407,"o":"m 219 565 q 141 580 176 565 q 81 619 106 594 q 42 676 56 643 q 28 746 28 708 q 40 815 28 782 q 76 874 53 849 q 135 913 100 899 q 218 928 171 928 q 353 884 300 928 q 407 746 407 840 q 394 681 407 713 q 356 623 381 649 q 297 581 332 597 q 219 565 263 565 m 67 -164 q -1 -140 26 -164 q -29 -79 -29 -115 q -19 -29 -29 -54 q 1 21 -10 -4 q 22 73 13 46 q 32 129 32 100 q 41 197 32 163 q 71 260 50 232 q 126 305 92 288 q 210 322 160 322 q 288 310 257 322 q 338 278 319 299 q 365 232 357 258 q 374 175 374 206 q 344 58 374 118 q 268 -52 314 -3 q 169 -133 222 -101 q 67 -164 115 -164 z "},"<":{"ha":713,"x_min":44,"x_max":667,"o":"m 531 99 q 440 115 492 99 q 335 158 389 131 q 229 222 282 185 q 135 300 176 258 q 69 386 94 342 q 44 474 44 431 q 71 562 44 517 q 140 649 97 607 q 237 728 182 692 q 347 794 292 765 q 455 838 403 822 q 546 854 507 854 q 596 842 574 854 q 633 810 618 829 q 658 765 649 790 q 667 714 667 739 q 643 597 667 640 q 588 531 619 554 q 533 503 561 513 q 482 487 506 493 q 443 476 458 481 q 428 460 428 471 q 448 440 428 443 q 499 428 468 436 q 569 396 531 419 q 646 317 608 372 q 658 289 656 304 q 661 258 661 274 q 652 203 661 232 q 626 151 643 175 q 584 113 608 128 q 531 99 560 99 z "},"=":{"ha":674,"x_min":56,"x_max":611,"o":"m 326 493 q 204 499 256 493 q 119 522 153 506 q 71 566 86 538 q 56 639 56 594 q 73 724 56 693 q 124 772 90 756 q 209 791 158 788 q 326 794 260 794 l 371 794 q 473 791 428 794 q 549 772 518 788 q 595 724 579 757 q 611 635 611 692 q 593 558 611 586 q 540 515 575 529 q 451 497 504 500 q 326 493 397 493 m 326 169 q 204 176 256 169 q 119 198 153 182 q 71 242 86 214 q 56 315 56 271 q 73 402 56 371 q 124 449 90 433 q 209 467 158 464 q 326 471 260 471 l 371 471 q 473 467 428 471 q 549 449 518 464 q 595 401 579 433 q 611 311 611 369 q 593 234 611 263 q 540 191 575 206 q 451 173 504 176 q 326 169 397 169 z "},">":{"ha":706,"x_min":44,"x_max":667,"o":"m 181 854 q 271 838 219 854 q 376 795 322 822 q 482 731 429 768 q 576 653 535 694 q 642 567 617 611 q 667 479 667 522 q 640 391 667 436 q 572 303 614 346 q 474 224 529 261 q 364 159 419 188 q 256 115 308 131 q 165 99 204 99 q 116 111 139 99 q 78 143 93 124 q 53 188 63 163 q 44 239 44 214 q 68 356 44 313 q 124 422 92 399 q 178 451 150 442 q 229 466 206 460 q 268 478 253 472 q 283 493 283 483 q 263 513 283 510 q 212 525 243 517 q 142 557 181 533 q 65 636 103 581 q 53 664 56 649 q 50 694 50 679 q 59 750 50 722 q 85 801 68 778 q 127 840 103 825 q 181 854 151 854 z "},"?":{"ha":633,"x_min":14,"x_max":592,"o":"m 592 693 q 575 552 592 624 q 521 423 558 481 q 424 328 483 365 q 278 292 364 292 q 170 316 203 292 q 138 389 138 340 q 160 458 138 433 q 208 504 182 483 q 256 550 233 525 q 278 617 278 575 q 265 662 278 653 q 232 671 251 671 q 213 661 222 671 q 191 639 203 651 q 164 617 179 626 q 125 607 149 607 q 48 647 82 607 q 14 783 14 686 q 34 875 14 833 q 91 947 54 917 q 180 992 128 976 q 296 1008 232 1008 q 423 993 368 1008 q 515 941 478 978 q 572 844 553 904 q 592 693 592 783 m 286 -78 q 141 -36 193 -78 q 89 92 89 6 q 106 162 89 132 q 153 211 124 192 q 219 240 182 231 q 296 249 257 249 q 368 241 333 249 q 430 216 403 233 q 473 171 457 199 q 489 104 489 143 q 434 -29 489 19 q 286 -78 379 -78 z "},"@":{"ha":1228,"x_min":39,"x_max":1215,"o":"m 910 72 q 831 81 863 72 q 777 103 799 90 q 742 133 756 117 q 718 167 729 150 q 668 138 701 150 q 558 125 635 125 q 465 153 507 125 q 394 225 424 182 q 350 319 365 268 q 335 413 335 369 q 351 526 335 467 q 400 633 368 585 q 478 714 432 682 q 585 746 525 746 q 630 735 613 746 q 658 710 647 724 q 677 686 669 697 q 694 675 685 675 q 710 684 704 675 q 724 704 715 693 q 749 724 733 715 q 796 733 765 733 q 840 713 822 733 q 867 660 857 693 q 882 588 878 628 q 888 508 886 547 q 890 433 890 468 q 889 376 889 399 q 895 331 889 354 q 924 308 901 308 q 944 331 938 308 q 955 382 951 353 q 958 440 958 411 q 958 483 958 469 q 883 710 958 626 q 663 793 808 793 q 505 766 574 793 q 390 690 436 739 q 321 570 344 640 q 297 413 297 500 q 320 275 297 338 q 386 169 343 213 q 492 101 429 125 q 632 76 554 76 l 790 76 q 867 59 839 76 q 894 -8 894 42 q 866 -81 894 -53 q 797 -127 838 -110 q 713 -151 757 -144 q 638 -158 669 -158 q 400 -117 510 -158 q 210 -2 290 -76 q 85 178 131 72 q 39 413 39 283 q 86 655 39 542 q 217 852 133 768 q 413 985 300 936 q 658 1033 526 1033 q 872 992 771 1033 q 1050 879 974 951 q 1171 709 1126 807 q 1215 497 1215 611 q 1197 360 1215 435 q 1142 222 1179 286 q 1047 115 1104 158 q 910 72 989 72 m 621 392 q 642 404 633 392 q 651 432 651 417 q 643 456 651 447 q 622 465 635 465 q 601 456 610 465 q 592 431 592 446 q 601 403 592 415 q 621 392 610 392 z "},"A":{"ha":875,"x_min":22,"x_max":851,"o":"m 692 -21 q 627 -8 653 -21 q 583 25 601 4 q 553 74 565 46 q 531 135 542 103 q 519 172 524 154 q 507 203 515 190 q 485 224 499 217 q 444 232 471 232 q 390 214 407 232 q 365 169 374 196 q 350 110 357 142 q 327 52 343 79 q 278 7 311 25 q 185 -11 246 -11 q 135 2 158 -11 q 92 35 111 15 q 58 79 72 54 q 36 126 44 104 q 29 159 32 140 q 25 197 26 178 q 23 236 24 217 q 22 269 22 256 q 31 415 22 336 q 58 571 39 493 q 108 722 76 649 q 188 851 140 796 q 300 941 235 907 q 450 975 365 975 q 601 942 538 975 q 708 855 664 910 q 781 729 753 800 q 824 582 808 658 q 846 428 840 506 q 851 286 851 351 q 851 247 851 267 q 850 207 850 226 q 841 133 850 174 q 813 59 832 93 q 763 2 793 25 q 692 -21 733 -21 m 450 583 q 405 560 422 583 q 388 508 388 538 q 405 467 388 481 q 446 453 422 453 q 488 473 471 453 q 504 515 504 493 q 489 560 504 536 q 450 583 474 583 z "},"B":{"ha":926,"x_min":32,"x_max":907,"o":"m 32 479 q 40 645 32 558 q 72 804 47 732 q 140 923 96 876 q 260 969 185 969 q 299 963 283 969 q 328 950 314 957 q 356 937 342 943 q 388 931 369 931 q 407 936 397 931 q 445 957 422 947 q 514 967 468 967 q 616 949 560 967 q 721 899 672 932 q 802 817 769 865 q 835 707 835 768 q 816 612 835 650 q 775 549 797 574 q 734 511 753 525 q 715 486 715 497 q 745 469 715 476 q 811 444 775 463 q 877 390 847 426 q 907 282 907 353 q 783 28 907 115 q 394 -60 660 -60 q 269 -37 324 -60 q 175 25 215 -14 q 107 117 135 64 q 63 228 79 169 q 39 349 46 286 q 32 469 32 411 l 32 479 m 442 621 q 481 643 465 621 q 497 693 497 665 q 484 728 497 715 q 449 740 471 740 q 406 725 421 740 q 392 685 392 710 q 407 639 392 657 q 442 621 422 621 m 449 222 q 506 248 489 222 q 522 301 522 274 q 499 338 522 324 q 456 353 476 353 q 416 340 435 353 q 397 290 397 326 q 413 235 397 249 q 449 222 429 222 z "},"C":{"ha":850,"x_min":13,"x_max":826,"o":"m 826 636 q 783 524 826 565 q 669 482 739 482 q 619 487 644 482 q 574 502 594 492 q 540 529 553 513 q 528 568 528 546 q 522 599 528 588 q 506 617 515 611 q 483 626 496 624 q 457 628 471 628 q 408 587 432 628 q 383 463 383 546 q 408 352 383 385 q 467 319 432 319 q 551 374 533 319 q 606 426 565 413 q 693 440 646 440 q 826 294 822 440 l 826 286 q 796 156 826 217 q 712 49 765 94 q 586 -22 658 4 q 431 -47 514 -47 q 256 -11 333 -47 q 125 93 179 25 q 42 258 71 161 q 13 476 13 356 q 41 692 13 596 q 122 856 69 789 q 248 960 174 924 q 414 996 322 996 q 572 967 497 996 q 703 889 647 938 q 793 775 760 840 q 826 636 826 710 z "},"D":{"ha":894,"x_min":28,"x_max":856,"o":"m 28 486 q 29 569 28 519 q 35 673 31 618 q 52 783 40 728 q 84 881 64 838 q 135 953 104 925 q 213 981 167 981 q 258 971 238 981 q 294 949 278 961 q 322 928 310 938 q 340 918 333 918 q 355 926 347 918 q 375 942 363 933 q 409 959 388 951 q 467 967 431 967 q 623 938 551 967 q 746 851 694 908 q 826 706 797 793 q 856 501 856 618 q 815 280 856 378 q 703 115 775 182 q 535 11 632 47 q 326 -25 439 -25 q 210 -3 258 -25 q 128 58 161 19 q 76 148 96 97 q 45 256 56 199 q 31 372 35 313 q 28 486 28 431 m 507 493 q 483 592 507 554 q 421 631 458 631 q 379 611 393 631 q 360 565 365 592 q 356 511 356 539 q 356 467 356 483 q 373 376 356 408 q 421 344 390 344 q 482 388 457 344 q 507 493 507 431 z "},"E":{"ha":792,"x_min":14,"x_max":769,"o":"m 14 221 q 58 359 14 299 q 168 447 103 419 q 195 459 185 454 q 206 471 206 464 q 197 481 206 476 q 175 492 188 485 q 122 526 147 504 q 76 577 96 549 q 46 639 57 606 q 35 707 35 672 q 63 818 35 765 q 144 910 92 871 q 271 973 197 950 q 436 996 344 996 q 562 980 501 996 q 668 935 622 964 q 742 866 714 906 q 769 778 769 826 q 745 699 769 725 q 683 665 721 674 q 603 656 646 656 q 524 657 561 657 q 462 651 486 657 q 438 619 438 644 q 456 590 438 599 q 499 578 474 581 q 553 578 525 576 q 603 581 582 581 q 651 571 632 581 q 682 546 671 561 q 697 511 693 531 q 701 471 701 492 q 697 430 701 450 q 678 393 692 410 q 639 366 664 376 q 575 356 614 356 q 535 356 556 356 q 497 355 514 357 q 470 345 481 353 q 460 322 460 338 q 474 290 460 303 q 513 278 489 278 q 549 282 528 278 q 599 286 571 286 q 722 247 675 286 q 769 142 769 207 q 681 10 769 57 q 436 -36 592 -36 q 369 -36 410 -36 q 281 -31 328 -36 q 186 -11 233 -25 q 101 32 139 3 q 38 107 63 61 q 14 221 14 153 z "},"F":{"ha":706,"x_min":19,"x_max":697,"o":"m 246 -31 q 76 25 133 -31 q 19 189 19 81 q 33 303 19 254 q 63 376 47 351 q 89 412 75 396 q 115 440 103 428 q 136 461 128 453 q 144 475 144 469 q 126 506 144 486 q 85 556 107 526 q 44 628 63 586 q 25 721 25 669 q 56 838 25 789 q 138 920 88 888 q 251 969 188 953 q 381 985 315 985 l 442 985 q 636 944 575 985 q 697 814 697 903 q 680 715 697 754 q 604 676 663 676 q 527 683 568 676 q 439 690 486 690 q 404 674 421 690 q 388 642 388 657 q 390 624 388 635 q 397 605 392 614 q 410 589 401 596 q 432 582 419 582 q 465 584 446 582 q 514 586 483 586 q 625 562 593 586 q 657 478 657 538 q 638 401 657 426 q 589 367 618 376 q 526 359 560 358 q 463 358 492 360 q 414 348 433 357 q 394 311 394 339 q 401 281 394 300 q 415 239 407 263 q 428 188 422 215 q 435 129 435 160 q 418 59 435 89 q 375 9 401 29 q 315 -21 349 -11 q 246 -31 281 -31 z "},"G":{"ha":874,"x_min":14,"x_max":822,"o":"m 815 700 q 787 600 815 631 q 685 569 758 569 q 626 585 647 569 q 588 620 606 601 q 549 654 571 639 q 486 669 526 669 q 426 649 449 669 q 392 597 404 628 q 376 530 379 565 q 372 467 372 494 q 378 407 372 439 q 399 348 385 375 q 437 303 414 321 q 494 285 460 285 q 515 288 503 285 q 536 296 526 290 q 553 310 546 301 q 560 329 560 318 q 547 352 560 342 q 503 363 535 363 q 440 381 458 363 q 421 438 421 399 q 476 524 421 503 q 654 544 532 544 q 740 532 707 544 q 792 494 774 519 q 816 433 810 469 q 822 349 822 397 q 730 67 822 157 q 443 -24 638 -24 q 249 8 331 -24 q 116 99 168 39 q 39 247 64 160 q 14 447 14 335 q 40 647 14 549 q 120 823 67 746 q 254 948 174 900 q 443 996 335 996 q 573 978 507 996 q 693 924 639 961 q 781 832 747 888 q 815 700 815 776 z "},"H":{"ha":947,"x_min":25,"x_max":925,"o":"m 682 0 q 610 24 638 0 q 569 88 583 47 q 549 182 554 128 q 544 297 544 236 q 535 365 544 340 q 499 390 525 390 q 457 378 475 390 q 439 317 439 365 q 403 79 439 158 q 288 0 367 0 q 162 34 213 0 q 81 131 111 68 q 38 281 50 193 q 25 475 25 368 q 29 571 25 518 q 43 678 33 624 q 70 784 53 732 q 115 877 88 836 q 180 942 142 918 q 268 967 218 967 q 385 912 338 967 q 432 746 432 857 q 447 617 432 653 q 493 581 463 581 q 540 594 521 581 q 560 638 560 607 q 557 673 560 653 q 554 719 554 693 q 585 909 554 851 q 701 967 617 967 q 793 943 756 967 q 856 881 831 919 q 894 792 881 842 q 915 691 908 743 q 924 588 922 639 q 925 497 925 538 q 908 294 925 386 q 858 138 890 203 q 781 36 825 72 q 682 0 736 0 z "},"I":{"ha":576,"x_min":13,"x_max":553,"o":"m 299 0 q 199 5 250 0 q 108 23 149 10 q 41 60 67 36 q 15 122 15 85 q 22 152 15 138 q 40 178 29 167 q 61 197 50 190 q 82 204 72 204 q 108 226 97 204 q 124 285 118 249 q 131 374 128 318 q 133 481 133 429 q 131 600 133 543 q 124 693 129 657 q 107 729 119 725 q 71 733 94 733 q 31 760 49 733 q 13 829 13 786 q 35 903 13 872 q 97 956 58 935 q 188 986 136 976 q 299 996 240 996 q 487 952 421 996 q 553 833 553 908 q 532 769 553 789 q 475 750 511 750 q 458 731 465 750 q 447 680 451 711 q 440 612 443 649 q 436 540 438 575 q 435 476 435 504 q 435 435 435 447 q 435 393 435 428 q 440 319 436 358 q 453 248 444 279 q 475 217 461 217 q 502 209 489 217 q 526 189 515 201 q 542 161 536 176 q 549 131 549 146 q 483 31 549 63 q 299 0 417 0 z "},"J":{"ha":590,"x_min":15,"x_max":572,"o":"m 219 -25 q 139 -10 176 -25 q 74 32 101 6 q 31 95 47 58 q 15 175 15 132 q 21 227 15 200 q 37 276 26 254 q 62 313 47 299 q 94 326 76 326 q 147 321 124 326 q 182 315 171 315 q 192 322 189 315 q 197 335 196 328 q 200 353 200 342 q 188 547 200 453 q 176 740 176 640 q 217 910 176 851 q 335 968 257 968 q 440 933 396 968 q 512 844 483 897 q 555 728 540 792 q 571 611 569 665 q 572 564 571 600 q 572 497 572 528 q 545 261 572 360 q 470 99 518 163 q 358 6 422 36 q 219 -25 294 -25 z "},"K":{"ha":903,"x_min":22,"x_max":903,"o":"m 268 -28 q 175 12 219 -28 q 97 119 131 51 q 42 276 63 188 q 22 463 22 365 q 41 653 22 561 q 92 815 60 744 q 169 928 125 886 q 263 971 213 971 q 347 951 313 971 q 403 903 382 932 q 433 842 424 875 q 443 783 443 810 q 440 735 443 763 q 435 682 438 707 q 432 640 432 657 q 436 624 432 624 q 445 642 440 624 q 458 688 450 660 q 474 751 465 715 q 496 821 483 786 q 523 875 506 849 q 566 922 540 901 q 626 954 592 942 q 706 967 661 967 q 765 956 736 967 q 815 924 793 944 q 849 876 836 904 q 861 811 861 847 q 858 766 861 789 q 847 718 856 743 q 824 666 839 693 q 783 608 808 639 q 734 562 761 582 q 683 526 707 542 q 642 497 658 510 q 626 471 626 483 q 636 456 626 467 q 669 429 646 444 q 744 381 704 406 q 820 326 785 356 q 879 258 856 296 q 903 171 903 221 q 885 88 903 121 q 841 35 867 54 q 786 8 815 15 q 735 0 757 0 q 633 19 675 0 q 563 67 592 38 q 514 135 533 97 q 478 211 494 174 q 464 247 471 229 q 451 280 457 265 q 442 304 446 294 q 436 314 439 314 q 435 290 433 314 q 436 226 436 267 q 428 138 436 183 q 399 56 419 92 q 347 -4 379 19 q 268 -28 315 -28 z "},"L":{"ha":678,"x_min":21,"x_max":678,"o":"m 21 450 q 26 540 21 488 q 44 650 32 593 q 78 764 57 707 q 129 866 99 821 q 201 939 160 911 q 296 967 242 967 q 362 938 339 967 q 396 870 385 910 q 409 788 407 831 q 411 714 411 744 q 408 560 411 636 q 404 407 404 485 q 405 376 404 397 q 409 332 406 354 q 420 293 413 310 q 442 276 428 276 q 467 284 454 276 q 495 300 481 292 q 526 316 510 308 q 564 324 543 324 q 618 307 596 324 q 653 266 640 290 q 672 213 667 242 q 678 161 678 185 q 652 69 678 104 q 588 16 626 35 q 501 -8 549 -3 q 411 -14 454 -14 q 235 18 308 -14 q 113 110 161 50 q 43 256 65 169 q 21 450 21 342 z "},"M":{"ha":1113,"x_min":15,"x_max":1092,"o":"m 260 -22 q 156 19 201 -22 q 80 126 111 60 q 32 276 49 192 q 15 446 15 360 q 29 617 15 525 q 76 786 43 708 q 167 916 110 864 q 308 968 224 968 q 381 949 349 968 q 437 900 413 929 q 480 838 461 871 q 515 775 499 804 q 544 726 531 746 q 571 707 557 707 q 598 726 585 707 q 627 774 611 746 q 663 837 643 803 q 707 899 682 871 q 765 947 732 928 q 839 967 797 967 q 961 919 913 967 q 1039 796 1010 871 q 1080 628 1068 721 q 1092 447 1092 536 q 1079 294 1092 376 q 1041 141 1067 211 q 975 24 1015 71 q 881 -22 935 -22 q 792 -5 826 -22 q 738 44 758 13 q 711 122 718 76 q 704 222 704 167 q 707 306 704 263 q 710 387 710 350 q 704 448 710 424 q 681 472 699 472 q 644 448 658 472 q 615 395 629 424 q 586 342 601 367 q 546 318 571 318 q 503 342 515 318 q 485 394 492 365 q 469 447 479 424 q 433 471 460 471 q 403 449 407 471 q 403 394 399 428 q 417 316 408 360 q 426 228 426 272 q 418 142 426 186 q 390 61 410 97 q 338 1 369 25 q 260 -22 306 -22 z "},"N":{"ha":965,"x_min":22,"x_max":938,"o":"m 728 -32 q 652 0 689 -32 q 582 80 615 32 q 519 184 549 128 q 465 288 489 240 q 424 368 442 336 q 399 400 407 400 q 378 381 378 400 q 384 338 378 361 q 399 288 390 314 q 413 233 407 263 q 419 175 419 204 q 413 113 419 149 q 393 44 407 76 q 356 -10 379 13 q 297 -33 332 -33 q 188 -1 233 -33 q 113 85 143 32 q 64 206 82 139 q 37 340 46 272 q 25 469 28 407 q 22 575 22 532 q 36 700 22 632 q 80 827 50 768 q 158 926 110 886 q 278 967 207 967 q 374 931 331 967 q 451 842 417 894 q 511 733 486 790 q 554 636 536 676 q 559 626 556 635 q 567 607 563 617 q 577 590 572 597 q 585 582 582 582 q 596 599 593 582 q 599 622 599 617 q 593 667 599 644 q 581 710 588 689 q 569 754 575 732 q 564 799 564 776 q 573 867 564 833 q 601 926 582 900 q 649 967 619 951 q 717 983 678 983 q 791 961 758 983 q 849 903 824 939 q 890 822 874 867 q 917 731 907 776 q 933 642 928 685 q 938 569 938 600 q 937 475 938 533 q 931 349 936 417 q 913 215 925 282 q 876 92 900 147 q 817 3 853 38 q 728 -32 781 -32 z "},"O":{"ha":947,"x_min":32,"x_max":926,"o":"m 926 471 q 892 259 926 353 q 797 101 858 165 q 650 2 736 36 q 461 -32 564 -32 q 276 3 357 -32 q 142 105 196 39 q 60 266 88 171 q 32 481 32 361 q 64 697 32 606 q 156 849 96 789 q 300 938 215 908 q 490 967 385 967 q 667 934 588 967 q 805 838 747 901 q 894 683 863 775 q 926 471 926 590 m 474 339 q 536 378 513 339 q 560 476 560 417 q 553 533 560 506 q 535 581 547 560 q 508 613 524 601 q 474 625 493 625 q 438 612 454 625 q 408 577 421 599 q 388 527 396 556 q 381 468 381 499 q 408 374 381 410 q 474 339 436 339 z "},"P":{"ha":840,"x_min":18,"x_max":815,"o":"m 268 -14 q 154 25 201 -14 q 76 134 107 64 q 32 301 46 204 q 18 514 18 397 q 31 700 18 617 q 76 844 43 783 q 165 937 108 904 q 308 969 221 969 q 342 963 328 969 q 368 950 357 957 q 388 937 379 943 q 403 931 396 931 q 421 936 411 931 q 445 949 431 942 q 479 961 460 956 q 528 967 499 967 q 654 939 600 967 q 744 863 708 911 q 797 752 779 815 q 815 619 815 689 q 756 363 815 451 q 567 275 697 275 q 511 283 533 275 q 474 300 489 290 q 450 317 460 310 q 433 325 440 325 q 422 310 422 325 q 427 272 422 294 q 438 222 432 249 q 443 175 443 196 q 401 39 443 92 q 268 -14 358 -14 m 443 533 q 481 553 467 533 q 494 592 494 574 q 491 614 494 600 q 481 640 488 628 q 466 662 475 653 q 444 671 457 671 q 423 660 432 671 q 408 636 414 650 q 399 607 401 622 q 396 583 396 592 q 409 549 396 565 q 443 533 422 533 z "},"Q":{"ha":976,"x_min":19,"x_max":958,"o":"m 699 -207 q 634 -201 660 -207 q 592 -185 608 -194 q 568 -165 576 -176 q 556 -142 560 -153 q 549 -104 550 -125 q 547 -62 547 -83 q 543 -25 546 -42 q 532 0 540 -8 q 508 1 526 7 q 439 -4 489 -4 q 276 33 353 -4 q 143 133 200 69 q 53 281 86 196 q 19 464 19 367 q 50 666 19 574 q 140 825 81 758 q 286 929 199 892 q 488 967 374 967 q 840 838 721 967 q 958 478 958 708 q 947 340 958 410 q 913 210 936 269 q 852 109 889 151 q 765 56 815 67 q 788 19 776 33 q 809 -10 800 4 q 824 -42 818 -25 q 829 -85 829 -58 q 818 -132 829 -110 q 789 -171 807 -154 q 747 -197 771 -187 q 699 -207 724 -207 m 472 339 q 551 378 521 339 q 582 476 582 417 q 574 533 582 506 q 551 581 565 560 q 516 613 536 601 q 472 625 496 625 q 426 612 447 625 q 388 577 404 599 q 362 527 371 556 q 353 468 353 499 q 388 374 353 410 q 472 339 424 339 z "},"R":{"ha":876,"x_min":15,"x_max":876,"o":"m 264 0 q 159 49 206 0 q 81 170 113 97 q 32 328 49 243 q 15 488 15 414 q 31 646 15 561 q 81 803 46 731 q 170 922 115 875 q 304 969 225 969 q 338 963 324 969 q 364 950 353 957 q 383 937 375 943 q 399 931 392 931 q 417 936 407 931 q 441 949 426 942 q 476 961 456 956 q 524 967 496 967 q 639 953 581 967 q 744 909 697 940 q 822 825 792 878 q 851 693 851 772 q 831 565 851 614 q 780 485 811 515 q 711 436 749 454 q 638 400 674 418 q 659 377 640 389 q 704 352 678 365 q 760 323 731 339 q 816 284 790 307 q 859 231 842 261 q 876 163 876 201 q 865 102 876 132 q 828 50 853 72 q 765 14 803 28 q 675 0 728 0 q 592 23 626 0 q 533 79 558 46 q 491 153 508 113 q 461 226 474 193 q 438 283 449 260 q 413 306 426 306 q 394 289 393 306 q 406 249 396 272 q 426 201 415 226 q 438 156 438 175 q 396 36 438 72 q 264 0 354 0 m 447 571 q 481 592 468 571 q 494 631 494 613 q 492 651 494 639 q 483 673 489 663 q 468 690 476 683 q 449 697 460 697 q 429 689 438 697 q 415 669 421 681 q 407 645 410 658 q 404 624 404 632 q 416 588 404 606 q 447 571 428 571 z "},"S":{"ha":894,"x_min":29,"x_max":882,"o":"m 29 238 q 39 295 29 267 q 66 347 49 324 q 108 385 83 371 q 164 400 133 400 q 254 384 222 400 q 311 348 286 368 q 363 312 336 328 q 436 296 389 296 q 477 308 460 296 q 494 351 494 319 q 483 372 494 363 q 458 390 472 382 q 428 403 443 397 q 404 410 413 408 q 280 439 344 425 q 161 480 215 453 q 72 556 107 507 q 38 692 38 606 q 63 817 38 761 q 142 913 89 872 q 275 974 194 953 q 465 996 356 996 q 602 980 535 996 q 722 933 669 964 q 808 858 775 903 q 840 756 840 814 q 831 706 840 732 q 805 656 822 679 q 763 619 788 633 q 710 604 739 604 q 656 619 675 604 q 620 651 638 633 q 579 684 603 669 q 511 699 556 699 q 478 688 493 699 q 464 653 464 678 q 475 632 464 642 q 501 615 486 622 q 530 604 515 608 q 553 597 544 600 q 673 561 614 581 q 778 510 732 542 q 853 431 825 479 q 882 310 882 383 q 840 162 882 225 q 733 58 799 99 q 587 -3 667 17 q 429 -24 507 -24 q 271 -8 344 -24 q 144 40 197 8 q 60 122 90 72 q 29 238 29 171 z "},"T":{"ha":782,"x_min":14,"x_max":782,"o":"m 413 -3 q 308 24 349 -3 q 244 97 267 51 q 213 204 221 143 q 204 332 204 265 q 213 428 204 382 q 232 515 222 474 q 247 593 242 557 q 246 660 253 629 q 222 649 242 650 q 194 649 203 649 q 128 655 161 649 q 70 677 96 661 q 29 719 44 693 q 14 786 14 746 q 34 867 14 835 q 86 921 54 900 q 157 951 118 942 q 233 963 196 961 q 325 965 279 965 q 417 965 371 965 q 528 963 465 965 q 647 944 590 961 q 743 891 704 928 q 782 786 782 854 q 769 726 782 749 q 735 690 757 703 q 683 673 713 678 q 621 668 654 668 q 582 669 601 668 q 543 672 563 671 q 556 603 546 639 q 578 526 567 567 q 599 442 589 486 q 608 353 608 399 q 605 231 608 294 q 583 116 601 168 q 524 31 564 64 q 413 -3 485 -3 z "},"U":{"ha":896,"x_min":14,"x_max":882,"o":"m 449 -24 q 118 117 222 -24 q 14 542 14 258 q 32 719 14 640 q 82 852 50 797 q 160 937 114 907 q 261 967 206 967 q 399 790 399 967 q 395 731 399 760 q 387 672 392 703 q 378 608 382 642 q 375 535 375 575 q 376 481 375 521 q 382 397 376 440 q 401 321 388 354 q 440 288 415 288 q 497 357 476 288 q 517 546 517 426 q 510 693 517 629 q 503 807 503 757 q 532 928 503 890 q 626 967 561 967 q 813 858 743 967 q 882 546 882 749 q 852 311 882 417 q 766 131 822 206 q 629 17 710 57 q 449 -24 549 -24 z "},"V":{"ha":906,"x_min":14,"x_max":886,"o":"m 732 971 q 787 959 760 971 q 836 923 814 947 q 872 861 858 899 q 886 771 886 824 q 879 612 886 699 q 853 438 872 525 q 804 269 835 350 q 726 124 774 188 q 612 23 678 61 q 458 -15 546 -15 q 288 29 360 -15 q 167 143 217 74 q 88 298 118 213 q 41 465 57 383 q 19 614 25 546 q 14 717 14 682 q 32 841 14 792 q 76 920 50 890 q 133 963 103 950 q 186 975 163 975 q 259 967 226 975 q 317 924 292 958 q 345 848 333 900 q 367 732 357 796 q 386 601 376 668 q 408 477 396 533 q 435 385 419 421 q 472 349 450 349 q 500 383 489 349 q 519 469 511 417 q 533 586 526 522 q 546 711 539 650 q 561 821 553 772 q 583 893 569 869 q 645 956 610 940 q 732 971 681 971 z "},"W":{"ha":1274,"x_min":0,"x_max":1267,"o":"m 1090 975 q 1217 913 1168 975 q 1267 707 1267 850 q 1244 410 1267 544 q 1175 179 1221 276 q 1061 28 1129 82 q 904 -25 993 -25 q 769 4 818 -25 q 694 75 721 33 q 656 164 668 117 q 629 247 643 211 q 606 171 619 217 q 567 81 593 125 q 497 6 540 38 q 382 -25 453 -25 q 205 20 278 -25 q 86 149 132 65 q 20 353 40 233 q 0 624 0 474 q 19 786 0 719 q 65 894 38 853 q 123 953 92 935 q 178 971 154 971 q 216 969 197 971 q 253 961 235 968 q 291 940 272 954 q 328 899 310 925 q 350 831 342 878 q 363 727 358 785 q 372 607 368 669 q 383 494 376 544 q 399 410 389 443 q 425 376 408 376 q 455 408 443 376 q 475 488 467 439 q 488 595 483 536 q 496 709 492 654 q 504 808 500 764 q 515 871 508 853 q 563 931 529 907 q 636 954 596 954 q 699 944 672 954 q 750 906 726 935 q 780 834 769 882 q 797 728 790 786 q 808 609 804 671 q 819 497 813 547 q 835 415 825 447 q 861 383 844 383 q 890 401 878 383 q 909 446 901 418 q 920 507 917 474 q 926 574 924 540 q 931 635 929 607 q 933 679 932 663 q 935 725 935 694 q 938 789 936 756 q 941 851 939 822 q 947 890 943 879 q 967 930 956 914 q 994 956 978 946 q 1033 970 1010 965 q 1090 975 1056 975 z "},"X":{"ha":908,"x_min":4,"x_max":900,"o":"m 199 -12 q 59 25 114 -12 q 4 133 4 63 q 22 217 4 178 q 65 292 39 257 q 122 357 92 326 q 178 413 151 388 q 222 458 204 438 q 239 493 239 478 q 206 548 239 515 q 131 623 172 581 q 57 718 90 665 q 24 833 24 771 q 39 885 24 861 q 78 928 54 910 q 131 956 101 946 q 186 967 160 967 q 283 953 243 967 q 346 917 322 939 q 385 859 367 899 q 420 780 404 819 q 447 710 436 740 q 464 679 458 681 q 501 752 481 704 q 549 847 522 800 q 610 929 576 894 q 686 964 644 964 q 746 958 713 964 q 808 938 779 953 q 858 898 838 924 q 878 833 878 872 q 863 753 878 793 q 824 677 847 714 q 775 608 801 640 q 726 549 749 575 q 688 506 703 524 q 672 483 672 489 q 708 444 672 475 q 786 366 743 413 q 865 260 829 319 q 900 133 900 200 q 881 76 900 103 q 833 31 863 50 q 770 -1 804 11 q 706 -12 736 -12 q 635 6 667 -12 q 579 53 604 25 q 535 115 554 82 q 502 176 517 147 q 476 223 488 204 q 457 242 465 242 q 434 223 449 242 q 400 176 419 204 q 357 115 381 147 q 308 53 333 82 q 254 6 282 25 q 199 -12 226 -12 z "},"Y":{"ha":806,"x_min":17,"x_max":788,"o":"m 408 -47 q 320 -33 360 -47 q 253 8 281 -18 q 212 68 226 33 q 197 142 197 103 q 203 189 197 169 q 217 226 210 208 q 230 263 224 244 q 236 308 236 282 q 220 358 236 336 q 179 403 204 379 q 126 455 154 426 q 74 522 99 483 q 33 615 49 561 q 17 742 17 668 q 31 845 17 803 q 69 915 46 888 q 123 954 93 942 q 185 967 153 967 q 273 948 238 967 q 330 897 308 929 q 361 821 351 865 q 371 726 371 776 q 374 682 371 704 q 382 642 376 660 q 394 614 388 625 q 410 603 401 603 q 440 642 429 603 q 451 739 451 681 q 462 819 451 779 q 494 892 472 860 q 553 946 517 925 q 642 967 590 967 q 701 956 674 967 q 747 918 728 944 q 777 849 767 892 q 788 744 788 807 q 756 591 788 657 q 685 473 724 525 q 615 378 647 421 q 583 293 583 336 q 589 255 583 269 q 601 227 594 240 q 613 199 607 214 q 618 160 618 185 q 603 81 618 118 q 562 15 589 43 q 496 -31 535 -14 q 408 -47 457 -47 z "},"Z":{"ha":803,"x_min":7,"x_max":794,"o":"m 386 -19 q 230 -1 300 -19 q 110 49 160 17 q 34 128 61 82 q 7 231 7 174 q 47 357 7 303 q 142 458 86 411 q 259 552 199 506 q 361 657 319 599 q 367 668 364 660 q 354 675 367 675 q 333 675 342 675 q 256 663 297 675 q 175 650 215 650 q 69 693 110 650 q 28 803 28 736 q 322 976 28 976 q 391 977 349 976 q 483 974 433 978 q 583 963 532 971 q 674 937 633 954 q 741 891 715 919 q 767 818 767 863 q 733 693 767 760 q 652 561 700 626 q 551 438 604 496 q 457 339 497 379 q 436 319 442 324 q 431 311 431 315 q 440 307 431 307 q 559 320 501 307 q 665 333 617 333 q 761 305 728 333 q 794 222 794 276 q 764 126 794 171 q 678 49 733 82 q 549 -1 624 17 q 386 -19 474 -19 z "},"[":{"ha":611,"x_min":65,"x_max":561,"o":"m 396 -104 q 213 -72 279 -104 q 113 13 146 -40 q 73 133 81 65 q 65 272 65 201 q 69 467 65 369 q 72 661 72 564 q 74 724 72 688 q 81 800 75 760 q 98 879 86 840 q 131 950 110 918 q 185 1002 153 982 q 264 1025 218 1022 q 308 1028 286 1026 q 351 1029 329 1029 q 424 1026 388 1029 q 489 1013 460 1024 q 536 982 518 1003 q 554 925 554 961 q 524 857 554 876 q 435 838 493 838 l 422 838 q 376 817 392 838 q 354 770 361 797 q 347 715 347 743 q 346 672 346 688 q 342 484 346 578 q 338 296 338 390 q 338 249 338 281 q 342 183 338 217 q 361 124 347 150 q 401 96 375 99 q 460 92 432 92 q 511 85 489 92 q 547 63 533 79 q 561 13 561 47 q 547 -35 561 -14 q 510 -72 533 -57 q 458 -96 488 -87 q 396 -104 428 -104 z "},"\\":{"ha":651,"x_min":40,"x_max":624,"o":"m 479 -106 q 380 -90 413 -106 q 321 -47 347 -74 q 283 16 304 -31 q 240 127 263 63 q 193 269 217 192 q 147 427 169 347 q 106 583 125 507 q 72 722 86 660 q 49 825 57 783 q 40 878 40 867 q 88 989 40 953 q 206 1025 135 1025 q 256 1019 233 1025 q 295 1007 278 1014 q 324 992 313 1000 q 342 982 336 985 q 384 916 357 974 q 442 771 411 858 q 506 577 474 683 q 565 365 539 471 q 607 163 590 258 q 624 0 624 67 q 581 -76 624 -46 q 479 -106 538 -106 z "},"]":{"ha":619,"x_min":58,"x_max":554,"o":"m 224 -104 q 162 -96 192 -104 q 109 -72 132 -87 q 72 -35 86 -57 q 58 13 58 -14 q 72 63 58 47 q 108 85 86 79 q 159 92 131 92 q 218 96 188 92 q 259 124 246 99 q 277 183 272 150 q 282 249 282 217 q 282 296 282 281 q 278 484 282 390 q 274 672 274 578 q 273 715 274 688 q 265 770 272 743 q 243 817 258 797 q 197 838 228 838 l 185 838 q 96 857 126 838 q 65 925 65 876 q 83 982 65 961 q 131 1013 101 1003 q 196 1026 160 1024 q 268 1029 232 1029 q 312 1028 290 1029 q 356 1025 333 1026 q 435 1003 403 1024 q 488 950 467 982 q 522 879 510 918 q 539 800 533 840 q 546 724 544 760 q 547 661 547 688 q 551 467 547 564 q 554 272 554 369 q 547 133 554 201 q 506 13 539 65 q 407 -72 474 -40 q 224 -104 340 -104 z "},"^":{"ha":731,"x_min":39,"x_max":711,"o":"m 372 774 q 353 758 363 774 q 334 718 344 743 q 310 663 324 693 q 275 601 296 632 q 222 560 256 574 q 160 546 188 546 q 115 553 138 546 q 76 574 93 561 q 49 606 60 588 q 39 644 39 624 q 52 721 39 675 q 89 817 65 767 q 144 917 113 867 q 213 1008 176 968 q 290 1074 250 1049 q 371 1099 331 1099 q 451 1076 411 1099 q 529 1015 492 1053 q 600 931 567 978 q 658 835 633 883 q 697 743 683 788 q 711 667 711 699 q 673 589 711 619 q 571 558 635 558 q 504 572 540 558 q 449 618 468 585 q 425 671 435 643 q 407 722 415 699 q 390 759 399 744 q 372 774 382 774 z "},"_":{"ha":678,"x_min":75,"x_max":597,"o":"m 329 -169 q 214 -162 263 -169 q 135 -136 165 -156 q 90 -83 104 -117 q 75 6 75 -49 q 91 110 75 72 q 139 166 107 147 q 219 189 171 185 q 329 193 267 193 l 372 193 q 468 189 426 193 q 538 165 510 185 q 582 108 567 146 q 597 0 597 69 q 585 -83 597 -50 q 542 -135 572 -115 q 460 -162 513 -154 q 329 -169 408 -169 z "},"`":{"ha":453,"x_min":36,"x_max":411,"o":"m 293 740 q 215 764 258 740 q 133 822 172 788 q 67 896 94 856 q 38 969 40 936 q 47 1011 36 992 q 74 1045 57 1031 q 113 1068 90 1060 q 156 1076 135 1076 q 197 1066 176 1076 q 233 1033 218 1056 q 279 973 257 997 q 329 917 301 949 q 358 886 343 901 q 393 851 374 871 q 408 818 407 836 q 380 765 411 790 q 293 740 349 740 z "},"a":{"ha":875,"x_min":22,"x_max":851,"o":"m 692 -21 q 627 -8 653 -21 q 583 25 601 4 q 553 74 565 46 q 531 135 542 103 q 519 172 524 154 q 507 203 515 190 q 485 224 499 217 q 444 232 471 232 q 390 214 407 232 q 365 169 374 196 q 350 110 357 142 q 327 52 343 79 q 278 7 311 25 q 185 -11 246 -11 q 135 2 158 -11 q 92 35 111 15 q 58 79 72 54 q 36 126 44 104 q 29 159 32 140 q 25 197 26 178 q 23 236 24 217 q 22 269 22 256 q 31 415 22 336 q 58 571 39 493 q 108 722 76 649 q 188 851 140 796 q 300 941 235 907 q 450 975 365 975 q 601 942 538 975 q 708 855 664 910 q 781 729 753 800 q 824 582 808 658 q 846 428 840 506 q 851 286 851 351 q 851 247 851 267 q 850 207 850 226 q 841 133 850 174 q 813 59 832 93 q 763 2 793 25 q 692 -21 733 -21 m 450 583 q 405 560 422 583 q 388 508 388 538 q 405 467 388 481 q 446 453 422 453 q 488 473 471 453 q 504 515 504 493 q 489 560 504 536 q 450 583 474 583 z "},"b":{"ha":926,"x_min":32,"x_max":907,"o":"m 32 479 q 40 645 32 558 q 72 804 47 732 q 140 923 96 876 q 260 969 185 969 q 299 963 283 969 q 328 950 314 957 q 356 937 342 943 q 388 931 369 931 q 407 936 397 931 q 445 957 422 947 q 514 967 468 967 q 616 949 560 967 q 721 899 672 932 q 802 817 769 865 q 835 707 835 768 q 816 612 835 650 q 775 549 797 574 q 734 511 753 525 q 715 486 715 497 q 745 469 715 476 q 811 444 775 463 q 877 390 847 426 q 907 282 907 353 q 783 28 907 115 q 394 -60 660 -60 q 269 -37 324 -60 q 175 25 215 -14 q 107 117 135 64 q 63 228 79 169 q 39 349 46 286 q 32 469 32 411 l 32 479 m 442 621 q 481 643 465 621 q 497 693 497 665 q 484 728 497 715 q 449 740 471 740 q 406 725 421 740 q 392 685 392 710 q 407 639 392 657 q 442 621 422 621 m 449 222 q 506 248 489 222 q 522 301 522 274 q 499 338 522 324 q 456 353 476 353 q 416 340 435 353 q 397 290 397 326 q 413 235 397 249 q 449 222 429 222 z "},"c":{"ha":850,"x_min":13,"x_max":826,"o":"m 826 636 q 783 524 826 565 q 669 482 739 482 q 619 487 644 482 q 574 502 594 492 q 540 529 553 513 q 528 568 528 546 q 522 599 528 588 q 506 617 515 611 q 483 626 496 624 q 457 628 471 628 q 408 587 432 628 q 383 463 383 546 q 408 352 383 385 q 467 319 432 319 q 551 374 533 319 q 606 426 565 413 q 693 440 646 440 q 826 294 822 440 l 826 286 q 796 156 826 217 q 712 49 765 94 q 586 -22 658 4 q 431 -47 514 -47 q 256 -11 333 -47 q 125 93 179 25 q 42 258 71 161 q 13 476 13 356 q 41 692 13 596 q 122 856 69 789 q 248 960 174 924 q 414 996 322 996 q 572 967 497 996 q 703 889 647 938 q 793 775 760 840 q 826 636 826 710 z "},"d":{"ha":894,"x_min":28,"x_max":856,"o":"m 28 486 q 29 569 28 519 q 35 673 31 618 q 52 783 40 728 q 84 881 64 838 q 135 953 104 925 q 213 981 167 981 q 258 971 238 981 q 294 949 278 961 q 322 928 310 938 q 340 918 333 918 q 355 926 347 918 q 375 942 363 933 q 409 959 388 951 q 467 967 431 967 q 623 938 551 967 q 746 851 694 908 q 826 706 797 793 q 856 501 856 618 q 815 280 856 378 q 703 115 775 182 q 535 11 632 47 q 326 -25 439 -25 q 210 -3 258 -25 q 128 58 161 19 q 76 148 96 97 q 45 256 56 199 q 31 372 35 313 q 28 486 28 431 m 507 493 q 483 592 507 554 q 421 631 458 631 q 379 611 393 631 q 360 565 365 592 q 356 511 356 539 q 356 467 356 483 q 373 376 356 408 q 421 344 390 344 q 482 388 457 344 q 507 493 507 431 z "},"e":{"ha":792,"x_min":14,"x_max":769,"o":"m 14 221 q 58 359 14 299 q 168 447 103 419 q 195 459 185 454 q 206 471 206 464 q 197 481 206 476 q 175 492 188 485 q 122 526 147 504 q 76 577 96 549 q 46 639 57 606 q 35 707 35 672 q 63 818 35 765 q 144 910 92 871 q 271 973 197 950 q 436 996 344 996 q 562 980 501 996 q 668 935 622 964 q 742 866 714 906 q 769 778 769 826 q 745 699 769 725 q 683 665 721 674 q 603 656 646 656 q 524 657 561 657 q 462 651 486 657 q 438 619 438 644 q 456 590 438 599 q 499 578 474 581 q 553 578 525 576 q 603 581 582 581 q 651 571 632 581 q 682 546 671 561 q 697 511 693 531 q 701 471 701 492 q 697 430 701 450 q 678 393 692 410 q 639 366 664 376 q 575 356 614 356 q 535 356 556 356 q 497 355 514 357 q 470 345 481 353 q 460 322 460 338 q 474 290 460 303 q 513 278 489 278 q 549 282 528 278 q 599 286 571 286 q 722 247 675 286 q 769 142 769 207 q 681 10 769 57 q 436 -36 592 -36 q 369 -36 410 -36 q 281 -31 328 -36 q 186 -11 233 -25 q 101 32 139 3 q 38 107 63 61 q 14 221 14 153 z "},"f":{"ha":706,"x_min":19,"x_max":697,"o":"m 246 -31 q 76 25 133 -31 q 19 189 19 81 q 33 303 19 254 q 63 376 47 351 q 89 412 75 396 q 115 440 103 428 q 136 461 128 453 q 144 475 144 469 q 126 506 144 486 q 85 556 107 526 q 44 628 63 586 q 25 721 25 669 q 56 838 25 789 q 138 920 88 888 q 251 969 188 953 q 381 985 315 985 l 442 985 q 636 944 575 985 q 697 814 697 903 q 680 715 697 754 q 604 676 663 676 q 527 683 568 676 q 439 690 486 690 q 404 674 421 690 q 388 642 388 657 q 390 624 388 635 q 397 605 392 614 q 410 589 401 596 q 432 582 419 582 q 465 584 446 582 q 514 586 483 586 q 625 562 593 586 q 657 478 657 538 q 638 401 657 426 q 589 367 618 376 q 526 359 560 358 q 463 358 492 360 q 414 348 433 357 q 394 311 394 339 q 401 281 394 300 q 415 239 407 263 q 428 188 422 215 q 435 129 435 160 q 418 59 435 89 q 375 9 401 29 q 315 -21 349 -11 q 246 -31 281 -31 z "},"g":{"ha":874,"x_min":14,"x_max":822,"o":"m 815 700 q 787 600 815 631 q 685 569 758 569 q 626 585 647 569 q 588 620 606 601 q 549 654 571 639 q 486 669 526 669 q 426 649 449 669 q 392 597 404 628 q 376 530 379 565 q 372 467 372 494 q 378 407 372 439 q 399 348 385 375 q 437 303 414 321 q 494 285 460 285 q 515 288 503 285 q 536 296 526 290 q 553 310 546 301 q 560 329 560 318 q 547 352 560 342 q 503 363 535 363 q 440 381 458 363 q 421 438 421 399 q 476 524 421 503 q 654 544 532 544 q 740 532 707 544 q 792 494 774 519 q 816 433 810 469 q 822 349 822 397 q 730 67 822 157 q 443 -24 638 -24 q 249 8 331 -24 q 116 99 168 39 q 39 247 64 160 q 14 447 14 335 q 40 647 14 549 q 120 823 67 746 q 254 948 174 900 q 443 996 335 996 q 573 978 507 996 q 693 924 639 961 q 781 832 747 888 q 815 700 815 776 z "},"h":{"ha":947,"x_min":25,"x_max":925,"o":"m 682 0 q 610 24 638 0 q 569 88 583 47 q 549 182 554 128 q 544 297 544 236 q 535 365 544 340 q 499 390 525 390 q 457 378 475 390 q 439 317 439 365 q 403 79 439 158 q 288 0 367 0 q 162 34 213 0 q 81 131 111 68 q 38 281 50 193 q 25 475 25 368 q 29 571 25 518 q 43 678 33 624 q 70 784 53 732 q 115 877 88 836 q 180 942 142 918 q 268 967 218 967 q 385 912 338 967 q 432 746 432 857 q 447 617 432 653 q 493 581 463 581 q 540 594 521 581 q 560 638 560 607 q 557 673 560 653 q 554 719 554 693 q 585 909 554 851 q 701 967 617 967 q 793 943 756 967 q 856 881 831 919 q 894 792 881 842 q 915 691 908 743 q 924 588 922 639 q 925 497 925 538 q 908 294 925 386 q 858 138 890 203 q 781 36 825 72 q 682 0 736 0 z "},"i":{"ha":576,"x_min":13,"x_max":553,"o":"m 299 0 q 199 5 250 0 q 108 23 149 10 q 41 60 67 36 q 15 122 15 85 q 22 152 15 138 q 40 178 29 167 q 61 197 50 190 q 82 204 72 204 q 108 226 97 204 q 124 285 118 249 q 131 374 128 318 q 133 481 133 429 q 131 600 133 543 q 124 693 129 657 q 107 729 119 725 q 71 733 94 733 q 31 760 49 733 q 13 829 13 786 q 35 903 13 872 q 97 956 58 935 q 188 986 136 976 q 299 996 240 996 q 487 952 421 996 q 553 833 553 908 q 532 769 553 789 q 475 750 511 750 q 458 731 465 750 q 447 680 451 711 q 440 612 443 649 q 436 540 438 575 q 435 476 435 504 q 435 435 435 447 q 435 393 435 428 q 440 319 436 358 q 453 248 444 279 q 475 217 461 217 q 502 209 489 217 q 526 189 515 201 q 542 161 536 176 q 549 131 549 146 q 483 31 549 63 q 299 0 417 0 z "},"j":{"ha":590,"x_min":15,"x_max":572,"o":"m 219 -25 q 139 -10 176 -25 q 74 32 101 6 q 31 95 47 58 q 15 175 15 132 q 21 227 15 200 q 37 276 26 254 q 62 313 47 299 q 94 326 76 326 q 147 321 124 326 q 182 315 171 315 q 192 322 189 315 q 197 335 196 328 q 200 353 200 342 q 188 547 200 453 q 176 740 176 640 q 217 910 176 851 q 335 968 257 968 q 440 933 396 968 q 512 844 483 897 q 555 728 540 792 q 571 611 569 665 q 572 564 571 600 q 572 497 572 528 q 545 261 572 360 q 470 99 518 163 q 358 6 422 36 q 219 -25 294 -25 z "},"k":{"ha":903,"x_min":22,"x_max":903,"o":"m 268 -28 q 175 12 219 -28 q 97 119 131 51 q 42 276 63 188 q 22 463 22 365 q 41 653 22 561 q 92 815 60 744 q 169 928 125 886 q 263 971 213 971 q 347 951 313 971 q 403 903 382 932 q 433 842 424 875 q 443 783 443 810 q 440 735 443 763 q 435 682 438 707 q 432 640 432 657 q 436 624 432 624 q 445 642 440 624 q 458 688 450 660 q 474 751 465 715 q 496 821 483 786 q 523 875 506 849 q 566 922 540 901 q 626 954 592 942 q 706 967 661 967 q 765 956 736 967 q 815 924 793 944 q 849 876 836 904 q 861 811 861 847 q 858 766 861 789 q 847 718 856 743 q 824 666 839 693 q 783 608 808 639 q 734 562 761 582 q 683 526 707 542 q 642 497 658 510 q 626 471 626 483 q 636 456 626 467 q 669 429 646 444 q 744 381 704 406 q 820 326 785 356 q 879 258 856 296 q 903 171 903 221 q 885 88 903 121 q 841 35 867 54 q 786 8 815 15 q 735 0 757 0 q 633 19 675 0 q 563 67 592 38 q 514 135 533 97 q 478 211 494 174 q 464 247 471 229 q 451 280 457 265 q 442 304 446 294 q 436 314 439 314 q 435 290 433 314 q 436 226 436 267 q 428 138 436 183 q 399 56 419 92 q 347 -4 379 19 q 268 -28 315 -28 z "},"l":{"ha":678,"x_min":21,"x_max":678,"o":"m 21 450 q 26 540 21 488 q 44 650 32 593 q 78 764 57 707 q 129 866 99 821 q 201 939 160 911 q 296 967 242 967 q 362 938 339 967 q 396 870 385 910 q 409 788 407 831 q 411 714 411 744 q 408 560 411 636 q 404 407 404 485 q 405 376 404 397 q 409 332 406 354 q 420 293 413 310 q 442 276 428 276 q 467 284 454 276 q 495 300 481 292 q 526 316 510 308 q 564 324 543 324 q 618 307 596 324 q 653 266 640 290 q 672 213 667 242 q 678 161 678 185 q 652 69 678 104 q 588 16 626 35 q 501 -8 549 -3 q 411 -14 454 -14 q 235 18 308 -14 q 113 110 161 50 q 43 256 65 169 q 21 450 21 342 z "},"m":{"ha":1113,"x_min":15,"x_max":1092,"o":"m 260 -22 q 156 19 201 -22 q 80 126 111 60 q 32 276 49 192 q 15 446 15 360 q 29 617 15 525 q 76 786 43 708 q 167 916 110 864 q 308 968 224 968 q 381 949 349 968 q 437 900 413 929 q 480 838 461 871 q 515 775 499 804 q 544 726 531 746 q 571 707 557 707 q 598 726 585 707 q 627 774 611 746 q 663 837 643 803 q 707 899 682 871 q 765 947 732 928 q 839 967 797 967 q 961 919 913 967 q 1039 796 1010 871 q 1080 628 1068 721 q 1092 447 1092 536 q 1079 294 1092 376 q 1041 141 1067 211 q 975 24 1015 71 q 881 -22 935 -22 q 792 -5 826 -22 q 738 44 758 13 q 711 122 718 76 q 704 222 704 167 q 707 306 704 263 q 710 387 710 350 q 704 448 710 424 q 681 472 699 472 q 644 448 658 472 q 615 395 629 424 q 586 342 601 367 q 546 318 571 318 q 503 342 515 318 q 485 394 492 365 q 469 447 479 424 q 433 471 460 471 q 403 449 407 471 q 403 394 399 428 q 417 316 408 360 q 426 228 426 272 q 418 142 426 186 q 390 61 410 97 q 338 1 369 25 q 260 -22 306 -22 z "},"n":{"ha":965,"x_min":22,"x_max":938,"o":"m 728 -32 q 652 0 689 -32 q 582 80 615 32 q 519 184 549 128 q 465 288 489 240 q 424 368 442 336 q 399 400 407 400 q 378 381 378 400 q 384 338 378 361 q 399 288 390 314 q 413 233 407 263 q 419 175 419 204 q 413 113 419 149 q 393 44 407 76 q 356 -10 379 13 q 297 -33 332 -33 q 188 -1 233 -33 q 113 85 143 32 q 64 206 82 139 q 37 340 46 272 q 25 469 28 407 q 22 575 22 532 q 36 700 22 632 q 80 827 50 768 q 158 926 110 886 q 278 967 207 967 q 374 931 331 967 q 451 842 417 894 q 511 733 486 790 q 554 636 536 676 q 559 626 556 635 q 567 607 563 617 q 577 590 572 597 q 585 582 582 582 q 596 599 593 582 q 599 622 599 617 q 593 667 599 644 q 581 710 588 689 q 569 754 575 732 q 564 799 564 776 q 573 867 564 833 q 601 926 582 900 q 649 967 619 951 q 717 983 678 983 q 791 961 758 983 q 849 903 824 939 q 890 822 874 867 q 917 731 907 776 q 933 642 928 685 q 938 569 938 600 q 937 475 938 533 q 931 349 936 417 q 913 215 925 282 q 876 92 900 147 q 817 3 853 38 q 728 -32 781 -32 z "},"o":{"ha":947,"x_min":32,"x_max":926,"o":"m 926 471 q 892 259 926 353 q 797 101 858 165 q 650 2 736 36 q 461 -32 564 -32 q 276 3 357 -32 q 142 105 196 39 q 60 266 88 171 q 32 481 32 361 q 64 697 32 606 q 156 849 96 789 q 300 938 215 908 q 490 967 385 967 q 667 934 588 967 q 805 838 747 901 q 894 683 863 775 q 926 471 926 590 m 474 339 q 536 378 513 339 q 560 476 560 417 q 553 533 560 506 q 535 581 547 560 q 508 613 524 601 q 474 625 493 625 q 438 612 454 625 q 408 577 421 599 q 388 527 396 556 q 381 468 381 499 q 408 374 381 410 q 474 339 436 339 z "},"p":{"ha":840,"x_min":18,"x_max":815,"o":"m 268 -14 q 154 25 201 -14 q 76 134 107 64 q 32 301 46 204 q 18 514 18 397 q 31 700 18 617 q 76 844 43 783 q 165 937 108 904 q 308 969 221 969 q 342 963 328 969 q 368 950 357 957 q 388 937 379 943 q 403 931 396 931 q 421 936 411 931 q 445 949 431 942 q 479 961 460 956 q 528 967 499 967 q 654 939 600 967 q 744 863 708 911 q 797 752 779 815 q 815 619 815 689 q 756 363 815 451 q 567 275 697 275 q 511 283 533 275 q 474 300 489 290 q 450 317 460 310 q 433 325 440 325 q 422 310 422 325 q 427 272 422 294 q 438 222 432 249 q 443 175 443 196 q 401 39 443 92 q 268 -14 358 -14 m 443 533 q 481 553 467 533 q 494 592 494 574 q 491 614 494 600 q 481 640 488 628 q 466 662 475 653 q 444 671 457 671 q 423 660 432 671 q 408 636 414 650 q 399 607 401 622 q 396 583 396 592 q 409 549 396 565 q 443 533 422 533 z "},"q":{"ha":976,"x_min":19,"x_max":958,"o":"m 699 -207 q 634 -201 660 -207 q 592 -185 608 -194 q 568 -165 576 -176 q 556 -142 560 -153 q 549 -104 550 -125 q 547 -62 547 -83 q 543 -25 546 -42 q 532 0 540 -8 q 508 1 526 7 q 439 -4 489 -4 q 276 33 353 -4 q 143 133 200 69 q 53 281 86 196 q 19 464 19 367 q 50 666 19 574 q 140 825 81 758 q 286 929 199 892 q 488 967 374 967 q 840 838 721 967 q 958 478 958 708 q 947 340 958 410 q 913 210 936 269 q 852 109 889 151 q 765 56 815 67 q 788 19 776 33 q 809 -10 800 4 q 824 -42 818 -25 q 829 -85 829 -58 q 818 -132 829 -110 q 789 -171 807 -154 q 747 -197 771 -187 q 699 -207 724 -207 m 472 339 q 551 378 521 339 q 582 476 582 417 q 574 533 582 506 q 551 581 565 560 q 516 613 536 601 q 472 625 496 625 q 426 612 447 625 q 388 577 404 599 q 362 527 371 556 q 353 468 353 499 q 388 374 353 410 q 472 339 424 339 z "},"r":{"ha":876,"x_min":15,"x_max":876,"o":"m 264 0 q 159 49 206 0 q 81 170 113 97 q 32 328 49 243 q 15 488 15 414 q 31 646 15 561 q 81 803 46 731 q 170 922 115 875 q 304 969 225 969 q 338 963 324 969 q 364 950 353 957 q 383 937 375 943 q 399 931 392 931 q 417 936 407 931 q 441 949 426 942 q 476 961 456 956 q 524 967 496 967 q 639 953 581 967 q 744 909 697 940 q 822 825 792 878 q 851 693 851 772 q 831 565 851 614 q 780 485 811 515 q 711 436 749 454 q 638 400 674 418 q 659 377 640 389 q 704 352 678 365 q 760 323 731 339 q 816 284 790 307 q 859 231 842 261 q 876 163 876 201 q 865 102 876 132 q 828 50 853 72 q 765 14 803 28 q 675 0 728 0 q 592 23 626 0 q 533 79 558 46 q 491 153 508 113 q 461 226 474 193 q 438 283 449 260 q 413 306 426 306 q 394 289 393 306 q 406 249 396 272 q 426 201 415 226 q 438 156 438 175 q 396 36 438 72 q 264 0 354 0 m 447 571 q 481 592 468 571 q 494 631 494 613 q 492 651 494 639 q 483 673 489 663 q 468 690 476 683 q 449 697 460 697 q 429 689 438 697 q 415 669 421 681 q 407 645 410 658 q 404 624 404 632 q 416 588 404 606 q 447 571 428 571 z "},"s":{"ha":894,"x_min":29,"x_max":882,"o":"m 29 238 q 39 295 29 267 q 66 347 49 324 q 108 385 83 371 q 164 400 133 400 q 254 384 222 400 q 311 348 286 368 q 363 312 336 328 q 436 296 389 296 q 477 308 460 296 q 494 351 494 319 q 483 372 494 363 q 458 390 472 382 q 428 403 443 397 q 404 410 413 408 q 280 439 344 425 q 161 480 215 453 q 72 556 107 507 q 38 692 38 606 q 63 817 38 761 q 142 913 89 872 q 275 974 194 953 q 465 996 356 996 q 602 980 535 996 q 722 933 669 964 q 808 858 775 903 q 840 756 840 814 q 831 706 840 732 q 805 656 822 679 q 763 619 788 633 q 710 604 739 604 q 656 619 675 604 q 620 651 638 633 q 579 684 603 669 q 511 699 556 699 q 478 688 493 699 q 464 653 464 678 q 475 632 464 642 q 501 615 486 622 q 530 604 515 608 q 553 597 544 600 q 673 561 614 581 q 778 510 732 542 q 853 431 825 479 q 882 310 882 383 q 840 162 882 225 q 733 58 799 99 q 587 -3 667 17 q 429 -24 507 -24 q 271 -8 344 -24 q 144 40 197 8 q 60 122 90 72 q 29 238 29 171 z "},"t":{"ha":782,"x_min":14,"x_max":782,"o":"m 413 -3 q 308 24 349 -3 q 244 97 267 51 q 213 204 221 143 q 204 332 204 265 q 213 428 204 382 q 232 515 222 474 q 247 593 242 557 q 246 660 253 629 q 222 649 242 650 q 194 649 203 649 q 128 655 161 649 q 70 677 96 661 q 29 719 44 693 q 14 786 14 746 q 34 867 14 835 q 86 921 54 900 q 157 951 118 942 q 233 963 196 961 q 325 965 279 965 q 417 965 371 965 q 528 963 465 965 q 647 944 590 961 q 743 891 704 928 q 782 786 782 854 q 769 726 782 749 q 735 690 757 703 q 683 673 713 678 q 621 668 654 668 q 582 669 601 668 q 543 672 563 671 q 556 603 546 639 q 578 526 567 567 q 599 442 589 486 q 608 353 608 399 q 605 231 608 294 q 583 116 601 168 q 524 31 564 64 q 413 -3 485 -3 z "},"u":{"ha":896,"x_min":14,"x_max":882,"o":"m 449 -24 q 118 117 222 -24 q 14 542 14 258 q 32 719 14 640 q 82 852 50 797 q 160 937 114 907 q 261 967 206 967 q 399 790 399 967 q 395 731 399 760 q 387 672 392 703 q 378 608 382 642 q 375 535 375 575 q 376 481 375 521 q 382 397 376 440 q 401 321 388 354 q 440 288 415 288 q 497 357 476 288 q 517 546 517 426 q 510 693 517 629 q 503 807 503 757 q 532 928 503 890 q 626 967 561 967 q 813 858 743 967 q 882 546 882 749 q 852 311 882 417 q 766 131 822 206 q 629 17 710 57 q 449 -24 549 -24 z "},"v":{"ha":906,"x_min":14,"x_max":886,"o":"m 732 971 q 787 959 760 971 q 836 923 814 947 q 872 861 858 899 q 886 771 886 824 q 879 612 886 699 q 853 438 872 525 q 804 269 835 350 q 726 124 774 188 q 612 23 678 61 q 458 -15 546 -15 q 288 29 360 -15 q 167 143 217 74 q 88 298 118 213 q 41 465 57 383 q 19 614 25 546 q 14 717 14 682 q 32 841 14 792 q 76 920 50 890 q 133 963 103 950 q 186 975 163 975 q 259 967 226 975 q 317 924 292 958 q 345 848 333 900 q 367 732 357 796 q 386 601 376 668 q 408 477 396 533 q 435 385 419 421 q 472 349 450 349 q 500 383 489 349 q 519 469 511 417 q 533 586 526 522 q 546 711 539 650 q 561 821 553 772 q 583 893 569 869 q 645 956 610 940 q 732 971 681 971 z "},"w":{"ha":1274,"x_min":0,"x_max":1267,"o":"m 1090 975 q 1217 913 1168 975 q 1267 707 1267 850 q 1244 410 1267 544 q 1175 179 1221 276 q 1061 28 1129 82 q 904 -25 993 -25 q 769 4 818 -25 q 694 75 721 33 q 656 164 668 117 q 629 247 643 211 q 606 171 619 217 q 567 81 593 125 q 497 6 540 38 q 382 -25 453 -25 q 205 20 278 -25 q 86 149 132 65 q 20 353 40 233 q 0 624 0 474 q 19 786 0 719 q 65 894 38 853 q 123 953 92 935 q 178 971 154 971 q 216 969 197 971 q 253 961 235 968 q 291 940 272 954 q 328 899 310 925 q 350 831 342 878 q 363 727 358 785 q 372 607 368 669 q 383 494 376 544 q 399 410 389 443 q 425 376 408 376 q 455 408 443 376 q 475 488 467 439 q 488 595 483 536 q 496 709 492 654 q 504 808 500 764 q 515 871 508 853 q 563 931 529 907 q 636 954 596 954 q 699 944 672 954 q 750 906 726 935 q 780 834 769 882 q 797 728 790 786 q 808 609 804 671 q 819 497 813 547 q 835 415 825 447 q 861 383 844 383 q 890 401 878 383 q 909 446 901 418 q 920 507 917 474 q 926 574 924 540 q 931 635 929 607 q 933 679 932 663 q 935 725 935 694 q 938 789 936 756 q 941 851 939 822 q 947 890 943 879 q 967 930 956 914 q 994 956 978 946 q 1033 970 1010 965 q 1090 975 1056 975 z "},"x":{"ha":908,"x_min":4,"x_max":900,"o":"m 199 -12 q 59 25 114 -12 q 4 133 4 63 q 22 217 4 178 q 65 292 39 257 q 122 357 92 326 q 178 413 151 388 q 222 458 204 438 q 239 493 239 478 q 206 548 239 515 q 131 623 172 581 q 57 718 90 665 q 24 833 24 771 q 39 885 24 861 q 78 928 54 910 q 131 956 101 946 q 186 967 160 967 q 283 953 243 967 q 346 917 322 939 q 385 859 367 899 q 420 780 404 819 q 447 710 436 740 q 464 679 458 681 q 501 752 481 704 q 549 847 522 800 q 610 929 576 894 q 686 964 644 964 q 746 958 713 964 q 808 938 779 953 q 858 898 838 924 q 878 833 878 872 q 863 753 878 793 q 824 677 847 714 q 775 608 801 640 q 726 549 749 575 q 688 506 703 524 q 672 483 672 489 q 708 444 672 475 q 786 366 743 413 q 865 260 829 319 q 900 133 900 200 q 881 76 900 103 q 833 31 863 50 q 770 -1 804 11 q 706 -12 736 -12 q 635 6 667 -12 q 579 53 604 25 q 535 115 554 82 q 502 176 517 147 q 476 223 488 204 q 457 242 465 242 q 434 223 449 242 q 400 176 419 204 q 357 115 381 147 q 308 53 333 82 q 254 6 282 25 q 199 -12 226 -12 z "},"y":{"ha":806,"x_min":17,"x_max":788,"o":"m 408 -47 q 320 -33 360 -47 q 253 8 281 -18 q 212 68 226 33 q 197 142 197 103 q 203 189 197 169 q 217 226 210 208 q 230 263 224 244 q 236 308 236 282 q 220 358 236 336 q 179 403 204 379 q 126 455 154 426 q 74 522 99 483 q 33 615 49 561 q 17 742 17 668 q 31 845 17 803 q 69 915 46 888 q 123 954 93 942 q 185 967 153 967 q 273 948 238 967 q 330 897 308 929 q 361 821 351 865 q 371 726 371 776 q 374 682 371 704 q 382 642 376 660 q 394 614 388 625 q 410 603 401 603 q 440 642 429 603 q 451 739 451 681 q 462 819 451 779 q 494 892 472 860 q 553 946 517 925 q 642 967 590 967 q 701 956 674 967 q 747 918 728 944 q 777 849 767 892 q 788 744 788 807 q 756 591 788 657 q 685 473 724 525 q 615 378 647 421 q 583 293 583 336 q 589 255 583 269 q 601 227 594 240 q 613 199 607 214 q 618 160 618 185 q 603 81 618 118 q 562 15 589 43 q 496 -31 535 -14 q 408 -47 457 -47 z "},"z":{"ha":803,"x_min":7,"x_max":794,"o":"m 386 -19 q 230 -1 300 -19 q 110 49 160 17 q 34 128 61 82 q 7 231 7 174 q 47 357 7 303 q 142 458 86 411 q 259 552 199 506 q 361 657 319 599 q 367 668 364 660 q 354 675 367 675 q 333 675 342 675 q 256 663 297 675 q 175 650 215 650 q 69 693 110 650 q 28 803 28 736 q 322 976 28 976 q 391 977 349 976 q 483 974 433 978 q 583 963 532 971 q 674 937 633 954 q 741 891 715 919 q 767 818 767 863 q 733 693 767 760 q 652 561 700 626 q 551 438 604 496 q 457 339 497 379 q 436 319 442 324 q 431 311 431 315 q 440 307 431 307 q 559 320 501 307 q 665 333 617 333 q 761 305 728 333 q 794 222 794 276 q 764 126 794 171 q 678 49 733 82 q 549 -1 624 17 q 386 -19 474 -19 z "},"{":{"ha":542,"x_min":22,"x_max":497,"o":"m 343 -100 q 255 -83 296 -100 q 184 -39 214 -67 q 138 25 154 -11 q 121 100 121 61 q 126 147 121 124 q 138 192 132 169 q 149 238 144 215 q 154 285 154 261 q 133 339 154 317 q 88 381 113 361 q 43 420 64 400 q 22 468 22 440 q 43 527 22 503 q 90 572 64 551 q 136 610 115 592 q 157 649 157 628 q 149 697 157 672 q 133 746 142 721 q 117 796 125 771 q 110 843 110 821 q 128 924 110 889 q 181 983 147 960 q 263 1017 215 1006 q 367 1029 310 1029 q 464 994 431 1029 q 497 901 497 960 q 482 851 497 864 q 448 833 467 839 q 414 819 429 828 q 399 781 399 811 q 408 705 399 742 q 418 629 418 668 q 410 586 418 606 q 392 549 403 567 q 366 514 381 531 q 338 478 351 497 q 381 406 360 440 q 403 326 403 371 q 398 288 403 306 q 387 251 393 269 q 375 214 381 232 q 369 175 369 196 q 388 122 369 143 q 428 83 406 100 q 468 47 450 65 q 486 0 486 28 q 445 -73 486 -46 q 343 -100 404 -100 z "},"|":{"ha":442,"x_min":60,"x_max":392,"o":"m 226 -112 q 158 -77 186 -112 q 112 13 131 -42 q 83 136 93 68 q 67 268 72 204 q 61 385 63 332 q 60 464 60 438 q 69 635 60 546 q 90 803 78 725 q 113 938 101 882 q 132 1010 125 994 q 175 1065 151 1051 q 243 1078 199 1078 q 310 1039 283 1078 q 353 940 336 1000 q 377 806 369 879 q 388 664 385 733 q 390 538 390 594 q 390 453 390 481 q 391 366 390 421 q 388 248 392 311 q 376 121 385 185 q 349 5 367 57 q 301 -80 331 -47 q 226 -112 271 -112 z "},"}":{"ha":532,"x_min":22,"x_max":497,"o":"m 176 -100 q 74 -73 115 -100 q 33 0 33 -46 q 51 47 33 28 q 92 83 69 65 q 132 122 114 100 q 150 175 150 143 q 145 214 150 196 q 134 251 140 232 q 122 288 128 269 q 117 326 117 306 q 138 406 117 371 q 182 478 160 440 q 153 514 168 497 q 128 549 139 531 q 109 586 117 567 q 101 629 101 606 q 111 705 101 668 q 121 781 121 742 q 106 819 121 811 q 72 833 90 828 q 38 851 53 839 q 22 901 22 864 q 56 994 22 960 q 153 1029 89 1029 q 257 1017 210 1029 q 338 983 304 1006 q 391 924 372 960 q 410 843 410 889 q 405 805 410 824 q 393 765 400 786 l 379 726 q 367 687 372 706 q 363 649 363 668 q 383 610 363 628 q 430 572 404 592 q 476 527 456 551 q 497 468 497 503 q 476 420 497 440 q 431 381 456 400 q 386 339 407 361 q 365 285 365 317 q 371 238 365 261 q 383 192 376 215 q 394 147 389 169 q 399 100 399 124 q 382 25 399 61 q 335 -39 365 -11 q 265 -83 306 -67 q 176 -100 225 -100 z "},"~":{"ha":751,"x_min":74,"x_max":686,"o":"m 178 240 q 99 280 125 240 q 74 394 74 319 q 93 506 74 451 q 143 602 113 560 q 211 670 174 644 q 283 696 249 696 q 344 676 319 696 q 390 633 369 657 q 428 589 410 608 q 468 569 446 569 q 492 582 483 569 q 510 611 501 594 q 540 663 524 639 q 592 686 557 686 q 635 672 617 686 q 665 637 653 658 q 681 590 676 615 q 686 542 686 565 q 672 428 686 483 q 631 330 657 372 q 569 262 606 288 q 492 236 533 236 q 444 244 465 236 q 407 263 424 251 q 378 290 390 275 q 354 318 365 304 q 333 342 343 333 q 308 351 322 351 q 279 343 289 351 q 264 318 269 335 l 261 310 q 228 261 251 282 q 178 240 206 240 z "},"":{"ha":539,"x_min":47,"x_max":494,"o":"m 269 718 q 415 676 363 718 q 467 549 467 635 q 449 478 467 508 q 403 429 432 449 q 337 401 374 410 q 260 392 300 392 q 188 399 222 392 q 126 424 153 407 q 83 469 99 442 q 67 536 67 497 q 122 669 67 621 q 269 718 176 718 m 268 360 q 380 322 336 360 q 449 224 424 283 q 485 96 475 165 q 494 -36 494 26 q 486 -135 494 -79 q 453 -242 478 -192 q 382 -328 428 -293 q 261 -364 336 -364 q 143 -333 186 -364 q 78 -256 100 -303 q 52 -156 57 -210 q 47 -57 47 -103 q 57 86 47 13 q 92 220 67 160 q 160 320 117 281 q 268 360 203 360 z "},"":{"ha":746,"x_min":25,"x_max":690,"o":"m 25 458 q 38 564 25 508 q 79 669 51 619 q 150 756 107 718 q 253 807 193 793 q 259 863 254 835 q 278 912 264 890 q 316 947 292 933 q 379 961 340 961 q 449 953 421 961 q 494 928 476 944 q 522 885 513 911 q 538 826 532 860 q 653 741 615 799 q 690 613 690 683 q 685 566 690 589 q 667 526 679 543 q 633 498 654 508 q 579 488 611 488 q 505 501 526 488 q 473 531 483 514 q 452 560 463 547 q 413 574 442 574 q 373 562 389 574 q 348 532 357 550 q 335 494 339 514 q 331 458 331 475 q 334 424 331 443 q 347 386 338 404 q 371 356 356 368 q 408 344 386 344 q 456 358 440 344 q 485 388 471 371 q 520 417 500 404 q 581 431 540 431 q 633 420 613 431 q 667 393 654 410 q 685 354 679 376 q 690 308 690 332 q 650 183 690 238 q 535 103 610 129 q 488 13 521 40 q 381 -15 456 -15 q 326 -5 349 -15 q 290 22 304 6 q 269 61 276 39 q 257 108 261 83 q 161 155 204 118 q 88 242 118 192 q 42 351 58 293 q 25 458 25 408 z "},"":{"ha":718,"x_min":28,"x_max":679,"o":"m 58 147 q 66 191 58 167 q 83 242 74 215 q 101 299 93 269 q 110 358 110 328 q 89 354 100 354 q 28 474 28 354 q 37 531 28 514 q 72 554 46 547 q 99 565 90 558 q 113 578 108 571 q 118 593 118 585 q 115 715 118 664 q 117 793 111 765 q 206 924 132 872 q 410 975 279 975 q 504 960 460 975 q 583 921 549 946 q 638 863 618 896 q 658 794 658 831 q 649 747 658 772 q 626 703 640 722 q 592 670 611 683 q 551 657 572 657 q 516 665 531 657 q 490 682 501 672 q 469 699 478 692 q 450 707 460 707 q 428 694 436 707 q 418 665 421 681 q 414 624 414 647 q 431 571 414 590 q 481 551 449 551 q 521 547 501 551 q 555 531 540 543 q 578 499 569 519 q 588 447 588 479 q 572 379 588 403 q 534 345 557 356 q 483 333 511 335 q 431 332 456 332 q 399 319 415 332 q 383 292 383 307 q 398 241 383 256 q 444 226 413 226 q 523 241 486 226 q 594 256 560 256 q 645 239 628 256 q 670 201 663 222 q 678 159 678 179 q 679 133 679 139 q 603 26 679 65 q 399 -14 526 -14 q 265 -1 328 -14 q 157 33 203 11 q 85 84 111 54 q 58 147 58 114 z "},"":{"ha":817,"x_min":21,"x_max":761,"o":"m 761 478 q 745 354 761 411 q 700 251 729 297 q 733 203 715 228 q 751 151 751 179 q 744 114 751 133 q 724 79 738 94 q 692 54 711 64 q 649 44 674 44 q 610 53 626 44 q 582 74 594 61 q 560 101 569 86 q 542 128 551 115 q 392 101 469 101 q 329 106 360 101 q 271 118 299 111 l 269 115 q 228 63 251 88 q 169 38 206 38 q 106 64 131 38 q 81 129 81 90 q 81 142 81 136 q 83 156 81 149 q 93 181 86 165 q 108 214 100 196 q 21 471 21 313 q 48 624 21 556 q 124 744 75 693 q 94 794 106 772 q 78 831 82 815 q 76 841 76 836 q 75 853 75 846 q 98 917 76 888 q 167 946 119 946 q 199 940 182 946 q 229 919 215 933 q 250 894 235 914 q 289 842 265 874 q 407 861 350 861 q 476 855 443 861 q 542 838 510 849 q 594 903 574 879 q 622 931 615 928 l 621 931 q 657 940 639 940 q 732 907 706 940 q 758 828 758 874 q 757 807 758 814 q 746 785 754 800 q 721 749 738 771 q 710 733 714 739 q 697 715 706 728 q 761 478 761 619 m 392 399 q 454 424 436 399 q 472 481 472 450 q 455 540 472 511 q 393 569 438 569 q 356 561 371 569 q 331 540 340 553 q 317 510 321 526 q 314 479 314 494 q 331 424 314 449 q 392 399 347 399 z "},"":{"ha":894,"x_min":39,"x_max":876,"o":"m 454 0 q 378 10 408 0 q 328 40 347 19 q 301 88 310 60 q 290 154 293 117 q 147 182 192 160 q 103 253 103 204 q 111 298 103 282 q 138 322 119 314 q 190 332 157 329 q 269 338 222 335 l 268 365 q 189 370 221 368 q 138 378 157 372 q 110 398 118 385 q 101 436 101 411 q 172 525 101 503 q 76 699 114 621 q 39 846 39 778 q 51 890 39 868 q 86 928 64 911 q 140 956 108 946 q 207 967 171 967 q 267 940 238 967 q 325 872 297 913 q 376 785 353 832 q 418 697 400 738 q 447 630 436 657 q 460 603 458 603 q 476 630 467 603 q 500 697 486 657 q 533 785 514 738 q 578 872 553 832 q 635 940 603 913 q 707 967 667 967 q 829 935 782 967 q 876 856 876 903 q 863 785 876 825 q 829 703 850 746 q 782 616 808 661 q 728 528 756 571 q 783 494 764 517 q 803 432 803 472 q 794 395 803 407 q 767 379 786 383 q 716 375 747 375 q 639 372 685 375 l 628 343 q 710 339 676 342 q 764 327 743 336 q 794 300 785 318 q 804 250 804 282 q 758 179 804 200 q 618 154 713 158 q 581 42 615 83 q 454 0 546 0 z "},"":{"ha":481,"x_min":72,"x_max":410,"o":"m 410 686 q 367 551 410 603 q 240 499 324 499 q 149 512 182 499 q 98 553 115 525 q 76 624 81 581 q 72 729 72 668 q 78 792 72 750 q 94 878 85 833 q 115 964 104 924 q 136 1021 126 1004 q 183 1065 153 1051 q 250 1078 213 1078 q 305 1067 281 1078 q 347 1038 329 1056 q 374 997 364 1021 q 386 949 385 974 q 401 815 392 883 q 410 686 410 746 m 244 -112 q 173 -93 201 -112 q 126 -42 144 -74 q 100 28 108 -11 q 88 108 92 68 q 85 186 85 149 q 85 251 85 224 q 87 326 85 290 q 104 389 89 361 q 152 433 119 417 q 246 450 185 450 q 358 426 324 450 q 401 363 392 401 q 404 278 410 325 q 399 189 399 232 q 391 103 399 154 q 365 3 383 51 q 318 -78 347 -44 q 244 -112 289 -112 z "},"":{"ha":850,"x_min":36,"x_max":821,"o":"m 36 14 q 49 71 36 46 q 81 113 61 96 q 126 138 101 129 q 174 147 150 147 q 251 131 219 147 q 303 74 283 114 q 394 22 326 22 q 463 35 435 22 q 490 67 490 47 q 452 92 490 82 q 361 115 414 103 q 256 142 311 126 q 153 185 200 158 q 76 256 107 213 q 46 367 46 300 q 56 422 46 394 q 84 474 67 450 q 125 518 101 499 q 174 550 149 538 q 115 615 142 576 q 89 696 89 653 q 115 810 89 758 q 192 899 142 861 q 314 957 242 936 q 478 978 386 978 q 715 918 632 978 q 797 758 797 858 q 761 669 797 700 q 668 639 725 639 q 586 657 611 639 q 542 715 561 675 q 514 744 531 735 q 468 753 497 753 q 409 742 432 753 q 386 717 386 732 q 422 694 386 704 q 508 672 457 683 q 613 644 558 660 q 715 599 668 628 q 791 526 761 571 q 821 413 821 482 q 813 356 821 385 q 789 301 804 328 q 752 253 774 275 q 706 218 731 232 q 756 160 735 196 q 776 83 776 124 q 670 -121 776 -46 q 374 -196 564 -196 q 230 -179 293 -196 q 124 -135 167 -162 q 58 -69 81 -107 q 36 14 36 -31 m 378 383 q 393 363 378 371 q 432 356 408 356 q 467 365 447 356 q 486 390 486 374 q 470 410 486 406 q 432 415 454 415 q 394 408 411 415 q 378 383 378 400 z "},"":{"ha":632,"x_min":101,"x_max":572,"o":"m 214 769 q 131 803 161 769 q 101 890 101 838 q 127 979 101 943 q 207 1015 153 1015 q 292 980 261 1015 q 322 889 322 944 q 313 849 322 869 q 290 810 304 828 q 256 781 275 792 q 214 769 236 769 m 464 769 q 381 803 411 769 q 351 890 351 838 q 377 979 351 943 q 458 1015 403 1015 q 542 980 511 1015 q 572 889 572 944 q 564 849 572 869 q 541 810 556 828 q 506 781 526 792 q 464 769 486 769 z "},"":{"ha":949,"x_min":33,"x_max":914,"o":"m 914 478 q 884 281 914 369 q 797 128 854 192 q 659 31 740 65 q 474 -4 578 -4 q 290 30 372 -4 q 151 126 208 64 q 64 276 94 189 q 33 468 33 363 q 69 668 33 576 q 166 826 104 760 q 312 930 228 893 q 493 967 396 967 q 669 931 592 967 q 801 831 747 896 q 885 677 856 767 q 914 478 914 588 m 474 131 q 588 158 535 131 q 682 231 642 185 q 745 340 722 278 q 768 475 768 403 q 746 615 768 549 q 684 731 724 681 q 591 812 644 782 q 475 842 538 842 q 360 810 414 842 q 267 727 307 779 q 206 607 228 675 q 183 465 183 539 q 206 331 183 393 q 267 225 228 269 q 360 156 307 181 q 474 131 413 131 m 678 576 q 593 478 678 478 q 547 490 565 478 q 514 538 529 503 l 513 543 q 506 555 510 550 q 489 560 503 560 q 445 536 461 560 q 429 472 429 513 q 444 417 429 436 q 488 397 460 397 q 518 414 513 397 q 549 456 529 444 q 596 468 568 468 q 655 446 633 468 q 678 378 676 424 l 678 374 q 663 306 678 338 q 622 252 649 275 q 558 216 594 229 q 478 203 522 203 q 315 274 374 203 q 256 469 256 346 q 272 588 256 535 q 320 680 289 642 q 394 739 351 718 q 489 760 438 760 q 565 746 531 760 q 625 708 600 732 q 664 650 650 683 q 678 576 678 617 z "},"":{"ha":575,"x_min":58,"x_max":514,"o":"m 331 668 q 284 644 311 651 q 238 636 257 636 q 148 659 183 636 q 93 717 113 682 q 66 791 74 751 q 58 865 58 831 q 69 938 58 899 q 101 1011 79 978 q 159 1067 124 1044 q 246 1090 194 1090 q 297 1081 278 1090 q 339 1054 317 1071 q 370 1081 350 1071 q 411 1090 390 1090 q 465 1073 444 1090 q 496 1028 485 1056 q 510 966 507 1000 q 514 900 514 932 q 514 826 514 871 q 505 740 514 782 q 472 667 496 697 q 400 636 449 636 q 331 668 356 636 m 278 844 q 293 851 288 844 q 299 864 299 858 q 293 877 299 871 q 276 883 288 883 q 263 878 268 883 q 257 865 257 872 q 263 851 257 858 q 278 844 268 844 m 111 508 q 149 582 111 561 q 242 603 188 603 l 383 603 q 467 578 436 603 q 499 506 499 553 q 485 460 499 478 q 449 434 471 443 q 401 422 428 425 q 351 418 375 418 l 279 418 q 223 420 253 418 q 168 431 193 422 q 127 458 143 440 q 111 508 111 476 z "},"":{"ha":901,"x_min":28,"x_max":863,"o":"m 415 142 q 344 153 385 142 q 260 183 303 164 q 175 231 217 203 q 101 292 133 258 q 48 363 68 325 q 28 439 28 400 q 48 507 28 471 q 100 580 68 543 q 172 651 132 617 q 253 710 213 685 q 331 752 294 736 q 394 768 368 768 q 419 755 408 768 q 439 724 431 742 q 451 688 447 707 q 456 656 456 668 q 437 586 456 618 q 391 528 418 554 q 333 482 364 503 q 278 444 303 461 q 308 420 283 438 q 362 382 332 403 q 420 339 392 361 q 463 297 449 317 q 473 270 471 285 q 475 242 475 256 q 472 208 475 225 q 463 176 469 190 q 444 151 456 161 q 415 142 433 142 m 803 142 q 731 153 772 142 q 647 183 690 164 q 563 231 604 203 q 488 292 521 258 q 435 363 456 325 q 415 439 415 400 q 435 507 415 471 q 488 580 456 543 q 560 651 519 617 q 641 710 600 685 q 719 752 682 736 q 782 768 756 768 q 807 755 796 768 q 826 724 818 742 q 839 688 835 707 q 843 656 843 668 q 824 586 843 618 q 778 528 806 554 q 721 482 751 503 q 665 444 690 461 q 695 420 671 438 q 749 382 719 403 q 808 339 779 361 q 850 297 836 317 q 860 270 858 285 q 863 242 863 256 q 860 208 863 225 q 850 176 857 190 q 832 151 843 161 q 803 142 821 142 z "},"":{"ha":925,"x_min":90,"x_max":882,"o":"m 90 619 q 95 672 90 646 q 118 717 100 697 q 196 760 143 743 q 309 788 249 778 q 427 803 369 799 q 517 807 485 807 q 626 803 564 807 q 745 782 689 800 q 841 725 801 764 q 881 615 881 686 q 881 585 881 600 q 882 556 882 571 l 882 499 q 880 417 882 464 q 863 326 878 369 q 817 251 849 282 q 726 221 785 221 q 635 235 671 221 q 580 273 600 249 q 552 331 560 297 q 544 404 544 364 q 523 467 544 447 q 465 486 501 486 q 376 484 426 486 q 277 483 325 482 q 189 493 229 485 q 129 521 149 501 q 97 572 103 547 q 90 619 90 596 z "},"":{"ha":631,"x_min":21,"x_max":599,"o":"m 599 715 q 578 591 599 646 q 519 499 557 536 q 427 441 481 461 q 310 421 374 421 q 192 440 246 421 q 101 497 139 460 q 42 588 63 535 q 21 710 21 642 q 45 837 21 781 q 111 933 69 893 q 207 994 153 972 q 321 1015 261 1015 q 433 994 382 1015 q 520 935 483 974 q 578 842 557 897 q 599 715 599 786 m 310 519 q 447 569 394 519 q 499 714 499 618 q 451 871 499 818 q 311 924 403 924 q 173 867 226 924 q 119 710 119 810 q 170 564 119 608 q 310 519 221 519 m 250 558 q 217 575 229 558 q 197 616 204 592 q 188 667 190 640 q 186 715 186 694 q 188 778 186 749 q 199 831 190 808 q 223 868 207 854 q 265 882 239 882 q 281 878 274 882 q 297 869 289 874 l 296 868 q 310 876 300 871 q 338 881 319 881 q 373 873 356 881 q 404 851 390 865 q 426 818 418 838 q 435 776 435 799 q 421 717 435 736 q 396 689 407 699 q 401 685 399 688 q 406 681 403 683 q 430 649 418 665 q 442 615 442 632 q 427 578 442 597 q 389 558 413 558 q 346 583 367 558 q 310 632 325 608 l 310 622 q 301 575 310 592 q 250 558 292 558 m 313 756 q 326 768 326 756 q 313 782 326 782 q 305 776 308 782 q 301 763 301 769 q 313 756 301 756 z "},"":{"ha":507,"x_min":47,"x_max":454,"o":"m 154 778 q 77 810 107 778 q 47 900 47 843 q 53 944 47 922 q 69 985 58 967 q 97 1014 81 1003 q 135 1025 114 1025 l 340 1025 q 421 993 388 1025 q 454 904 454 961 q 424 818 454 851 q 350 785 394 785 q 252 781 301 785 q 154 778 203 778 z "},"":{"ha":603,"x_min":17,"x_max":532,"o":"m 275 500 q 166 522 214 500 q 85 581 118 543 q 34 670 51 618 q 17 783 17 722 q 33 888 17 836 q 82 979 50 939 q 161 1045 114 1019 q 268 1071 208 1071 q 369 1055 321 1071 q 453 1006 417 1039 q 510 922 489 974 q 532 800 532 871 q 517 681 532 736 q 469 586 501 626 q 389 523 438 546 q 275 500 340 500 m 310 785 q 301 827 310 818 q 278 836 292 836 q 255 826 265 836 q 244 781 244 815 q 254 749 244 764 q 278 733 264 733 q 301 749 293 733 q 310 785 310 764 z "},"":{"ha":749,"x_min":86,"x_max":688,"o":"m 250 524 q 190 531 219 526 q 137 547 160 535 q 100 579 114 558 q 86 633 86 600 q 99 692 86 669 q 133 728 111 715 q 185 746 154 740 q 250 753 215 751 q 259 808 253 779 q 279 862 265 838 q 317 902 293 886 q 378 918 340 918 q 445 904 419 918 q 486 868 471 890 q 508 817 501 846 q 517 756 514 788 q 586 749 554 754 q 640 730 618 743 q 675 692 663 717 q 688 629 688 668 q 672 574 688 594 q 633 543 657 554 q 579 528 610 532 q 517 524 549 525 q 508 463 515 492 q 485 411 501 433 q 442 376 469 389 q 374 363 415 363 q 313 378 336 363 q 277 417 290 393 q 258 470 264 442 q 250 524 253 499 m 376 97 q 289 97 339 97 q 194 104 239 96 q 117 136 149 113 q 86 207 86 160 q 108 281 86 256 q 165 316 131 306 q 242 328 200 326 q 325 329 285 329 q 406 330 365 329 q 488 331 447 331 q 564 327 528 331 q 628 310 600 324 q 672 272 656 297 q 688 203 688 247 q 663 138 688 160 q 603 106 639 115 q 525 97 567 97 q 449 97 483 97 l 376 97 z "},"":{"ha":503,"x_min":17,"x_max":475,"o":"m 461 981 q 440 890 461 929 q 392 823 418 851 q 344 775 365 794 q 322 743 322 756 q 333 736 322 738 q 356 735 343 735 q 382 735 369 735 q 397 736 394 736 q 435 727 421 736 q 459 703 450 718 q 472 671 468 689 q 475 635 475 653 q 448 588 475 608 q 383 554 421 568 q 307 534 346 540 q 244 528 268 528 q 169 530 210 528 q 95 543 129 532 q 39 578 61 554 q 17 646 17 603 q 34 701 17 675 q 76 753 51 728 q 132 802 101 778 q 188 850 163 826 q 230 896 213 874 q 247 942 247 918 q 240 973 247 961 q 210 985 233 985 q 184 972 188 985 q 178 944 181 960 q 165 915 176 928 q 117 903 154 903 q 52 928 78 903 q 26 989 26 953 q 44 1057 26 1025 q 90 1113 61 1089 q 156 1150 119 1136 q 231 1164 193 1164 q 323 1153 281 1164 q 396 1122 365 1143 q 444 1065 426 1100 q 461 981 461 1031 z "},"":{"ha":501,"x_min":15,"x_max":468,"o":"m 93 839 q 99 869 93 858 q 116 887 106 881 q 139 894 126 893 q 165 896 151 896 q 195 896 181 896 q 222 899 210 896 q 241 908 233 901 q 249 929 249 915 q 231 954 249 950 q 192 958 214 958 q 140 952 164 958 q 104 946 115 946 q 50 966 72 946 q 28 1035 28 986 q 46 1090 28 1068 q 91 1124 64 1111 q 151 1142 118 1136 q 213 1147 183 1147 q 310 1136 264 1147 q 390 1103 356 1125 q 445 1047 425 1081 q 465 965 465 1013 q 454 908 465 929 q 429 874 443 886 q 404 853 415 861 q 393 835 393 844 q 405 816 393 825 q 431 792 417 807 q 456 750 444 776 q 468 678 468 724 q 447 609 468 639 q 391 560 426 579 q 309 530 356 540 q 213 519 263 519 q 149 526 183 519 q 85 550 115 533 q 35 595 56 567 q 15 667 15 624 q 38 719 15 703 q 90 736 60 736 q 133 728 110 736 q 183 721 157 721 q 223 733 207 721 q 239 769 239 746 q 232 787 239 782 q 215 792 225 792 q 191 790 204 792 q 164 789 178 789 q 138 790 150 789 q 115 794 125 790 q 99 809 106 799 q 93 839 93 819 z "},"":{"ha":529,"x_min":76,"x_max":457,"o":"m 203 739 q 161 744 183 739 q 120 760 139 750 q 89 787 101 771 q 76 824 76 803 q 89 857 76 843 q 169 951 126 907 q 244 1050 211 996 q 276 1082 258 1071 q 321 1093 293 1093 q 370 1084 346 1093 q 414 1059 394 1075 q 445 1023 433 1043 q 457 979 457 1003 q 431 904 457 946 q 367 826 406 863 q 285 764 329 789 q 203 739 240 739 z "},"":{"ha":1032,"x_min":40,"x_max":993,"o":"m 521 -168 q 438 -142 468 -168 q 391 -78 407 -117 q 370 3 375 -40 q 365 83 365 47 q 364 122 365 90 q 361 189 363 153 q 358 253 360 225 q 357 282 357 282 q 315 274 336 282 q 268 265 293 265 q 151 298 196 265 q 82 382 107 331 q 49 497 57 433 q 40 622 40 561 q 67 763 40 697 q 142 878 94 829 q 256 956 190 928 q 396 985 321 985 q 582 981 489 985 q 767 969 675 976 q 843 933 810 967 q 901 846 876 899 q 944 727 926 793 q 973 596 963 661 q 988 470 983 531 q 993 368 993 410 q 987 272 993 326 q 969 158 981 217 q 942 44 958 100 q 904 -56 925 -12 q 858 -127 883 -100 q 804 -154 833 -154 q 724 -135 751 -154 q 683 -84 696 -115 q 669 -13 671 -53 q 668 65 668 26 q 667 294 668 181 q 667 524 667 408 l 667 560 q 666 594 667 564 q 663 658 665 624 q 660 719 661 692 q 656 746 658 746 q 647 730 650 746 q 641 688 643 714 q 639 630 639 663 q 639 565 639 597 q 640 505 639 533 q 640 457 640 476 q 641 264 640 360 q 642 71 642 168 q 643 -12 642 31 q 635 -89 644 -54 q 599 -146 625 -124 q 521 -168 574 -168 z "},"":{"ha":458,"x_min":32,"x_max":411,"o":"m 224 378 q 145 392 181 378 q 85 431 110 407 q 46 488 60 456 q 32 558 32 521 q 44 628 32 594 q 81 686 57 661 q 140 726 104 711 q 222 740 175 740 q 358 697 304 740 q 411 558 411 653 q 398 493 411 525 q 360 435 385 461 q 301 394 336 410 q 224 378 267 378 z "},"":{"ha":443,"x_min":32,"x_max":425,"o":"m 32 -264 q 56 -197 32 -218 q 108 -167 79 -176 q 160 -154 136 -158 q 183 -137 183 -150 q 172 -120 183 -129 q 148 -99 161 -111 q 124 -72 135 -87 q 113 -32 113 -56 q 122 8 113 -12 q 147 44 132 28 q 183 72 163 61 q 225 83 203 83 q 258 78 240 83 q 289 64 275 74 q 312 41 303 54 q 321 11 321 28 q 314 -6 321 0 q 313 -19 307 -12 q 350 -54 331 -40 q 386 -83 369 -68 q 414 -118 403 -99 q 425 -168 425 -137 q 404 -255 425 -217 q 349 -319 383 -293 q 270 -360 315 -346 q 176 -375 225 -375 q 75 -349 118 -375 q 32 -264 32 -324 z "},"":{"ha":396,"x_min":44,"x_max":343,"o":"m 213 535 q 157 549 178 535 q 124 585 136 564 q 109 630 113 606 q 106 672 106 654 q 111 806 106 740 q 113 929 117 872 q 106 949 113 944 q 90 954 100 954 q 65 963 74 954 q 51 985 56 972 q 46 1012 47 997 q 44 1038 44 1026 q 58 1088 44 1065 q 92 1127 71 1111 q 139 1152 113 1143 q 192 1161 165 1161 q 260 1148 232 1161 q 307 1103 289 1135 q 334 1021 325 1072 q 343 893 343 969 q 338 762 343 826 q 317 647 332 697 q 278 566 303 597 q 213 535 253 535 z "},"":{"ha":539,"x_min":29,"x_max":500,"o":"m 263 638 q 160 656 204 638 q 88 704 117 674 q 44 775 58 735 q 29 858 29 815 q 44 944 29 903 q 90 1019 60 986 q 166 1072 121 1051 q 269 1092 211 1092 q 371 1072 328 1092 q 443 1021 414 1053 q 486 948 472 989 q 500 864 500 907 q 485 777 500 818 q 442 705 471 736 q 368 656 413 674 q 263 638 324 638 m 263 849 q 283 855 274 849 q 292 868 292 861 q 283 877 292 874 q 264 881 275 881 q 244 877 253 881 q 236 867 236 874 q 263 849 236 849 m 63 511 q 101 585 63 564 q 194 606 139 606 l 336 606 q 422 581 392 606 q 451 508 451 556 q 438 463 451 481 q 402 437 424 446 q 355 424 381 428 q 306 421 329 421 l 232 421 q 174 423 204 421 q 119 434 144 425 q 78 461 94 443 q 63 511 63 479 z "},"":{"ha":901,"x_min":28,"x_max":863,"o":"m 475 768 q 547 757 506 768 q 631 726 588 746 q 715 679 674 707 q 790 618 757 651 q 842 548 822 585 q 863 471 863 511 q 842 403 863 440 q 790 330 822 367 q 718 259 758 293 q 637 199 678 225 q 559 158 596 174 q 496 142 522 142 q 471 155 482 142 q 451 185 460 168 q 439 222 443 203 q 435 254 435 242 q 453 324 435 292 q 499 381 472 356 q 557 428 526 407 q 613 465 588 449 q 583 490 607 472 q 528 528 558 507 q 470 572 499 549 q 428 613 442 594 q 417 640 419 625 q 415 668 415 654 q 418 702 415 685 q 428 734 421 719 q 446 758 435 749 q 475 768 457 768 m 88 768 q 159 757 118 768 q 243 726 200 746 q 328 679 286 707 q 402 618 369 651 q 455 548 435 585 q 475 471 475 511 q 455 403 475 440 q 403 330 435 367 q 331 259 371 293 q 249 199 290 225 q 172 158 208 174 q 108 142 135 142 q 83 155 94 142 q 64 185 72 168 q 51 222 56 203 q 47 254 47 242 q 66 324 47 292 q 112 381 85 356 q 169 428 139 407 q 225 465 200 449 q 195 490 219 472 q 141 528 171 507 q 83 572 111 549 q 40 613 54 594 q 30 640 32 625 q 28 668 28 654 q 31 702 28 685 q 40 734 33 719 q 58 758 47 749 q 88 768 69 768 z "},"":{"ha":1218,"x_min":58,"x_max":1153,"o":"m 226 451 q 171 466 192 451 q 138 501 150 481 q 123 547 126 522 q 119 589 119 571 q 124 723 119 657 q 126 846 129 789 q 119 866 125 861 q 104 871 114 871 q 78 880 88 871 q 65 901 69 889 q 60 928 61 914 q 58 954 58 943 q 72 1005 58 982 q 106 1044 85 1028 q 153 1069 126 1060 q 206 1078 179 1078 q 274 1065 246 1078 q 321 1020 303 1051 q 348 938 339 989 q 357 810 357 886 q 351 678 357 743 q 331 564 346 614 q 292 483 317 514 q 226 451 267 451 m 257 -14 q 165 10 201 -14 q 129 85 129 35 q 151 154 129 107 q 210 265 174 201 q 295 405 247 329 q 397 558 343 481 q 503 709 450 635 q 605 845 557 783 q 691 951 653 907 q 751 1011 729 994 q 833 1039 788 1039 q 919 1008 888 1039 q 950 933 950 978 q 925 872 950 919 q 858 758 900 825 q 761 608 815 690 q 649 442 707 526 q 534 279 592 358 q 428 137 476 200 q 345 34 381 74 q 297 -10 310 -6 q 277 -13 290 -12 q 257 -14 264 -14 m 976 -32 q 896 2 915 -32 q 876 94 876 36 q 794 90 840 94 q 711 86 747 86 q 627 109 653 86 q 601 185 601 132 q 612 259 601 222 q 638 331 622 296 q 690 417 653 365 q 775 519 728 469 q 873 603 822 568 q 967 638 924 638 q 1035 609 1008 638 q 1076 541 1061 581 q 1096 459 1090 501 q 1101 389 1101 417 q 1101 334 1101 361 q 1099 279 1100 307 q 1126 267 1115 278 q 1142 241 1136 256 q 1151 210 1149 226 q 1153 183 1153 194 q 1142 131 1153 156 q 1097 101 1131 106 q 1092 49 1097 74 q 1074 7 1088 25 q 1038 -22 1061 -11 q 976 -32 1014 -32 m 876 369 q 860 359 868 369 q 847 335 853 349 q 836 308 840 321 q 832 288 832 294 q 840 269 832 276 q 860 263 847 263 q 878 268 872 263 q 888 282 885 274 q 891 300 890 290 q 892 318 892 310 q 892 329 892 321 q 890 347 892 338 q 885 363 889 356 q 876 369 882 369 z "},"":{"ha":1204,"x_min":58,"x_max":1143,"o":"m 226 451 q 171 466 192 451 q 138 501 150 481 q 123 547 126 522 q 119 589 119 571 q 124 723 119 657 q 126 846 129 789 q 119 866 125 861 q 104 871 114 871 q 78 880 88 871 q 65 901 69 889 q 60 928 61 914 q 58 954 58 943 q 72 1005 58 982 q 106 1044 85 1028 q 153 1069 126 1060 q 206 1078 179 1078 q 274 1065 246 1078 q 321 1020 303 1051 q 348 938 339 989 q 357 810 357 886 q 351 678 357 743 q 331 564 346 614 q 292 483 317 514 q 226 451 267 451 m 257 -14 q 165 10 201 -14 q 129 85 129 35 q 151 154 129 107 q 210 265 174 201 q 295 405 247 329 q 397 558 343 481 q 503 709 450 635 q 605 845 557 783 q 691 951 653 907 q 751 1011 729 994 q 833 1039 788 1039 q 919 1008 888 1039 q 950 933 950 978 q 925 872 950 919 q 858 758 900 825 q 761 608 815 690 q 649 442 707 526 q 534 279 592 358 q 428 137 476 200 q 345 34 381 74 q 297 -10 310 -6 q 277 -13 290 -12 q 257 -14 264 -14 m 1129 435 q 1108 344 1129 383 q 1060 277 1086 306 q 1012 229 1033 249 q 990 197 990 210 q 1001 190 990 192 q 1024 189 1011 189 q 1049 190 1038 189 q 1065 190 1061 190 q 1103 181 1089 190 q 1127 158 1118 172 q 1140 125 1136 143 q 1143 89 1143 107 q 1116 42 1143 63 q 1051 8 1089 22 q 975 -12 1014 -6 q 913 -18 936 -18 q 838 -16 878 -18 q 763 -3 797 -14 q 707 33 729 8 q 685 100 685 57 q 702 156 685 129 q 744 207 719 182 q 800 256 769 232 q 856 304 831 281 q 898 351 881 328 q 915 396 915 374 q 908 427 915 415 q 878 439 901 439 q 852 426 856 439 q 847 398 849 414 q 833 369 844 382 q 785 357 822 357 q 720 382 746 357 q 694 443 694 407 q 712 511 694 479 q 758 567 729 543 q 824 604 788 590 q 899 618 861 618 q 991 608 949 618 q 1064 576 1033 597 q 1112 519 1094 554 q 1129 435 1129 485 z "},"":{"ha":1261,"x_min":42,"x_max":1229,"o":"m 119 831 q 126 861 119 850 q 142 878 132 872 q 165 886 153 885 q 192 888 178 888 q 222 888 207 888 q 248 890 236 888 q 267 900 260 893 q 275 921 275 907 q 258 946 275 942 q 218 950 240 950 q 166 944 190 950 q 131 938 142 938 q 76 958 99 938 q 54 1026 54 978 q 72 1081 54 1060 q 117 1115 90 1103 q 177 1133 144 1128 q 239 1139 210 1139 q 336 1128 290 1139 q 417 1094 382 1117 q 472 1038 451 1072 q 492 957 492 1004 q 481 899 492 921 q 456 865 469 878 q 431 844 442 853 q 419 826 419 836 q 431 808 419 817 q 457 783 443 799 q 483 742 471 768 q 494 669 494 715 q 474 601 494 631 q 417 551 453 571 q 335 522 382 532 q 239 511 289 511 q 176 518 210 511 q 112 542 142 525 q 62 587 82 558 q 42 658 42 615 q 64 711 42 694 q 117 728 86 728 q 160 720 136 728 q 210 713 183 713 q 249 725 233 713 q 265 761 265 738 q 258 778 265 774 q 241 783 251 783 q 217 782 231 783 q 190 781 204 781 q 164 781 176 781 q 142 786 151 782 q 126 801 132 790 q 119 831 119 811 m 333 -14 q 242 10 278 -14 q 206 85 206 35 q 228 154 206 107 q 287 265 250 201 q 372 405 324 329 q 473 558 419 481 q 580 709 526 635 q 681 845 633 783 q 767 951 729 907 q 828 1011 806 994 q 910 1039 864 1039 q 995 1008 964 1039 q 1026 933 1026 978 q 1001 872 1026 919 q 934 758 976 825 q 838 608 892 690 q 726 442 783 526 q 610 279 668 358 q 505 137 553 200 q 422 34 457 74 q 374 -10 386 -6 q 353 -13 367 -12 q 333 -14 340 -14 m 1053 -32 q 972 2 992 -32 q 953 94 953 36 q 870 90 917 94 q 788 86 824 86 q 703 109 729 86 q 678 185 678 132 q 688 259 678 222 q 714 331 699 296 q 767 417 729 365 q 851 519 804 469 q 949 603 899 568 q 1043 638 1000 638 q 1111 609 1085 638 q 1152 541 1138 581 q 1172 459 1167 501 q 1178 389 1178 417 q 1177 334 1178 361 q 1175 279 1176 307 q 1202 267 1192 278 q 1219 241 1213 256 q 1227 210 1225 226 q 1229 183 1229 194 q 1218 131 1229 156 q 1174 101 1207 106 q 1169 49 1174 74 q 1151 7 1164 25 q 1114 -22 1138 -11 q 1053 -32 1090 -32 m 953 369 q 937 359 944 369 q 923 335 929 349 q 913 308 917 321 q 908 288 908 294 q 916 269 908 276 q 936 263 924 263 q 955 268 949 263 q 964 282 961 274 q 967 300 967 290 q 968 318 968 310 q 968 329 968 321 q 967 347 968 338 q 962 363 965 356 q 953 369 958 369 z "},"":{"ha":646,"x_min":36,"x_max":614,"o":"m 342 708 q 487 667 435 708 q 539 539 539 625 q 522 469 539 499 q 475 419 504 439 q 409 391 446 400 q 332 382 372 382 q 260 390 294 382 q 198 415 225 397 q 155 460 171 432 q 139 526 139 488 q 194 660 139 611 q 342 708 249 708 m 36 -62 q 53 78 36 7 q 108 208 71 150 q 206 302 146 265 q 350 339 265 339 q 458 315 425 339 q 490 242 490 290 q 468 173 490 199 q 420 126 446 147 q 372 81 394 106 q 350 14 350 56 q 363 -31 350 -22 q 396 -40 376 -40 q 415 -31 406 -40 q 437 -8 425 -21 q 465 14 449 4 q 503 24 481 24 q 580 -16 546 24 q 614 -153 614 -56 q 594 -244 614 -203 q 537 -316 574 -286 q 448 -362 500 -346 q 332 -378 396 -378 q 205 -362 260 -378 q 113 -310 150 -347 q 56 -213 75 -274 q 36 -62 36 -153 z "},"":{"ha":875,"x_min":22,"x_max":851,"o":"m 508 1000 q 431 1024 474 1000 q 349 1081 388 1047 q 283 1156 310 1115 q 253 1229 256 1196 q 262 1271 251 1251 q 289 1305 272 1290 q 328 1328 306 1319 q 371 1336 350 1336 q 413 1326 392 1336 q 449 1293 433 1315 q 494 1233 472 1257 q 544 1176 517 1208 q 574 1146 558 1161 q 608 1111 589 1131 q 624 1078 622 1096 q 595 1025 626 1050 q 508 1000 564 1000 m 692 -21 q 627 -8 653 -21 q 583 25 601 4 q 553 74 565 46 q 531 135 542 103 q 519 172 524 154 q 507 203 515 190 q 485 224 499 217 q 444 232 471 232 q 390 214 407 232 q 365 169 374 196 q 350 110 357 142 q 327 52 343 79 q 278 7 311 25 q 185 -11 246 -11 q 135 2 158 -11 q 92 35 111 15 q 58 79 72 54 q 36 126 44 104 q 29 159 32 140 q 25 197 26 178 q 23 236 24 217 q 22 269 22 256 q 31 415 22 336 q 58 571 39 493 q 108 722 76 649 q 188 851 140 796 q 300 941 235 907 q 450 975 365 975 q 601 942 538 975 q 708 855 664 910 q 781 729 753 800 q 824 582 808 658 q 846 428 840 506 q 851 286 851 351 q 851 247 851 267 q 850 207 850 226 q 841 133 850 174 q 813 59 832 93 q 763 2 793 25 q 692 -21 733 -21 m 450 583 q 405 560 422 583 q 388 508 388 538 q 405 467 388 481 q 446 453 422 453 q 488 473 471 453 q 504 515 504 493 q 489 560 504 536 q 450 583 474 583 z "},"":{"ha":875,"x_min":22,"x_max":851,"o":"m 374 999 q 332 1004 354 999 q 291 1020 310 1010 q 260 1047 272 1031 q 247 1083 247 1063 q 260 1117 247 1103 q 340 1211 297 1167 q 415 1310 382 1256 q 447 1342 429 1331 q 492 1353 464 1353 q 541 1344 517 1353 q 585 1319 565 1335 q 616 1283 604 1303 q 628 1239 628 1263 q 602 1164 628 1206 q 538 1085 576 1122 q 456 1024 500 1049 q 374 999 411 999 m 692 -21 q 627 -8 653 -21 q 583 25 601 4 q 553 74 565 46 q 531 135 542 103 q 519 172 524 154 q 507 203 515 190 q 485 224 499 217 q 444 232 471 232 q 390 214 407 232 q 365 169 374 196 q 350 110 357 142 q 327 52 343 79 q 278 7 311 25 q 185 -11 246 -11 q 135 2 158 -11 q 92 35 111 15 q 58 79 72 54 q 36 126 44 104 q 29 159 32 140 q 25 197 26 178 q 23 236 24 217 q 22 269 22 256 q 31 415 22 336 q 58 571 39 493 q 108 722 76 649 q 188 851 140 796 q 300 941 235 907 q 450 975 365 975 q 601 942 538 975 q 708 855 664 910 q 781 729 753 800 q 824 582 808 658 q 846 428 840 506 q 851 286 851 351 q 851 247 851 267 q 850 207 850 226 q 841 133 850 174 q 813 59 832 93 q 763 2 793 25 q 692 -21 733 -21 m 450 583 q 405 560 422 583 q 388 508 388 538 q 405 467 388 481 q 446 453 422 453 q 488 473 471 453 q 504 515 504 493 q 489 560 504 536 q 450 583 474 583 z "},"":{"ha":875,"x_min":22,"x_max":851,"o":"m 449 1344 q 544 1314 501 1344 q 615 1239 586 1283 q 660 1142 644 1194 q 676 1047 676 1090 q 666 1022 676 1033 q 641 1003 656 1011 q 610 992 626 996 q 581 988 593 988 q 526 1003 547 988 q 490 1042 506 1019 q 463 1092 475 1065 q 438 1139 451 1118 q 413 1108 418 1133 q 402 1056 408 1083 q 378 1005 396 1028 q 314 982 360 982 q 234 1006 269 982 q 199 1074 199 1029 q 217 1171 199 1122 q 269 1258 236 1219 q 349 1321 303 1297 q 449 1344 394 1344 m 692 -21 q 627 -8 653 -21 q 583 25 601 4 q 553 74 565 46 q 531 135 542 103 q 519 172 524 154 q 507 203 515 190 q 485 224 499 217 q 444 232 471 232 q 390 214 407 232 q 365 169 374 196 q 350 110 357 142 q 327 52 343 79 q 278 7 311 25 q 185 -11 246 -11 q 135 2 158 -11 q 92 35 111 15 q 58 79 72 54 q 36 126 44 104 q 29 159 32 140 q 25 197 26 178 q 23 236 24 217 q 22 269 22 256 q 31 415 22 336 q 58 571 39 493 q 108 722 76 649 q 188 851 140 796 q 300 941 235 907 q 450 975 365 975 q 601 942 538 975 q 708 855 664 910 q 781 729 753 800 q 824 582 808 658 q 846 428 840 506 q 851 286 851 351 q 851 247 851 267 q 850 207 850 226 q 841 133 850 174 q 813 59 832 93 q 763 2 793 25 q 692 -21 733 -21 m 450 583 q 405 560 422 583 q 388 508 388 538 q 405 467 388 481 q 446 453 422 453 q 488 473 471 453 q 504 515 504 493 q 489 560 504 536 q 450 583 474 583 z "},"":{"ha":875,"x_min":22,"x_max":851,"o":"m 293 1007 q 233 1040 251 1007 q 214 1125 214 1072 q 228 1201 214 1163 q 263 1272 242 1240 q 313 1324 285 1304 q 368 1344 340 1344 q 410 1333 393 1344 q 441 1310 426 1322 q 468 1286 456 1297 q 497 1275 481 1275 q 517 1285 510 1275 q 533 1306 525 1294 q 554 1328 542 1318 q 588 1338 567 1338 q 642 1303 622 1338 q 661 1225 661 1268 q 651 1145 661 1185 q 622 1074 640 1106 q 576 1024 603 1043 q 517 1006 549 1006 q 468 1016 489 1006 q 431 1040 447 1026 q 403 1063 415 1053 q 382 1074 392 1074 q 361 1063 369 1074 q 344 1040 353 1053 q 324 1017 335 1028 q 293 1007 313 1007 m 692 -21 q 627 -8 653 -21 q 583 25 601 4 q 553 74 565 46 q 531 135 542 103 q 519 172 524 154 q 507 203 515 190 q 485 224 499 217 q 444 232 471 232 q 390 214 407 232 q 365 169 374 196 q 350 110 357 142 q 327 52 343 79 q 278 7 311 25 q 185 -11 246 -11 q 135 2 158 -11 q 92 35 111 15 q 58 79 72 54 q 36 126 44 104 q 29 159 32 140 q 25 197 26 178 q 23 236 24 217 q 22 269 22 256 q 31 415 22 336 q 58 571 39 493 q 108 722 76 649 q 188 851 140 796 q 300 941 235 907 q 450 975 365 975 q 601 942 538 975 q 708 855 664 910 q 781 729 753 800 q 824 582 808 658 q 846 428 840 506 q 851 286 851 351 q 851 247 851 267 q 850 207 850 226 q 841 133 850 174 q 813 59 832 93 q 763 2 793 25 q 692 -21 733 -21 m 450 583 q 405 560 422 583 q 388 508 388 538 q 405 467 388 481 q 446 453 422 453 q 488 473 471 453 q 504 515 504 493 q 489 560 504 536 q 450 583 474 583 z "},"":{"ha":875,"x_min":22,"x_max":851,"o":"m 315 1029 q 233 1063 263 1029 q 203 1150 203 1097 q 228 1239 203 1203 q 308 1275 254 1275 q 393 1240 363 1275 q 424 1149 424 1204 q 415 1108 424 1129 q 391 1069 406 1088 q 357 1040 376 1051 q 315 1029 338 1029 m 565 1029 q 483 1063 513 1029 q 453 1150 453 1097 q 478 1239 453 1203 q 560 1275 504 1275 q 643 1240 613 1275 q 674 1149 674 1204 q 665 1108 674 1129 q 642 1069 657 1088 q 608 1040 628 1051 q 565 1029 588 1029 m 692 -21 q 627 -8 653 -21 q 583 25 601 4 q 553 74 565 46 q 531 135 542 103 q 519 172 524 154 q 507 203 515 190 q 485 224 499 217 q 444 232 471 232 q 390 214 407 232 q 365 169 374 196 q 350 110 357 142 q 327 52 343 79 q 278 7 311 25 q 185 -11 246 -11 q 135 2 158 -11 q 92 35 111 15 q 58 79 72 54 q 36 126 44 104 q 29 159 32 140 q 25 197 26 178 q 23 236 24 217 q 22 269 22 256 q 31 415 22 336 q 58 571 39 493 q 108 722 76 649 q 188 851 140 796 q 300 941 235 907 q 450 975 365 975 q 601 942 538 975 q 708 855 664 910 q 781 729 753 800 q 824 582 808 658 q 846 428 840 506 q 851 286 851 351 q 851 247 851 267 q 850 207 850 226 q 841 133 850 174 q 813 59 832 93 q 763 2 793 25 q 692 -21 733 -21 m 450 583 q 405 560 422 583 q 388 508 388 538 q 405 467 388 481 q 446 453 422 453 q 488 473 471 453 q 504 515 504 493 q 489 560 504 536 q 450 583 474 583 z "},"":{"ha":875,"x_min":22,"x_max":851,"o":"m 692 -21 q 627 -8 653 -21 q 583 25 601 4 q 553 74 565 46 q 531 135 542 103 q 519 172 524 154 q 507 203 515 190 q 485 224 499 217 q 444 232 471 232 q 390 214 407 232 q 365 169 374 196 q 350 110 357 142 q 327 52 343 79 q 278 7 311 25 q 185 -11 246 -11 q 135 2 158 -11 q 92 35 111 15 q 58 79 72 54 q 36 126 44 104 q 29 159 32 140 q 25 197 26 178 q 23 236 24 217 q 22 269 22 256 q 29 401 22 331 q 51 544 36 472 q 93 685 67 617 q 158 811 119 754 q 249 908 196 868 q 369 965 301 949 q 233 1030 279 981 q 188 1158 188 1079 q 206 1251 188 1208 q 256 1323 224 1293 q 333 1370 289 1353 q 432 1388 378 1388 q 533 1370 486 1388 q 615 1324 581 1353 q 669 1254 650 1294 q 689 1168 689 1214 q 641 1041 689 1093 q 514 969 593 989 q 640 919 586 957 q 731 826 693 881 q 792 703 768 771 q 828 563 815 635 q 847 419 842 490 q 851 286 851 347 q 851 247 851 267 q 850 207 850 226 q 841 133 850 174 q 813 59 832 93 q 763 2 793 25 q 692 -21 733 -21 m 425 1126 q 472 1140 456 1126 q 489 1168 489 1153 q 475 1193 489 1182 q 436 1204 461 1204 q 397 1192 411 1204 q 382 1165 382 1181 q 394 1140 382 1153 q 425 1126 406 1126 m 450 583 q 405 560 422 583 q 388 508 388 538 q 405 467 388 481 q 446 453 422 453 q 488 473 471 453 q 504 515 504 493 q 489 560 504 536 q 450 583 474 583 z "},"":{"ha":1319,"x_min":22,"x_max":1297,"o":"m 692 -21 q 627 -8 653 -21 q 583 25 601 4 q 553 74 565 46 q 531 135 542 103 q 519 172 524 154 q 507 203 515 190 q 485 224 499 217 q 444 232 471 232 q 390 214 407 232 q 365 169 374 196 q 350 110 357 142 q 327 52 343 79 q 278 7 311 25 q 185 -11 246 -11 q 135 2 158 -11 q 92 35 111 15 q 58 79 72 54 q 36 126 44 104 q 29 159 32 140 q 25 197 26 178 q 23 236 24 217 q 22 269 22 256 q 31 415 22 336 q 58 571 39 493 q 108 722 76 649 q 188 851 140 796 q 300 941 235 907 q 450 975 365 975 q 569 956 517 975 q 663 901 622 936 q 792 971 715 946 q 964 996 868 996 q 1090 980 1029 996 q 1196 935 1150 964 q 1269 866 1242 906 q 1297 778 1297 826 q 1282 713 1297 736 q 1242 676 1267 689 q 1185 660 1217 664 q 1122 657 1154 657 q 1065 658 1093 657 q 1014 656 1036 658 q 978 645 992 653 q 965 619 965 638 q 983 590 965 599 q 1027 578 1001 581 q 1081 578 1053 576 q 1131 581 1110 581 q 1179 571 1160 581 q 1210 546 1199 561 q 1225 511 1221 531 q 1229 471 1229 492 q 1224 430 1229 450 q 1206 393 1219 410 q 1167 366 1192 376 q 1103 356 1142 356 l 1057 356 q 1008 350 1029 356 q 988 322 988 344 q 1002 290 988 303 q 1040 278 1017 278 q 1077 282 1056 278 q 1126 286 1099 286 q 1250 247 1203 286 q 1297 142 1297 207 q 1208 10 1297 57 q 964 -36 1119 -36 l 918 -36 q 828 -33 878 -36 q 728 -15 778 -31 q 692 -21 713 -21 m 450 583 q 405 560 422 583 q 388 508 388 538 q 405 467 388 481 q 446 453 422 453 q 488 473 471 453 q 504 515 504 493 q 489 560 504 536 q 450 583 474 583 z "},"":{"ha":850,"x_min":13,"x_max":826,"o":"m 826 636 q 783 524 826 565 q 669 482 739 482 q 619 487 644 482 q 574 502 594 492 q 540 529 553 513 q 528 568 528 546 q 522 599 528 588 q 506 617 515 611 q 483 626 496 624 q 457 628 471 628 q 408 587 432 628 q 383 463 383 546 q 408 352 383 385 q 467 319 432 319 q 551 374 533 319 q 606 426 565 413 q 693 440 646 440 q 826 294 822 440 l 826 286 q 804 174 826 226 q 742 78 782 121 q 648 6 703 36 q 528 -37 593 -24 q 561 -65 544 -53 q 592 -90 578 -76 q 614 -122 606 -104 q 622 -168 622 -140 q 601 -255 622 -217 q 547 -319 581 -293 q 467 -360 513 -346 q 374 -375 422 -375 q 272 -349 315 -375 q 229 -264 229 -324 q 253 -197 229 -218 q 305 -167 276 -176 q 357 -154 333 -158 q 381 -137 381 -150 q 369 -120 381 -129 q 345 -99 358 -111 q 321 -71 332 -87 q 310 -31 310 -54 q 91 142 169 10 q 13 476 13 274 q 41 692 13 596 q 122 856 69 789 q 248 960 174 924 q 414 996 322 996 q 572 967 497 996 q 703 889 647 938 q 793 775 760 840 q 826 636 826 710 z "},"":{"ha":792,"x_min":14,"x_max":769,"o":"m 467 1000 q 389 1024 432 1000 q 307 1081 346 1047 q 241 1156 268 1115 q 211 1229 214 1196 q 220 1271 210 1251 q 247 1305 231 1290 q 286 1328 264 1319 q 329 1336 308 1336 q 371 1326 350 1336 q 407 1293 392 1315 q 453 1233 431 1257 q 503 1176 475 1208 q 532 1146 517 1161 q 567 1111 547 1131 q 582 1078 581 1096 q 553 1025 585 1050 q 467 1000 522 1000 m 14 221 q 58 359 14 299 q 168 447 103 419 q 195 459 185 454 q 206 471 206 464 q 197 481 206 476 q 175 492 188 485 q 122 526 147 504 q 76 577 96 549 q 46 639 57 606 q 35 707 35 672 q 63 818 35 765 q 144 910 92 871 q 271 973 197 950 q 436 996 344 996 q 562 980 501 996 q 668 935 622 964 q 742 866 714 906 q 769 778 769 826 q 754 713 769 736 q 714 676 739 689 q 658 660 689 664 q 594 657 626 657 q 537 658 565 657 q 486 656 508 658 q 451 645 464 653 q 438 619 438 638 q 456 590 438 599 q 499 578 474 581 q 553 578 525 576 q 603 581 582 581 q 651 571 632 581 q 682 546 671 561 q 697 511 693 531 q 701 471 701 492 q 697 430 701 450 q 678 393 692 410 q 639 366 664 376 q 575 356 614 356 l 529 356 q 481 350 501 356 q 460 322 460 344 q 474 290 460 303 q 513 278 489 278 q 549 282 528 278 q 599 286 571 286 q 722 247 675 286 q 769 142 769 207 q 681 10 769 57 q 436 -36 592 -36 q 293 -31 368 -36 q 156 1 218 -25 q 54 78 94 26 q 14 221 14 129 z "},"":{"ha":792,"x_min":14,"x_max":769,"o":"m 332 999 q 290 1004 313 999 q 249 1020 268 1010 q 218 1047 231 1031 q 206 1083 206 1063 q 218 1117 206 1103 q 298 1211 256 1167 q 374 1310 340 1256 q 405 1342 388 1331 q 450 1353 422 1353 q 499 1344 475 1353 q 543 1319 524 1335 q 574 1283 563 1303 q 586 1239 586 1263 q 560 1164 586 1206 q 497 1085 535 1122 q 414 1024 458 1049 q 332 999 369 999 m 14 221 q 58 359 14 299 q 168 447 103 419 q 195 459 185 454 q 206 471 206 464 q 197 481 206 476 q 175 492 188 485 q 122 526 147 504 q 76 577 96 549 q 46 639 57 606 q 35 707 35 672 q 63 818 35 765 q 144 910 92 871 q 271 973 197 950 q 436 996 344 996 q 562 980 501 996 q 668 935 622 964 q 742 866 714 906 q 769 778 769 826 q 754 713 769 736 q 714 676 739 689 q 658 660 689 664 q 594 657 626 657 q 537 658 565 657 q 486 656 508 658 q 451 645 464 653 q 438 619 438 638 q 456 590 438 599 q 499 578 474 581 q 553 578 525 576 q 603 581 582 581 q 651 571 632 581 q 682 546 671 561 q 697 511 693 531 q 701 471 701 492 q 697 430 701 450 q 678 393 692 410 q 639 366 664 376 q 575 356 614 356 l 529 356 q 481 350 501 356 q 460 322 460 344 q 474 290 460 303 q 513 278 489 278 q 549 282 528 278 q 599 286 571 286 q 722 247 675 286 q 769 142 769 207 q 681 10 769 57 q 436 -36 592 -36 q 293 -31 368 -36 q 156 1 218 -25 q 54 78 94 26 q 14 221 14 129 z "},"":{"ha":792,"x_min":14,"x_max":769,"o":"m 407 1344 q 502 1314 460 1344 q 574 1239 544 1283 q 619 1142 603 1194 q 635 1047 635 1090 q 624 1022 635 1033 q 599 1003 614 1011 q 568 992 585 996 q 539 988 551 988 q 485 1003 506 988 q 449 1042 464 1019 q 422 1092 433 1065 q 396 1139 410 1118 q 372 1108 376 1133 q 360 1056 367 1083 q 336 1005 354 1028 q 272 982 318 982 q 192 1006 228 982 q 157 1074 157 1029 q 176 1171 157 1122 q 228 1258 194 1219 q 307 1321 261 1297 q 407 1344 353 1344 m 14 221 q 58 359 14 299 q 168 447 103 419 q 195 459 185 454 q 206 471 206 464 q 197 481 206 476 q 175 492 188 485 q 122 526 147 504 q 76 577 96 549 q 46 639 57 606 q 35 707 35 672 q 63 818 35 765 q 144 910 92 871 q 271 973 197 950 q 436 996 344 996 q 562 980 501 996 q 668 935 622 964 q 742 866 714 906 q 769 778 769 826 q 754 713 769 736 q 714 676 739 689 q 658 660 689 664 q 594 657 626 657 q 537 658 565 657 q 486 656 508 658 q 451 645 464 653 q 438 619 438 638 q 456 590 438 599 q 499 578 474 581 q 553 578 525 576 q 603 581 582 581 q 651 571 632 581 q 682 546 671 561 q 697 511 693 531 q 701 471 701 492 q 697 430 701 450 q 678 393 692 410 q 639 366 664 376 q 575 356 614 356 l 529 356 q 481 350 501 356 q 460 322 460 344 q 474 290 460 303 q 513 278 489 278 q 549 282 528 278 q 599 286 571 286 q 722 247 675 286 q 769 142 769 207 q 681 10 769 57 q 436 -36 592 -36 q 293 -31 368 -36 q 156 1 218 -25 q 54 78 94 26 q 14 221 14 129 z "},"":{"ha":792,"x_min":14,"x_max":769,"o":"m 274 1029 q 191 1063 221 1029 q 161 1150 161 1097 q 187 1239 161 1203 q 267 1275 213 1275 q 351 1240 321 1275 q 382 1149 382 1204 q 373 1108 382 1129 q 349 1069 364 1088 q 315 1040 335 1051 q 274 1029 296 1029 m 524 1029 q 441 1063 471 1029 q 411 1150 411 1097 q 437 1239 411 1203 q 518 1275 463 1275 q 601 1240 571 1275 q 632 1149 632 1204 q 624 1108 632 1129 q 601 1069 615 1088 q 566 1040 586 1051 q 524 1029 546 1029 m 14 221 q 58 359 14 299 q 168 447 103 419 q 195 459 185 454 q 206 471 206 464 q 197 481 206 476 q 175 492 188 485 q 122 526 147 504 q 76 577 96 549 q 46 639 57 606 q 35 707 35 672 q 63 818 35 765 q 144 910 92 871 q 271 973 197 950 q 436 996 344 996 q 562 980 501 996 q 668 935 622 964 q 742 866 714 906 q 769 778 769 826 q 754 713 769 736 q 714 676 739 689 q 658 660 689 664 q 594 657 626 657 q 537 658 565 657 q 486 656 508 658 q 451 645 464 653 q 438 619 438 638 q 456 590 438 599 q 499 578 474 581 q 553 578 525 576 q 603 581 582 581 q 651 571 632 581 q 682 546 671 561 q 697 511 693 531 q 701 471 701 492 q 697 430 701 450 q 678 393 692 410 q 639 366 664 376 q 575 356 614 356 l 529 356 q 481 350 501 356 q 460 322 460 344 q 474 290 460 303 q 513 278 489 278 q 549 282 528 278 q 599 286 571 286 q 722 247 675 286 q 769 142 769 207 q 681 10 769 57 q 436 -36 592 -36 q 293 -31 368 -36 q 156 1 218 -25 q 54 78 94 26 q 14 221 14 129 z "},"":{"ha":576,"x_min":13,"x_max":553,"o":"m 358 1000 q 281 1024 324 1000 q 199 1081 238 1047 q 133 1156 160 1115 q 103 1229 106 1196 q 112 1271 101 1251 q 139 1305 122 1290 q 178 1328 156 1319 q 221 1336 200 1336 q 263 1326 242 1336 q 299 1293 283 1315 q 344 1233 322 1257 q 394 1176 367 1208 q 424 1146 408 1161 q 458 1111 439 1131 q 474 1078 472 1096 q 445 1025 476 1050 q 358 1000 414 1000 m 299 0 q 199 5 250 0 q 108 23 149 10 q 41 60 67 36 q 15 122 15 85 q 22 152 15 138 q 40 178 29 167 q 61 197 50 190 q 82 204 72 204 q 108 226 97 204 q 124 285 118 249 q 131 374 128 318 q 133 481 133 429 q 131 600 133 543 q 124 693 129 657 q 108 728 119 722 q 71 733 97 733 q 31 760 49 733 q 13 829 13 786 q 35 903 13 872 q 97 956 58 935 q 188 986 136 976 q 299 996 240 996 q 487 952 421 996 q 553 833 553 908 q 532 769 553 789 q 475 750 511 750 q 458 731 465 750 q 447 680 451 711 q 440 612 443 649 q 436 540 438 575 q 435 476 435 504 q 435 435 435 447 q 435 393 435 428 q 440 319 436 358 q 453 248 444 279 q 475 217 461 217 q 502 209 489 217 q 526 189 515 201 q 542 161 536 176 q 549 131 549 146 q 483 31 549 63 q 299 0 417 0 z "},"":{"ha":576,"x_min":13,"x_max":553,"o":"m 225 999 q 183 1004 206 999 q 142 1020 161 1010 q 111 1047 124 1031 q 99 1083 99 1063 q 111 1117 99 1103 q 191 1211 149 1167 q 267 1310 233 1256 q 298 1342 281 1331 q 343 1353 315 1353 q 392 1344 368 1353 q 436 1319 417 1335 q 467 1283 456 1303 q 479 1239 479 1263 q 453 1164 479 1206 q 390 1085 428 1122 q 307 1024 351 1049 q 225 999 263 999 m 299 0 q 199 5 250 0 q 108 23 149 10 q 41 60 67 36 q 15 122 15 85 q 22 152 15 138 q 40 178 29 167 q 61 197 50 190 q 82 204 72 204 q 108 226 97 204 q 124 285 118 249 q 131 374 128 318 q 133 481 133 429 q 131 600 133 543 q 124 693 129 657 q 108 728 119 722 q 71 733 97 733 q 31 760 49 733 q 13 829 13 786 q 35 903 13 872 q 97 956 58 935 q 188 986 136 976 q 299 996 240 996 q 487 952 421 996 q 553 833 553 908 q 532 769 553 789 q 475 750 511 750 q 458 731 465 750 q 447 680 451 711 q 440 612 443 649 q 436 540 438 575 q 435 476 435 504 q 435 435 435 447 q 435 393 435 428 q 440 319 436 358 q 453 248 444 279 q 475 217 461 217 q 502 209 489 217 q 526 189 515 201 q 542 161 536 176 q 549 131 549 146 q 483 31 549 63 q 299 0 417 0 z "},"":{"ha":576,"x_min":13,"x_max":553,"o":"m 299 0 q 199 5 250 0 q 108 23 149 10 q 41 60 67 36 q 15 122 15 85 q 22 152 15 138 q 40 178 29 167 q 61 197 50 190 q 82 204 72 204 q 108 226 97 204 q 124 285 118 249 q 131 374 128 318 q 133 481 133 429 q 131 600 133 543 q 124 693 129 657 q 108 728 119 722 q 71 733 97 733 q 31 760 49 733 q 13 829 13 786 q 56 928 13 890 q 169 982 100 965 q 127 987 149 982 q 89 1003 106 992 q 61 1031 72 1014 q 50 1074 50 1049 q 69 1171 50 1122 q 121 1258 88 1219 q 200 1321 154 1297 q 300 1344 246 1344 q 395 1314 353 1344 q 467 1239 438 1283 q 512 1142 496 1194 q 528 1047 528 1090 q 517 1022 528 1033 q 492 1003 507 1011 q 461 992 478 996 q 432 988 444 988 q 378 1003 399 988 q 342 1042 357 1019 q 315 1092 326 1065 q 289 1139 303 1118 q 267 1115 272 1135 q 257 1070 261 1094 q 243 1023 253 1046 q 207 989 233 1000 q 252 994 229 992 q 299 996 275 996 q 487 952 421 996 q 553 833 553 908 q 532 769 553 789 q 475 750 511 750 q 458 731 465 750 q 447 680 451 711 q 440 612 443 649 q 436 540 438 575 q 435 476 435 504 q 435 435 435 447 q 435 393 435 428 q 440 319 436 358 q 453 248 444 279 q 475 217 461 217 q 502 209 489 217 q 526 189 515 201 q 542 161 536 176 q 549 131 549 146 q 483 31 549 63 q 299 0 417 0 z "},"":{"ha":576,"x_min":13,"x_max":553,"o":"m 165 1029 q 83 1063 113 1029 q 53 1150 53 1097 q 78 1239 53 1203 q 158 1275 104 1275 q 243 1240 213 1275 q 274 1149 274 1204 q 265 1108 274 1129 q 241 1069 256 1088 q 207 1040 226 1051 q 165 1029 188 1029 m 415 1029 q 333 1063 363 1029 q 303 1150 303 1097 q 328 1239 303 1203 q 410 1275 354 1275 q 493 1240 463 1275 q 524 1149 524 1204 q 515 1108 524 1129 q 492 1069 507 1088 q 458 1040 478 1051 q 415 1029 438 1029 m 299 0 q 199 5 250 0 q 108 23 149 10 q 41 60 67 36 q 15 122 15 85 q 22 152 15 138 q 40 178 29 167 q 61 197 50 190 q 82 204 72 204 q 108 226 97 204 q 124 285 118 249 q 131 374 128 318 q 133 481 133 429 q 131 600 133 543 q 124 693 129 657 q 108 728 119 722 q 71 733 97 733 q 31 760 49 733 q 13 829 13 786 q 35 903 13 872 q 97 956 58 935 q 188 986 136 976 q 299 996 240 996 q 487 952 421 996 q 553 833 553 908 q 532 769 553 789 q 475 750 511 750 q 458 731 465 750 q 447 680 451 711 q 440 612 443 649 q 436 540 438 575 q 435 476 435 504 q 435 435 435 447 q 435 393 435 428 q 440 319 436 358 q 453 248 444 279 q 475 217 461 217 q 502 209 489 217 q 526 189 515 201 q 542 161 536 176 q 549 131 549 146 q 483 31 549 63 q 299 0 417 0 z "},"":{"ha":894,"x_min":-42,"x_max":856,"o":"m 29 396 q -24 423 -7 406 q -42 472 -42 440 q -24 530 -42 510 q 29 558 -7 550 q 38 692 31 618 q 64 829 44 765 q 119 937 83 893 q 213 981 154 981 q 258 971 238 981 q 294 949 278 961 q 322 928 310 938 q 340 918 333 918 q 355 926 347 918 q 375 942 363 933 q 409 959 388 951 q 467 967 431 967 q 623 938 551 967 q 746 851 694 908 q 826 706 797 793 q 856 501 856 618 q 815 280 856 378 q 703 115 775 182 q 535 11 632 47 q 326 -25 439 -25 q 183 13 239 -25 q 94 110 126 50 q 47 244 61 169 q 29 396 33 319 m 507 493 q 483 592 507 554 q 421 631 458 631 q 379 610 393 631 q 360 563 365 590 q 420 534 400 554 q 440 469 440 514 q 422 419 440 438 q 367 393 403 401 q 421 344 382 344 q 482 388 457 344 q 507 493 507 431 z "},"":{"ha":965,"x_min":22,"x_max":938,"o":"m 339 1007 q 278 1040 297 1007 q 260 1125 260 1072 q 274 1201 260 1163 q 309 1272 288 1240 q 358 1324 331 1304 q 414 1344 386 1344 q 456 1333 439 1344 q 487 1310 472 1322 q 514 1286 501 1297 q 543 1275 526 1275 q 563 1285 556 1275 q 579 1306 571 1294 q 600 1328 588 1318 q 633 1338 613 1338 q 688 1303 668 1338 q 707 1225 707 1268 q 697 1145 707 1185 q 667 1074 686 1106 q 622 1024 649 1043 q 563 1006 594 1006 q 514 1016 535 1006 q 477 1040 493 1026 q 449 1063 461 1053 q 428 1074 438 1074 q 407 1063 415 1074 q 390 1040 399 1053 q 369 1017 381 1028 q 339 1007 358 1007 m 728 -32 q 652 0 689 -32 q 582 80 615 32 q 519 184 549 128 q 465 288 489 240 q 424 368 442 336 q 399 400 407 400 q 378 381 378 400 q 384 338 378 361 q 399 288 390 314 q 413 233 407 263 q 419 175 419 204 q 413 113 419 149 q 393 44 407 76 q 356 -10 379 13 q 297 -33 332 -33 q 188 -1 233 -33 q 113 85 143 32 q 64 206 82 139 q 37 340 46 272 q 25 469 28 407 q 22 575 22 532 q 36 700 22 632 q 80 827 50 768 q 158 926 110 886 q 278 967 207 967 q 374 931 331 967 q 451 842 417 894 q 511 733 486 790 q 554 636 536 676 q 559 626 556 635 q 567 607 563 617 q 577 590 572 597 q 585 582 582 582 q 596 599 593 582 q 599 622 599 617 q 593 667 599 644 q 581 710 588 689 q 569 754 575 732 q 564 799 564 776 q 573 867 564 833 q 601 926 582 900 q 649 967 619 951 q 717 983 678 983 q 791 961 758 983 q 849 903 824 939 q 890 822 874 867 q 917 731 907 776 q 933 642 928 685 q 938 569 938 600 q 937 475 938 533 q 931 349 936 417 q 913 215 925 282 q 876 92 900 147 q 817 3 853 38 q 728 -32 781 -32 z "},"":{"ha":947,"x_min":32,"x_max":926,"o":"m 544 1000 q 467 1024 510 1000 q 385 1081 424 1047 q 319 1156 346 1115 q 289 1229 292 1196 q 298 1271 288 1251 q 325 1305 308 1290 q 364 1328 342 1319 q 407 1336 386 1336 q 449 1326 428 1336 q 485 1293 469 1315 q 531 1233 508 1257 q 581 1176 553 1208 q 610 1146 594 1161 q 644 1111 625 1131 q 660 1078 658 1096 q 631 1025 663 1050 q 544 1000 600 1000 m 926 471 q 892 259 926 353 q 797 101 858 165 q 650 2 736 36 q 461 -32 564 -32 q 276 3 357 -32 q 142 105 196 39 q 60 266 88 171 q 32 481 32 361 q 64 697 32 606 q 156 849 96 789 q 300 938 215 908 q 490 967 385 967 q 667 934 588 967 q 805 838 747 901 q 894 683 863 775 q 926 471 926 590 m 474 339 q 536 378 513 339 q 560 476 560 417 q 553 533 560 506 q 535 581 547 560 q 508 613 524 601 q 474 625 493 625 q 438 612 454 625 q 408 577 421 599 q 388 527 396 556 q 381 468 381 499 q 408 374 381 410 q 474 339 436 339 z "},"":{"ha":947,"x_min":32,"x_max":926,"o":"m 410 999 q 368 1004 390 999 q 327 1020 346 1010 q 296 1047 308 1031 q 283 1083 283 1063 q 296 1117 283 1103 q 376 1211 333 1167 q 451 1310 418 1256 q 483 1342 465 1331 q 528 1353 500 1353 q 577 1344 553 1353 q 621 1319 601 1335 q 652 1283 640 1303 q 664 1239 664 1263 q 638 1164 664 1206 q 574 1085 613 1122 q 492 1024 536 1049 q 410 999 447 999 m 926 471 q 892 259 926 353 q 797 101 858 165 q 650 2 736 36 q 461 -32 564 -32 q 276 3 357 -32 q 142 105 196 39 q 60 266 88 171 q 32 481 32 361 q 64 697 32 606 q 156 849 96 789 q 300 938 215 908 q 490 967 385 967 q 667 934 588 967 q 805 838 747 901 q 894 683 863 775 q 926 471 926 590 m 474 339 q 536 378 513 339 q 560 476 560 417 q 553 533 560 506 q 535 581 547 560 q 508 613 524 601 q 474 625 493 625 q 438 612 454 625 q 408 577 421 599 q 388 527 396 556 q 381 468 381 499 q 408 374 381 410 q 474 339 436 339 z "},"":{"ha":947,"x_min":32,"x_max":926,"o":"m 485 1344 q 580 1314 538 1344 q 651 1239 622 1283 q 697 1142 681 1194 q 713 1047 713 1090 q 702 1022 713 1033 q 677 1003 692 1011 q 646 992 663 996 q 617 988 629 988 q 563 1003 583 988 q 526 1042 542 1019 q 499 1092 511 1065 q 474 1139 488 1118 q 449 1108 454 1133 q 438 1056 444 1083 q 414 1005 432 1028 q 350 982 396 982 q 270 1006 306 982 q 235 1074 235 1029 q 253 1171 235 1122 q 306 1258 272 1219 q 385 1321 339 1297 q 485 1344 431 1344 m 926 471 q 892 259 926 353 q 797 101 858 165 q 650 2 736 36 q 461 -32 564 -32 q 276 3 357 -32 q 142 105 196 39 q 60 266 88 171 q 32 481 32 361 q 64 697 32 606 q 156 849 96 789 q 300 938 215 908 q 490 967 385 967 q 667 934 588 967 q 805 838 747 901 q 894 683 863 775 q 926 471 926 590 m 474 339 q 536 378 513 339 q 560 476 560 417 q 553 533 560 506 q 535 581 547 560 q 508 613 524 601 q 474 625 493 625 q 438 612 454 625 q 408 577 421 599 q 388 527 396 556 q 381 468 381 499 q 408 374 381 410 q 474 339 436 339 z "},"":{"ha":947,"x_min":32,"x_max":926,"o":"m 329 1007 q 269 1040 288 1007 q 250 1125 250 1072 q 264 1201 250 1163 q 299 1272 278 1240 q 349 1324 321 1304 q 404 1344 376 1344 q 446 1333 429 1344 q 477 1310 463 1322 q 504 1286 492 1297 q 533 1275 517 1275 q 553 1285 546 1275 q 569 1306 561 1294 q 590 1328 578 1318 q 624 1338 603 1338 q 678 1303 658 1338 q 697 1225 697 1268 q 687 1145 697 1185 q 658 1074 676 1106 q 612 1024 639 1043 q 553 1006 585 1006 q 504 1016 525 1006 q 467 1040 483 1026 q 440 1063 451 1053 q 418 1074 428 1074 q 397 1063 406 1074 q 380 1040 389 1053 q 360 1017 371 1028 q 329 1007 349 1007 m 926 471 q 892 259 926 353 q 797 101 858 165 q 650 2 736 36 q 461 -32 564 -32 q 276 3 357 -32 q 142 105 196 39 q 60 266 88 171 q 32 481 32 361 q 64 697 32 606 q 156 849 96 789 q 300 938 215 908 q 490 967 385 967 q 667 934 588 967 q 805 838 747 901 q 894 683 863 775 q 926 471 926 590 m 474 339 q 536 378 513 339 q 560 476 560 417 q 553 533 560 506 q 535 581 547 560 q 508 613 524 601 q 474 625 493 625 q 438 612 454 625 q 408 577 421 599 q 388 527 396 556 q 381 468 381 499 q 408 374 381 410 q 474 339 436 339 z "},"":{"ha":947,"x_min":32,"x_max":926,"o":"m 351 1029 q 269 1063 299 1029 q 239 1150 239 1097 q 265 1239 239 1203 q 344 1275 290 1275 q 429 1240 399 1275 q 460 1149 460 1204 q 451 1108 460 1129 q 427 1069 442 1088 q 393 1040 413 1051 q 351 1029 374 1029 m 601 1029 q 519 1063 549 1029 q 489 1150 489 1097 q 515 1239 489 1203 q 596 1275 540 1275 q 679 1240 649 1275 q 710 1149 710 1204 q 701 1108 710 1129 q 678 1069 693 1088 q 644 1040 664 1051 q 601 1029 624 1029 m 926 471 q 892 259 926 353 q 797 101 858 165 q 650 2 736 36 q 461 -32 564 -32 q 276 3 357 -32 q 142 105 196 39 q 60 266 88 171 q 32 481 32 361 q 64 697 32 606 q 156 849 96 789 q 300 938 215 908 q 490 967 385 967 q 667 934 588 967 q 805 838 747 901 q 894 683 863 775 q 926 471 926 590 m 474 339 q 536 378 513 339 q 560 476 560 417 q 553 533 560 506 q 535 581 547 560 q 508 613 524 601 q 474 625 493 625 q 438 612 454 625 q 408 577 421 599 q 388 527 396 556 q 381 468 381 499 q 408 374 381 410 q 474 339 436 339 z "},"":{"ha":692,"x_min":99,"x_max":615,"o":"m 358 338 q 294 290 331 314 q 221 267 258 267 q 176 276 199 267 q 137 301 154 286 q 109 335 119 317 q 99 374 99 354 q 125 442 99 410 q 178 499 151 474 q 127 553 151 522 q 103 619 103 583 q 112 656 103 638 q 137 691 121 675 q 172 717 153 707 q 213 728 192 728 q 252 720 232 728 q 291 701 272 713 q 327 676 310 689 q 357 653 344 664 q 387 677 369 664 q 423 701 404 690 q 462 720 442 713 q 501 728 482 728 q 542 717 522 728 q 577 691 561 707 q 602 656 593 675 q 611 619 611 638 q 588 552 611 583 q 536 497 564 521 q 589 440 563 472 q 615 372 615 408 q 604 335 615 354 q 575 301 593 315 q 535 276 557 286 q 493 267 514 267 q 419 290 454 267 q 358 338 383 314 z "},"":{"ha":947,"x_min":32,"x_max":926,"o":"m 326 -106 q 225 -76 268 -106 q 182 0 182 -46 q 183 29 182 14 q 185 60 183 44 q 71 232 110 126 q 32 481 32 338 q 60 687 32 599 q 142 835 89 775 q 272 927 196 894 q 443 965 349 960 q 474 1017 458 996 q 501 1046 489 1039 q 519 1056 507 1049 q 548 1071 531 1064 q 588 1083 565 1078 q 638 1089 611 1089 q 756 1053 708 1089 q 803 942 803 1017 q 799 908 803 931 q 789 856 796 885 q 890 696 854 792 q 926 471 926 600 q 895 267 926 357 q 808 113 864 176 q 672 12 751 49 q 497 -31 593 -25 q 422 -90 468 -75 q 326 -106 376 -106 m 474 339 q 536 378 513 339 q 560 476 560 417 q 553 533 560 506 q 535 581 547 560 q 508 613 524 601 q 474 625 493 625 q 438 612 454 625 q 408 577 421 599 q 388 527 396 556 q 381 468 381 499 q 408 374 381 410 q 474 339 436 339 z "},"":{"ha":896,"x_min":14,"x_max":882,"o":"m 518 1000 q 440 1024 483 1000 q 358 1081 397 1047 q 292 1156 319 1115 q 263 1229 265 1196 q 272 1271 261 1251 q 299 1305 282 1290 q 338 1328 315 1319 q 381 1336 360 1336 q 422 1326 401 1336 q 458 1293 443 1315 q 504 1233 482 1257 q 554 1176 526 1208 q 583 1146 568 1161 q 618 1111 599 1131 q 633 1078 632 1096 q 605 1025 636 1050 q 518 1000 574 1000 m 449 -24 q 118 117 222 -24 q 14 542 14 258 q 32 719 14 640 q 82 852 50 797 q 160 937 114 907 q 261 967 206 967 q 399 790 399 967 q 395 731 399 760 q 387 672 392 703 q 378 608 382 642 q 375 535 375 575 q 376 481 375 521 q 382 397 376 440 q 401 321 388 354 q 440 288 415 288 q 497 357 476 288 q 517 546 517 426 q 510 693 517 629 q 503 807 503 757 q 532 928 503 890 q 626 967 561 967 q 813 858 743 967 q 882 546 882 749 q 852 311 882 417 q 766 131 822 206 q 629 17 710 57 q 449 -24 549 -24 z "},"":{"ha":896,"x_min":14,"x_max":882,"o":"m 385 999 q 343 1004 365 999 q 302 1020 321 1010 q 271 1047 283 1031 q 258 1083 258 1063 q 271 1117 258 1103 q 351 1211 308 1167 q 426 1310 393 1256 q 458 1342 440 1331 q 503 1353 475 1353 q 552 1344 528 1353 q 596 1319 576 1335 q 627 1283 615 1303 q 639 1239 639 1263 q 613 1164 639 1206 q 549 1085 588 1122 q 467 1024 511 1049 q 385 999 422 999 m 449 -24 q 118 117 222 -24 q 14 542 14 258 q 32 719 14 640 q 82 852 50 797 q 160 937 114 907 q 261 967 206 967 q 399 790 399 967 q 395 731 399 760 q 387 672 392 703 q 378 608 382 642 q 375 535 375 575 q 376 481 375 521 q 382 397 376 440 q 401 321 388 354 q 440 288 415 288 q 497 357 476 288 q 517 546 517 426 q 510 693 517 629 q 503 807 503 757 q 532 928 503 890 q 626 967 561 967 q 813 858 743 967 q 882 546 882 749 q 852 311 882 417 q 766 131 822 206 q 629 17 710 57 q 449 -24 549 -24 z "},"":{"ha":896,"x_min":14,"x_max":882,"o":"m 460 1344 q 555 1314 513 1344 q 626 1239 597 1283 q 672 1142 656 1194 q 688 1047 688 1090 q 677 1022 688 1033 q 652 1003 667 1011 q 621 992 638 996 q 592 988 604 988 q 538 1003 558 988 q 501 1042 517 1019 q 474 1092 486 1065 q 449 1139 463 1118 q 424 1108 429 1133 q 413 1056 419 1083 q 389 1005 407 1028 q 325 982 371 982 q 245 1006 281 982 q 210 1074 210 1029 q 228 1171 210 1122 q 281 1258 247 1219 q 360 1321 314 1297 q 460 1344 406 1344 m 449 -24 q 118 117 222 -24 q 14 542 14 258 q 32 719 14 640 q 82 852 50 797 q 160 937 114 907 q 261 967 206 967 q 399 790 399 967 q 395 731 399 760 q 387 672 392 703 q 378 608 382 642 q 375 535 375 575 q 376 481 375 521 q 382 397 376 440 q 401 321 388 354 q 440 288 415 288 q 497 357 476 288 q 517 546 517 426 q 510 693 517 629 q 503 807 503 757 q 532 928 503 890 q 626 967 561 967 q 813 858 743 967 q 882 546 882 749 q 852 311 882 417 q 766 131 822 206 q 629 17 710 57 q 449 -24 549 -24 z "},"":{"ha":896,"x_min":14,"x_max":882,"o":"m 325 1029 q 242 1063 272 1029 q 213 1150 213 1097 q 238 1239 213 1203 q 318 1275 264 1275 q 403 1240 372 1275 q 433 1149 433 1204 q 424 1108 433 1129 q 401 1069 415 1088 q 367 1040 386 1051 q 325 1029 347 1029 m 575 1029 q 492 1063 522 1029 q 463 1150 463 1097 q 488 1239 463 1203 q 569 1275 514 1275 q 653 1240 622 1275 q 683 1149 683 1204 q 675 1108 683 1129 q 652 1069 667 1088 q 617 1040 638 1051 q 575 1029 597 1029 m 449 -24 q 118 117 222 -24 q 14 542 14 258 q 32 719 14 640 q 82 852 50 797 q 160 937 114 907 q 261 967 206 967 q 399 790 399 967 q 395 731 399 760 q 387 672 392 703 q 378 608 382 642 q 375 535 375 575 q 376 481 375 521 q 382 397 376 440 q 401 321 388 354 q 440 288 415 288 q 497 357 476 288 q 517 546 517 426 q 510 693 517 629 q 503 807 503 757 q 532 928 503 890 q 626 967 561 967 q 813 858 743 967 q 882 546 882 749 q 852 311 882 417 q 766 131 822 206 q 629 17 710 57 q 449 -24 549 -24 z "},"":{"ha":806,"x_min":17,"x_max":788,"o":"m 339 999 q 297 1004 319 999 q 256 1020 275 1010 q 225 1047 238 1031 q 213 1083 213 1063 q 225 1117 213 1103 q 305 1211 263 1167 q 381 1310 347 1256 q 412 1342 394 1331 q 457 1353 429 1353 q 506 1344 482 1353 q 550 1319 531 1335 q 581 1283 569 1303 q 593 1239 593 1263 q 567 1164 593 1206 q 503 1085 542 1122 q 421 1024 465 1049 q 339 999 376 999 m 408 -47 q 320 -33 360 -47 q 253 8 281 -18 q 212 68 226 33 q 197 142 197 103 q 203 189 197 169 q 217 226 210 208 q 230 263 224 244 q 236 308 236 282 q 220 358 236 336 q 179 403 204 379 q 126 455 154 426 q 74 522 99 483 q 33 615 49 561 q 17 742 17 668 q 31 845 17 803 q 69 915 46 888 q 123 954 93 942 q 185 967 153 967 q 273 948 238 967 q 330 897 308 929 q 361 821 351 865 q 371 726 371 776 q 374 682 371 704 q 382 642 376 660 q 394 614 388 625 q 410 603 401 603 q 440 642 429 603 q 451 739 451 681 q 462 819 451 779 q 494 892 472 860 q 553 946 517 925 q 642 967 590 967 q 701 956 674 967 q 747 918 728 944 q 777 849 767 892 q 788 744 788 807 q 756 591 788 657 q 685 473 724 525 q 615 378 647 421 q 583 293 583 336 q 589 255 583 269 q 601 227 594 240 q 613 199 607 214 q 618 160 618 185 q 603 81 618 118 q 562 15 589 43 q 496 -31 535 -14 q 408 -47 457 -47 z "},"":{"ha":810,"x_min":35,"x_max":783,"o":"m 243 -44 q 174 -22 204 -44 q 120 40 143 1 q 81 128 97 78 q 54 235 64 179 q 40 351 44 292 q 35 464 35 410 q 44 635 35 546 q 78 798 53 724 q 152 921 104 872 q 279 969 200 969 q 344 955 321 969 q 378 917 368 940 q 391 863 389 893 q 393 799 393 832 l 393 790 q 438 833 413 818 q 500 847 464 847 q 610 824 558 847 q 701 758 663 801 q 761 651 739 714 q 783 508 783 588 q 763 364 783 429 q 704 253 743 299 q 609 181 665 207 q 481 156 553 156 q 431 169 461 156 q 383 203 400 183 q 385 190 385 196 q 385 178 385 185 q 383 92 385 132 q 367 22 381 51 q 324 -26 353 -8 q 243 -44 296 -44 m 422 442 q 453 463 442 442 q 464 499 464 483 q 453 538 464 515 q 424 560 443 560 q 406 552 414 560 q 394 534 399 544 q 387 513 389 524 q 385 493 385 501 q 395 460 385 478 q 422 442 406 442 z "},"":{"ha":960,"x_min":8,"x_max":932,"o":"m 268 0 q 124 73 176 0 q 72 276 72 146 q 76 382 72 317 q 79 519 79 447 q 61 519 74 515 q 38 536 49 524 q 17 571 26 549 q 8 628 8 593 q 20 685 8 668 q 47 706 32 701 q 75 711 61 711 q 93 719 89 711 q 138 826 104 778 q 222 910 172 875 q 333 966 271 946 q 463 986 394 986 q 610 968 540 986 q 733 917 681 950 q 817 835 786 883 q 849 724 849 786 q 847 683 849 706 q 837 637 844 661 q 816 588 829 613 q 781 542 803 563 q 792 539 788 542 q 803 533 797 536 q 902 438 872 494 q 932 308 932 382 q 909 183 932 240 q 844 83 886 125 q 747 19 803 42 q 624 -4 690 -4 q 432 185 432 -4 q 440 257 432 224 q 463 315 449 290 q 497 353 476 339 q 539 367 517 367 q 573 354 563 367 q 589 326 583 342 q 600 299 594 311 q 619 286 606 286 q 643 300 633 286 q 653 333 653 314 q 640 368 653 356 q 607 390 626 381 q 565 409 588 400 q 524 432 543 418 q 491 469 504 446 q 478 531 478 493 q 483 569 478 556 q 495 594 489 583 q 506 615 501 604 q 511 643 511 626 q 501 680 511 667 q 475 693 492 693 q 441 672 453 693 q 429 613 429 650 q 428 590 429 601 q 426 559 428 579 q 424 506 425 539 q 424 419 424 474 q 422 288 424 344 q 417 196 419 231 q 373 47 407 93 q 268 0 339 0 z "},"":{"ha":875,"x_min":22,"x_max":851,"o":"m 508 1000 q 431 1024 474 1000 q 349 1081 388 1047 q 283 1156 310 1115 q 253 1229 256 1196 q 262 1271 251 1251 q 289 1305 272 1290 q 328 1328 306 1319 q 371 1336 350 1336 q 413 1326 392 1336 q 449 1293 433 1315 q 494 1233 472 1257 q 544 1176 517 1208 q 574 1146 558 1161 q 608 1111 589 1131 q 624 1078 622 1096 q 595 1025 626 1050 q 508 1000 564 1000 m 692 -21 q 627 -8 653 -21 q 583 25 601 4 q 553 74 565 46 q 531 135 542 103 q 519 172 524 154 q 507 203 515 190 q 485 224 499 217 q 444 232 471 232 q 390 214 407 232 q 365 169 374 196 q 350 110 357 142 q 327 52 343 79 q 278 7 311 25 q 185 -11 246 -11 q 135 2 158 -11 q 92 35 111 15 q 58 79 72 54 q 36 126 44 104 q 29 159 32 140 q 25 197 26 178 q 23 236 24 217 q 22 269 22 256 q 31 415 22 336 q 58 571 39 493 q 108 722 76 649 q 188 851 140 796 q 300 941 235 907 q 450 975 365 975 q 601 942 538 975 q 708 855 664 910 q 781 729 753 800 q 824 582 808 658 q 846 428 840 506 q 851 286 851 351 q 851 247 851 267 q 850 207 850 226 q 841 133 850 174 q 813 59 832 93 q 763 2 793 25 q 692 -21 733 -21 m 450 583 q 405 560 422 583 q 388 508 388 538 q 405 467 388 481 q 446 453 422 453 q 488 473 471 453 q 504 515 504 493 q 489 560 504 536 q 450 583 474 583 z "},"":{"ha":875,"x_min":22,"x_max":851,"o":"m 374 999 q 332 1004 354 999 q 291 1020 310 1010 q 260 1047 272 1031 q 247 1083 247 1063 q 260 1117 247 1103 q 340 1211 297 1167 q 415 1310 382 1256 q 447 1342 429 1331 q 492 1353 464 1353 q 541 1344 517 1353 q 585 1319 565 1335 q 616 1283 604 1303 q 628 1239 628 1263 q 602 1164 628 1206 q 538 1085 576 1122 q 456 1024 500 1049 q 374 999 411 999 m 692 -21 q 627 -8 653 -21 q 583 25 601 4 q 553 74 565 46 q 531 135 542 103 q 519 172 524 154 q 507 203 515 190 q 485 224 499 217 q 444 232 471 232 q 390 214 407 232 q 365 169 374 196 q 350 110 357 142 q 327 52 343 79 q 278 7 311 25 q 185 -11 246 -11 q 135 2 158 -11 q 92 35 111 15 q 58 79 72 54 q 36 126 44 104 q 29 159 32 140 q 25 197 26 178 q 23 236 24 217 q 22 269 22 256 q 31 415 22 336 q 58 571 39 493 q 108 722 76 649 q 188 851 140 796 q 300 941 235 907 q 450 975 365 975 q 601 942 538 975 q 708 855 664 910 q 781 729 753 800 q 824 582 808 658 q 846 428 840 506 q 851 286 851 351 q 851 247 851 267 q 850 207 850 226 q 841 133 850 174 q 813 59 832 93 q 763 2 793 25 q 692 -21 733 -21 m 450 583 q 405 560 422 583 q 388 508 388 538 q 405 467 388 481 q 446 453 422 453 q 488 473 471 453 q 504 515 504 493 q 489 560 504 536 q 450 583 474 583 z "},"":{"ha":875,"x_min":22,"x_max":851,"o":"m 449 1344 q 544 1314 501 1344 q 615 1239 586 1283 q 660 1142 644 1194 q 676 1047 676 1090 q 666 1022 676 1033 q 641 1003 656 1011 q 610 992 626 996 q 581 988 593 988 q 526 1003 547 988 q 490 1042 506 1019 q 463 1092 475 1065 q 438 1139 451 1118 q 413 1108 418 1133 q 402 1056 408 1083 q 378 1005 396 1028 q 314 982 360 982 q 234 1006 269 982 q 199 1074 199 1029 q 217 1171 199 1122 q 269 1258 236 1219 q 349 1321 303 1297 q 449 1344 394 1344 m 692 -21 q 627 -8 653 -21 q 583 25 601 4 q 553 74 565 46 q 531 135 542 103 q 519 172 524 154 q 507 203 515 190 q 485 224 499 217 q 444 232 471 232 q 390 214 407 232 q 365 169 374 196 q 350 110 357 142 q 327 52 343 79 q 278 7 311 25 q 185 -11 246 -11 q 135 2 158 -11 q 92 35 111 15 q 58 79 72 54 q 36 126 44 104 q 29 159 32 140 q 25 197 26 178 q 23 236 24 217 q 22 269 22 256 q 31 415 22 336 q 58 571 39 493 q 108 722 76 649 q 188 851 140 796 q 300 941 235 907 q 450 975 365 975 q 601 942 538 975 q 708 855 664 910 q 781 729 753 800 q 824 582 808 658 q 846 428 840 506 q 851 286 851 351 q 851 247 851 267 q 850 207 850 226 q 841 133 850 174 q 813 59 832 93 q 763 2 793 25 q 692 -21 733 -21 m 450 583 q 405 560 422 583 q 388 508 388 538 q 405 467 388 481 q 446 453 422 453 q 488 473 471 453 q 504 515 504 493 q 489 560 504 536 q 450 583 474 583 z "},"":{"ha":875,"x_min":22,"x_max":851,"o":"m 293 1007 q 233 1040 251 1007 q 214 1125 214 1072 q 228 1201 214 1163 q 263 1272 242 1240 q 313 1324 285 1304 q 368 1344 340 1344 q 410 1333 393 1344 q 441 1310 426 1322 q 468 1286 456 1297 q 497 1275 481 1275 q 517 1285 510 1275 q 533 1306 525 1294 q 554 1328 542 1318 q 588 1338 567 1338 q 642 1303 622 1338 q 661 1225 661 1268 q 651 1145 661 1185 q 622 1074 640 1106 q 576 1024 603 1043 q 517 1006 549 1006 q 468 1016 489 1006 q 431 1040 447 1026 q 403 1063 415 1053 q 382 1074 392 1074 q 361 1063 369 1074 q 344 1040 353 1053 q 324 1017 335 1028 q 293 1007 313 1007 m 692 -21 q 627 -8 653 -21 q 583 25 601 4 q 553 74 565 46 q 531 135 542 103 q 519 172 524 154 q 507 203 515 190 q 485 224 499 217 q 444 232 471 232 q 390 214 407 232 q 365 169 374 196 q 350 110 357 142 q 327 52 343 79 q 278 7 311 25 q 185 -11 246 -11 q 135 2 158 -11 q 92 35 111 15 q 58 79 72 54 q 36 126 44 104 q 29 159 32 140 q 25 197 26 178 q 23 236 24 217 q 22 269 22 256 q 31 415 22 336 q 58 571 39 493 q 108 722 76 649 q 188 851 140 796 q 300 941 235 907 q 450 975 365 975 q 601 942 538 975 q 708 855 664 910 q 781 729 753 800 q 824 582 808 658 q 846 428 840 506 q 851 286 851 351 q 851 247 851 267 q 850 207 850 226 q 841 133 850 174 q 813 59 832 93 q 763 2 793 25 q 692 -21 733 -21 m 450 583 q 405 560 422 583 q 388 508 388 538 q 405 467 388 481 q 446 453 422 453 q 488 473 471 453 q 504 515 504 493 q 489 560 504 536 q 450 583 474 583 z "},"":{"ha":875,"x_min":22,"x_max":851,"o":"m 315 1029 q 233 1063 263 1029 q 203 1150 203 1097 q 228 1239 203 1203 q 308 1275 254 1275 q 393 1240 363 1275 q 424 1149 424 1204 q 415 1108 424 1129 q 391 1069 406 1088 q 357 1040 376 1051 q 315 1029 338 1029 m 565 1029 q 483 1063 513 1029 q 453 1150 453 1097 q 478 1239 453 1203 q 560 1275 504 1275 q 643 1240 613 1275 q 674 1149 674 1204 q 665 1108 674 1129 q 642 1069 657 1088 q 608 1040 628 1051 q 565 1029 588 1029 m 692 -21 q 627 -8 653 -21 q 583 25 601 4 q 553 74 565 46 q 531 135 542 103 q 519 172 524 154 q 507 203 515 190 q 485 224 499 217 q 444 232 471 232 q 390 214 407 232 q 365 169 374 196 q 350 110 357 142 q 327 52 343 79 q 278 7 311 25 q 185 -11 246 -11 q 135 2 158 -11 q 92 35 111 15 q 58 79 72 54 q 36 126 44 104 q 29 159 32 140 q 25 197 26 178 q 23 236 24 217 q 22 269 22 256 q 31 415 22 336 q 58 571 39 493 q 108 722 76 649 q 188 851 140 796 q 300 941 235 907 q 450 975 365 975 q 601 942 538 975 q 708 855 664 910 q 781 729 753 800 q 824 582 808 658 q 846 428 840 506 q 851 286 851 351 q 851 247 851 267 q 850 207 850 226 q 841 133 850 174 q 813 59 832 93 q 763 2 793 25 q 692 -21 733 -21 m 450 583 q 405 560 422 583 q 388 508 388 538 q 405 467 388 481 q 446 453 422 453 q 488 473 471 453 q 504 515 504 493 q 489 560 504 536 q 450 583 474 583 z "},"":{"ha":875,"x_min":22,"x_max":851,"o":"m 692 -21 q 627 -8 653 -21 q 583 25 601 4 q 553 74 565 46 q 531 135 542 103 q 519 172 524 154 q 507 203 515 190 q 485 224 499 217 q 444 232 471 232 q 390 214 407 232 q 365 169 374 196 q 350 110 357 142 q 327 52 343 79 q 278 7 311 25 q 185 -11 246 -11 q 135 2 158 -11 q 92 35 111 15 q 58 79 72 54 q 36 126 44 104 q 29 159 32 140 q 25 197 26 178 q 23 236 24 217 q 22 269 22 256 q 29 401 22 331 q 51 544 36 472 q 93 685 67 617 q 158 811 119 754 q 249 908 196 868 q 369 965 301 949 q 233 1030 279 981 q 188 1158 188 1079 q 206 1251 188 1208 q 256 1323 224 1293 q 333 1370 289 1353 q 432 1388 378 1388 q 533 1370 486 1388 q 615 1324 581 1353 q 669 1254 650 1294 q 689 1168 689 1214 q 641 1041 689 1093 q 514 969 593 989 q 640 919 586 957 q 731 826 693 881 q 792 703 768 771 q 828 563 815 635 q 847 419 842 490 q 851 286 851 347 q 851 247 851 267 q 850 207 850 226 q 841 133 850 174 q 813 59 832 93 q 763 2 793 25 q 692 -21 733 -21 m 425 1126 q 472 1140 456 1126 q 489 1168 489 1153 q 475 1193 489 1182 q 436 1204 461 1204 q 397 1192 411 1204 q 382 1165 382 1181 q 394 1140 382 1153 q 425 1126 406 1126 m 450 583 q 405 560 422 583 q 388 508 388 538 q 405 467 388 481 q 446 453 422 453 q 488 473 471 453 q 504 515 504 493 q 489 560 504 536 q 450 583 474 583 z "},"":{"ha":1319,"x_min":22,"x_max":1297,"o":"m 692 -21 q 627 -8 653 -21 q 583 25 601 4 q 553 74 565 46 q 531 135 542 103 q 519 172 524 154 q 507 203 515 190 q 485 224 499 217 q 444 232 471 232 q 390 214 407 232 q 365 169 374 196 q 350 110 357 142 q 327 52 343 79 q 278 7 311 25 q 185 -11 246 -11 q 135 2 158 -11 q 92 35 111 15 q 58 79 72 54 q 36 126 44 104 q 29 159 32 140 q 25 197 26 178 q 23 236 24 217 q 22 269 22 256 q 31 415 22 336 q 58 571 39 493 q 108 722 76 649 q 188 851 140 796 q 300 941 235 907 q 450 975 365 975 q 569 956 517 975 q 663 901 622 936 q 792 971 715 946 q 964 996 868 996 q 1090 980 1029 996 q 1196 935 1150 964 q 1269 866 1242 906 q 1297 778 1297 826 q 1273 699 1297 725 q 1211 665 1249 674 q 1131 656 1174 656 q 1051 657 1089 657 q 990 651 1014 657 q 965 619 965 644 q 983 590 965 599 q 1027 578 1001 581 q 1081 578 1053 576 q 1131 581 1110 581 q 1179 571 1160 581 q 1210 546 1199 561 q 1225 511 1221 531 q 1229 471 1229 492 q 1224 430 1229 450 q 1206 393 1219 410 q 1167 366 1192 376 q 1103 356 1142 356 q 1063 356 1083 356 q 1025 355 1042 357 q 998 345 1008 353 q 988 322 988 338 q 1002 290 988 303 q 1040 278 1017 278 q 1077 282 1056 278 q 1126 286 1099 286 q 1250 247 1203 286 q 1297 142 1297 207 q 1208 10 1297 57 q 964 -36 1119 -36 q 919 -36 946 -36 q 860 -35 892 -36 q 795 -29 829 -33 q 728 -15 761 -25 q 692 -21 713 -21 m 450 583 q 405 560 422 583 q 388 508 388 538 q 405 467 388 481 q 446 453 422 453 q 488 473 471 453 q 504 515 504 493 q 489 560 504 536 q 450 583 474 583 z "},"":{"ha":850,"x_min":13,"x_max":826,"o":"m 826 636 q 783 524 826 565 q 669 482 739 482 q 619 487 644 482 q 574 502 594 492 q 540 529 553 513 q 528 568 528 546 q 522 599 528 588 q 506 617 515 611 q 483 626 496 624 q 457 628 471 628 q 408 587 432 628 q 383 463 383 546 q 408 352 383 385 q 467 319 432 319 q 551 374 533 319 q 606 426 565 413 q 693 440 646 440 q 826 294 822 440 l 826 286 q 804 174 826 226 q 742 78 782 121 q 648 6 703 36 q 528 -37 593 -24 q 561 -65 544 -53 q 592 -90 578 -76 q 614 -122 606 -104 q 622 -168 622 -140 q 601 -255 622 -217 q 547 -319 581 -293 q 467 -360 513 -346 q 374 -375 422 -375 q 272 -349 315 -375 q 229 -264 229 -324 q 253 -197 229 -218 q 305 -167 276 -176 q 357 -154 333 -158 q 381 -137 381 -150 q 369 -120 381 -129 q 345 -99 358 -111 q 321 -71 332 -87 q 310 -31 310 -54 q 91 142 169 10 q 13 476 13 274 q 41 692 13 596 q 122 856 69 789 q 248 960 174 924 q 414 996 322 996 q 572 967 497 996 q 703 889 647 938 q 793 775 760 840 q 826 636 826 710 z "},"":{"ha":792,"x_min":14,"x_max":769,"o":"m 467 1000 q 389 1024 432 1000 q 307 1081 346 1047 q 241 1156 268 1115 q 211 1229 214 1196 q 220 1271 210 1251 q 247 1305 231 1290 q 286 1328 264 1319 q 329 1336 308 1336 q 371 1326 350 1336 q 407 1293 392 1315 q 453 1233 431 1257 q 503 1176 475 1208 q 532 1146 517 1161 q 567 1111 547 1131 q 582 1078 581 1096 q 553 1025 585 1050 q 467 1000 522 1000 m 14 221 q 58 359 14 299 q 168 447 103 419 q 195 459 185 454 q 206 471 206 464 q 197 481 206 476 q 175 492 188 485 q 122 526 147 504 q 76 577 96 549 q 46 639 57 606 q 35 707 35 672 q 63 818 35 765 q 144 910 92 871 q 271 973 197 950 q 436 996 344 996 q 562 980 501 996 q 668 935 622 964 q 742 866 714 906 q 769 778 769 826 q 745 699 769 725 q 683 665 721 674 q 603 656 646 656 q 524 657 561 657 q 462 651 486 657 q 438 619 438 644 q 456 590 438 599 q 499 578 474 581 q 553 578 525 576 q 603 581 582 581 q 651 571 632 581 q 682 546 671 561 q 697 511 693 531 q 701 471 701 492 q 697 430 701 450 q 678 393 692 410 q 639 366 664 376 q 575 356 614 356 q 535 356 556 356 q 497 355 514 357 q 470 345 481 353 q 460 322 460 338 q 474 290 460 303 q 513 278 489 278 q 549 282 528 278 q 599 286 571 286 q 722 247 675 286 q 769 142 769 207 q 681 10 769 57 q 436 -36 592 -36 q 369 -36 410 -36 q 281 -31 328 -36 q 186 -11 233 -25 q 101 32 139 3 q 38 107 63 61 q 14 221 14 153 z "},"":{"ha":792,"x_min":14,"x_max":769,"o":"m 332 999 q 290 1004 313 999 q 249 1020 268 1010 q 218 1047 231 1031 q 206 1083 206 1063 q 218 1117 206 1103 q 298 1211 256 1167 q 374 1310 340 1256 q 405 1342 388 1331 q 450 1353 422 1353 q 499 1344 475 1353 q 543 1319 524 1335 q 574 1283 563 1303 q 586 1239 586 1263 q 560 1164 586 1206 q 497 1085 535 1122 q 414 1024 458 1049 q 332 999 369 999 m 14 221 q 58 359 14 299 q 168 447 103 419 q 195 459 185 454 q 206 471 206 464 q 197 481 206 476 q 175 492 188 485 q 122 526 147 504 q 76 577 96 549 q 46 639 57 606 q 35 707 35 672 q 63 818 35 765 q 144 910 92 871 q 271 973 197 950 q 436 996 344 996 q 562 980 501 996 q 668 935 622 964 q 742 866 714 906 q 769 778 769 826 q 745 699 769 725 q 683 665 721 674 q 603 656 646 656 q 524 657 561 657 q 462 651 486 657 q 438 619 438 644 q 456 590 438 599 q 499 578 474 581 q 553 578 525 576 q 603 581 582 581 q 651 571 632 581 q 682 546 671 561 q 697 511 693 531 q 701 471 701 492 q 697 430 701 450 q 678 393 692 410 q 639 366 664 376 q 575 356 614 356 q 535 356 556 356 q 497 355 514 357 q 470 345 481 353 q 460 322 460 338 q 474 290 460 303 q 513 278 489 278 q 549 282 528 278 q 599 286 571 286 q 722 247 675 286 q 769 142 769 207 q 681 10 769 57 q 436 -36 592 -36 q 369 -36 410 -36 q 281 -31 328 -36 q 186 -11 233 -25 q 101 32 139 3 q 38 107 63 61 q 14 221 14 153 z "},"":{"ha":792,"x_min":14,"x_max":769,"o":"m 407 1344 q 502 1314 460 1344 q 574 1239 544 1283 q 619 1142 603 1194 q 635 1047 635 1090 q 624 1022 635 1033 q 599 1003 614 1011 q 568 992 585 996 q 539 988 551 988 q 485 1003 506 988 q 449 1042 464 1019 q 422 1092 433 1065 q 396 1139 410 1118 q 372 1108 376 1133 q 360 1056 367 1083 q 336 1005 354 1028 q 272 982 318 982 q 192 1006 228 982 q 157 1074 157 1029 q 176 1171 157 1122 q 228 1258 194 1219 q 307 1321 261 1297 q 407 1344 353 1344 m 14 221 q 58 359 14 299 q 168 447 103 419 q 195 459 185 454 q 206 471 206 464 q 197 481 206 476 q 175 492 188 485 q 122 526 147 504 q 76 577 96 549 q 46 639 57 606 q 35 707 35 672 q 63 818 35 765 q 144 910 92 871 q 271 973 197 950 q 436 996 344 996 q 562 980 501 996 q 668 935 622 964 q 742 866 714 906 q 769 778 769 826 q 745 699 769 725 q 683 665 721 674 q 603 656 646 656 q 524 657 561 657 q 462 651 486 657 q 438 619 438 644 q 456 590 438 599 q 499 578 474 581 q 553 578 525 576 q 603 581 582 581 q 651 571 632 581 q 682 546 671 561 q 697 511 693 531 q 701 471 701 492 q 697 430 701 450 q 678 393 692 410 q 639 366 664 376 q 575 356 614 356 q 535 356 556 356 q 497 355 514 357 q 470 345 481 353 q 460 322 460 338 q 474 290 460 303 q 513 278 489 278 q 549 282 528 278 q 599 286 571 286 q 722 247 675 286 q 769 142 769 207 q 681 10 769 57 q 436 -36 592 -36 q 369 -36 410 -36 q 281 -31 328 -36 q 186 -11 233 -25 q 101 32 139 3 q 38 107 63 61 q 14 221 14 153 z "},"":{"ha":792,"x_min":14,"x_max":769,"o":"m 274 1029 q 191 1063 221 1029 q 161 1150 161 1097 q 187 1239 161 1203 q 267 1275 213 1275 q 351 1240 321 1275 q 382 1149 382 1204 q 373 1108 382 1129 q 349 1069 364 1088 q 315 1040 335 1051 q 274 1029 296 1029 m 524 1029 q 441 1063 471 1029 q 411 1150 411 1097 q 437 1239 411 1203 q 518 1275 463 1275 q 601 1240 571 1275 q 632 1149 632 1204 q 624 1108 632 1129 q 601 1069 615 1088 q 566 1040 586 1051 q 524 1029 546 1029 m 14 221 q 58 359 14 299 q 168 447 103 419 q 195 459 185 454 q 206 471 206 464 q 197 481 206 476 q 175 492 188 485 q 122 526 147 504 q 76 577 96 549 q 46 639 57 606 q 35 707 35 672 q 63 818 35 765 q 144 910 92 871 q 271 973 197 950 q 436 996 344 996 q 562 980 501 996 q 668 935 622 964 q 742 866 714 906 q 769 778 769 826 q 745 699 769 725 q 683 665 721 674 q 603 656 646 656 q 524 657 561 657 q 462 651 486 657 q 438 619 438 644 q 456 590 438 599 q 499 578 474 581 q 553 578 525 576 q 603 581 582 581 q 651 571 632 581 q 682 546 671 561 q 697 511 693 531 q 701 471 701 492 q 697 430 701 450 q 678 393 692 410 q 639 366 664 376 q 575 356 614 356 q 535 356 556 356 q 497 355 514 357 q 470 345 481 353 q 460 322 460 338 q 474 290 460 303 q 513 278 489 278 q 549 282 528 278 q 599 286 571 286 q 722 247 675 286 q 769 142 769 207 q 681 10 769 57 q 436 -36 592 -36 q 369 -36 410 -36 q 281 -31 328 -36 q 186 -11 233 -25 q 101 32 139 3 q 38 107 63 61 q 14 221 14 153 z "},"":{"ha":576,"x_min":13,"x_max":553,"o":"m 358 1000 q 281 1024 324 1000 q 199 1081 238 1047 q 133 1156 160 1115 q 103 1229 106 1196 q 112 1271 101 1251 q 139 1305 122 1290 q 178 1328 156 1319 q 221 1336 200 1336 q 263 1326 242 1336 q 299 1293 283 1315 q 344 1233 322 1257 q 394 1176 367 1208 q 424 1146 408 1161 q 458 1111 439 1131 q 474 1078 472 1096 q 445 1025 476 1050 q 358 1000 414 1000 m 299 0 q 199 5 250 0 q 108 23 149 10 q 41 60 67 36 q 15 122 15 85 q 22 152 15 138 q 40 178 29 167 q 61 197 50 190 q 82 204 72 204 q 108 226 97 204 q 124 285 118 249 q 131 374 128 318 q 133 481 133 429 q 131 600 133 543 q 124 693 129 657 q 107 729 119 725 q 71 733 94 733 q 31 760 49 733 q 13 829 13 786 q 35 903 13 872 q 97 956 58 935 q 188 986 136 976 q 299 996 240 996 q 487 952 421 996 q 553 833 553 908 q 532 769 553 789 q 475 750 511 750 q 458 731 465 750 q 447 680 451 711 q 440 612 443 649 q 436 540 438 575 q 435 476 435 504 q 435 435 435 447 q 435 393 435 428 q 440 319 436 358 q 453 248 444 279 q 475 217 461 217 q 502 209 489 217 q 526 189 515 201 q 542 161 536 176 q 549 131 549 146 q 483 31 549 63 q 299 0 417 0 z "},"":{"ha":576,"x_min":13,"x_max":553,"o":"m 225 999 q 183 1004 206 999 q 142 1020 161 1010 q 111 1047 124 1031 q 99 1083 99 1063 q 111 1117 99 1103 q 191 1211 149 1167 q 267 1310 233 1256 q 298 1342 281 1331 q 343 1353 315 1353 q 392 1344 368 1353 q 436 1319 417 1335 q 467 1283 456 1303 q 479 1239 479 1263 q 453 1164 479 1206 q 390 1085 428 1122 q 307 1024 351 1049 q 225 999 263 999 m 299 0 q 199 5 250 0 q 108 23 149 10 q 41 60 67 36 q 15 122 15 85 q 22 152 15 138 q 40 178 29 167 q 61 197 50 190 q 82 204 72 204 q 108 226 97 204 q 124 285 118 249 q 131 374 128 318 q 133 481 133 429 q 131 600 133 543 q 124 693 129 657 q 107 729 119 725 q 71 733 94 733 q 31 760 49 733 q 13 829 13 786 q 35 903 13 872 q 97 956 58 935 q 188 986 136 976 q 299 996 240 996 q 487 952 421 996 q 553 833 553 908 q 532 769 553 789 q 475 750 511 750 q 458 731 465 750 q 447 680 451 711 q 440 612 443 649 q 436 540 438 575 q 435 476 435 504 q 435 435 435 447 q 435 393 435 428 q 440 319 436 358 q 453 248 444 279 q 475 217 461 217 q 502 209 489 217 q 526 189 515 201 q 542 161 536 176 q 549 131 549 146 q 483 31 549 63 q 299 0 417 0 z "},"":{"ha":576,"x_min":13,"x_max":553,"o":"m 299 0 q 199 5 250 0 q 108 23 149 10 q 41 60 67 36 q 15 122 15 85 q 22 152 15 138 q 40 178 29 167 q 61 197 50 190 q 82 204 72 204 q 108 226 97 204 q 124 285 118 249 q 131 374 128 318 q 133 481 133 429 q 131 600 133 543 q 124 693 129 657 q 107 729 119 725 q 71 733 94 733 q 31 760 49 733 q 13 829 13 786 q 56 928 13 890 q 169 982 100 965 l 165 982 q 85 1006 121 982 q 50 1074 50 1029 q 69 1171 50 1122 q 121 1258 88 1219 q 200 1321 154 1297 q 300 1344 246 1344 q 395 1314 353 1344 q 467 1239 438 1283 q 512 1142 496 1194 q 528 1047 528 1090 q 517 1022 528 1033 q 492 1003 507 1011 q 461 992 478 996 q 432 988 444 988 q 378 1003 399 988 q 342 1042 357 1019 q 315 1092 326 1065 q 289 1139 303 1118 q 267 1115 272 1135 q 257 1070 261 1094 q 243 1023 253 1046 q 207 989 233 1000 q 252 994 229 992 q 299 996 275 996 q 487 952 421 996 q 553 833 553 908 q 532 769 553 789 q 475 750 511 750 q 458 731 465 750 q 447 680 451 711 q 440 612 443 649 q 436 540 438 575 q 435 476 435 504 q 435 435 435 447 q 435 393 435 428 q 440 319 436 358 q 453 248 444 279 q 475 217 461 217 q 502 209 489 217 q 526 189 515 201 q 542 161 536 176 q 549 131 549 146 q 483 31 549 63 q 299 0 417 0 z "},"":{"ha":576,"x_min":13,"x_max":553,"o":"m 165 1029 q 83 1063 113 1029 q 53 1150 53 1097 q 78 1239 53 1203 q 158 1275 104 1275 q 243 1240 213 1275 q 274 1149 274 1204 q 265 1108 274 1129 q 241 1069 256 1088 q 207 1040 226 1051 q 165 1029 188 1029 m 415 1029 q 333 1063 363 1029 q 303 1150 303 1097 q 328 1239 303 1203 q 410 1275 354 1275 q 493 1240 463 1275 q 524 1149 524 1204 q 515 1108 524 1129 q 492 1069 507 1088 q 458 1040 478 1051 q 415 1029 438 1029 m 299 0 q 199 5 250 0 q 108 23 149 10 q 41 60 67 36 q 15 122 15 85 q 22 152 15 138 q 40 178 29 167 q 61 197 50 190 q 82 204 72 204 q 108 226 97 204 q 124 285 118 249 q 131 374 128 318 q 133 481 133 429 q 131 600 133 543 q 124 693 129 657 q 107 729 119 725 q 71 733 94 733 q 31 760 49 733 q 13 829 13 786 q 35 903 13 872 q 97 956 58 935 q 188 986 136 976 q 299 996 240 996 q 487 952 421 996 q 553 833 553 908 q 532 769 553 789 q 475 750 511 750 q 458 731 465 750 q 447 680 451 711 q 440 612 443 649 q 436 540 438 575 q 435 476 435 504 q 435 435 435 447 q 435 393 435 428 q 440 319 436 358 q 453 248 444 279 q 475 217 461 217 q 502 209 489 217 q 526 189 515 201 q 542 161 536 176 q 549 131 549 146 q 483 31 549 63 q 299 0 417 0 z "},"":{"ha":890,"x_min":28,"x_max":863,"o":"m 28 335 q 48 433 28 385 q 107 520 68 482 q 203 582 146 558 q 332 606 260 606 q 387 599 363 606 q 439 588 411 592 q 430 606 436 596 q 417 627 424 617 q 402 644 410 638 q 388 653 394 651 q 337 638 361 646 q 285 631 313 631 q 249 638 265 631 q 219 658 232 646 q 200 684 207 669 q 193 713 193 699 q 197 726 193 717 q 206 747 200 736 q 219 767 211 757 q 236 781 226 776 q 216 797 228 788 q 192 817 204 806 q 172 839 181 828 q 164 858 164 850 q 204 928 164 906 q 303 951 244 951 q 344 947 321 951 q 389 935 368 942 q 439 917 414 926 q 457 922 447 917 q 478 933 467 926 q 504 944 490 939 q 535 949 518 949 q 567 941 553 949 q 593 922 582 933 q 610 896 604 910 q 617 871 617 882 q 610 842 617 856 q 594 814 604 828 q 695 710 647 765 q 781 594 743 654 q 840 472 818 535 q 863 344 863 408 q 833 206 863 274 q 750 84 804 138 q 617 -2 696 31 q 440 -35 539 -35 q 267 -3 343 -35 q 138 81 190 29 q 56 199 85 133 q 28 335 28 265 m 451 397 q 410 374 425 397 q 394 328 394 351 q 407 286 394 307 q 444 265 419 265 q 486 287 471 265 q 501 333 501 308 q 488 376 501 354 q 451 397 475 397 z "},"":{"ha":965,"x_min":22,"x_max":938,"o":"m 339 1007 q 278 1040 297 1007 q 260 1125 260 1072 q 274 1201 260 1163 q 309 1272 288 1240 q 358 1324 331 1304 q 414 1344 386 1344 q 456 1333 439 1344 q 487 1310 472 1322 q 514 1286 501 1297 q 543 1275 526 1275 q 563 1285 556 1275 q 579 1306 571 1294 q 600 1328 588 1318 q 633 1338 613 1338 q 688 1303 668 1338 q 707 1225 707 1268 q 697 1145 707 1185 q 667 1074 686 1106 q 622 1024 649 1043 q 563 1006 594 1006 q 514 1016 535 1006 q 477 1040 493 1026 q 449 1063 461 1053 q 428 1074 438 1074 q 407 1063 415 1074 q 390 1040 399 1053 q 369 1017 381 1028 q 339 1007 358 1007 m 728 -32 q 652 0 689 -32 q 582 80 615 32 q 519 184 549 128 q 465 288 489 240 q 424 368 442 336 q 399 400 407 400 q 378 381 378 400 q 384 338 378 361 q 399 288 390 314 q 413 233 407 263 q 419 175 419 204 q 413 113 419 149 q 393 44 407 76 q 356 -10 379 13 q 297 -33 332 -33 q 188 -1 233 -33 q 113 85 143 32 q 64 206 82 139 q 37 340 46 272 q 25 469 28 407 q 22 575 22 532 q 36 700 22 632 q 80 827 50 768 q 158 926 110 886 q 278 967 207 967 q 374 931 331 967 q 451 842 417 894 q 511 733 486 790 q 554 636 536 676 q 559 626 556 635 q 567 607 563 617 q 577 590 572 597 q 585 582 582 582 q 596 599 593 582 q 599 622 599 617 q 593 667 599 644 q 581 710 588 689 q 569 754 575 732 q 564 799 564 776 q 573 867 564 833 q 601 926 582 900 q 649 967 619 951 q 717 983 678 983 q 791 961 758 983 q 849 903 824 939 q 890 822 874 867 q 917 731 907 776 q 933 642 928 685 q 938 569 938 600 q 937 475 938 533 q 931 349 936 417 q 913 215 925 282 q 876 92 900 147 q 817 3 853 38 q 728 -32 781 -32 z "},"":{"ha":947,"x_min":32,"x_max":926,"o":"m 544 1000 q 467 1024 510 1000 q 385 1081 424 1047 q 319 1156 346 1115 q 289 1229 292 1196 q 298 1271 288 1251 q 325 1305 308 1290 q 364 1328 342 1319 q 407 1336 386 1336 q 449 1326 428 1336 q 485 1293 469 1315 q 531 1233 508 1257 q 581 1176 553 1208 q 610 1146 594 1161 q 644 1111 625 1131 q 660 1078 658 1096 q 631 1025 663 1050 q 544 1000 600 1000 m 926 471 q 892 259 926 353 q 797 101 858 165 q 650 2 736 36 q 461 -32 564 -32 q 276 3 357 -32 q 142 105 196 39 q 60 266 88 171 q 32 481 32 361 q 64 697 32 606 q 156 849 96 789 q 300 938 215 908 q 490 967 385 967 q 667 934 588 967 q 805 838 747 901 q 894 683 863 775 q 926 471 926 590 m 474 339 q 536 378 513 339 q 560 476 560 417 q 553 533 560 506 q 535 581 547 560 q 508 613 524 601 q 474 625 493 625 q 438 612 454 625 q 408 577 421 599 q 388 527 396 556 q 381 468 381 499 q 408 374 381 410 q 474 339 436 339 z "},"":{"ha":947,"x_min":32,"x_max":926,"o":"m 410 999 q 368 1004 390 999 q 327 1020 346 1010 q 296 1047 308 1031 q 283 1083 283 1063 q 296 1117 283 1103 q 376 1211 333 1167 q 451 1310 418 1256 q 483 1342 465 1331 q 528 1353 500 1353 q 577 1344 553 1353 q 621 1319 601 1335 q 652 1283 640 1303 q 664 1239 664 1263 q 638 1164 664 1206 q 574 1085 613 1122 q 492 1024 536 1049 q 410 999 447 999 m 926 471 q 892 259 926 353 q 797 101 858 165 q 650 2 736 36 q 461 -32 564 -32 q 276 3 357 -32 q 142 105 196 39 q 60 266 88 171 q 32 481 32 361 q 64 697 32 606 q 156 849 96 789 q 300 938 215 908 q 490 967 385 967 q 667 934 588 967 q 805 838 747 901 q 894 683 863 775 q 926 471 926 590 m 474 339 q 536 378 513 339 q 560 476 560 417 q 553 533 560 506 q 535 581 547 560 q 508 613 524 601 q 474 625 493 625 q 438 612 454 625 q 408 577 421 599 q 388 527 396 556 q 381 468 381 499 q 408 374 381 410 q 474 339 436 339 z "},"":{"ha":947,"x_min":32,"x_max":926,"o":"m 485 1344 q 580 1314 538 1344 q 651 1239 622 1283 q 697 1142 681 1194 q 713 1047 713 1090 q 702 1022 713 1033 q 677 1003 692 1011 q 646 992 663 996 q 617 988 629 988 q 563 1003 583 988 q 526 1042 542 1019 q 499 1092 511 1065 q 474 1139 488 1118 q 449 1108 454 1133 q 438 1056 444 1083 q 414 1005 432 1028 q 350 982 396 982 q 270 1006 306 982 q 235 1074 235 1029 q 253 1171 235 1122 q 306 1258 272 1219 q 385 1321 339 1297 q 485 1344 431 1344 m 926 471 q 892 259 926 353 q 797 101 858 165 q 650 2 736 36 q 461 -32 564 -32 q 276 3 357 -32 q 142 105 196 39 q 60 266 88 171 q 32 481 32 361 q 64 697 32 606 q 156 849 96 789 q 300 938 215 908 q 490 967 385 967 q 667 934 588 967 q 805 838 747 901 q 894 683 863 775 q 926 471 926 590 m 474 339 q 536 378 513 339 q 560 476 560 417 q 553 533 560 506 q 535 581 547 560 q 508 613 524 601 q 474 625 493 625 q 438 612 454 625 q 408 577 421 599 q 388 527 396 556 q 381 468 381 499 q 408 374 381 410 q 474 339 436 339 z "},"":{"ha":947,"x_min":32,"x_max":926,"o":"m 329 1007 q 269 1040 288 1007 q 250 1125 250 1072 q 264 1201 250 1163 q 299 1272 278 1240 q 349 1324 321 1304 q 404 1344 376 1344 q 446 1333 429 1344 q 477 1310 463 1322 q 504 1286 492 1297 q 533 1275 517 1275 q 553 1285 546 1275 q 569 1306 561 1294 q 590 1328 578 1318 q 624 1338 603 1338 q 678 1303 658 1338 q 697 1225 697 1268 q 687 1145 697 1185 q 658 1074 676 1106 q 612 1024 639 1043 q 553 1006 585 1006 q 504 1016 525 1006 q 467 1040 483 1026 q 440 1063 451 1053 q 418 1074 428 1074 q 397 1063 406 1074 q 380 1040 389 1053 q 360 1017 371 1028 q 329 1007 349 1007 m 926 471 q 892 259 926 353 q 797 101 858 165 q 650 2 736 36 q 461 -32 564 -32 q 276 3 357 -32 q 142 105 196 39 q 60 266 88 171 q 32 481 32 361 q 64 697 32 606 q 156 849 96 789 q 300 938 215 908 q 490 967 385 967 q 667 934 588 967 q 805 838 747 901 q 894 683 863 775 q 926 471 926 590 m 474 339 q 536 378 513 339 q 560 476 560 417 q 553 533 560 506 q 535 581 547 560 q 508 613 524 601 q 474 625 493 625 q 438 612 454 625 q 408 577 421 599 q 388 527 396 556 q 381 468 381 499 q 408 374 381 410 q 474 339 436 339 z "},"":{"ha":947,"x_min":32,"x_max":926,"o":"m 351 1029 q 269 1063 299 1029 q 239 1150 239 1097 q 265 1239 239 1203 q 344 1275 290 1275 q 429 1240 399 1275 q 460 1149 460 1204 q 451 1108 460 1129 q 427 1069 442 1088 q 393 1040 413 1051 q 351 1029 374 1029 m 601 1029 q 519 1063 549 1029 q 489 1150 489 1097 q 515 1239 489 1203 q 596 1275 540 1275 q 679 1240 649 1275 q 710 1149 710 1204 q 701 1108 710 1129 q 678 1069 693 1088 q 644 1040 664 1051 q 601 1029 624 1029 m 926 471 q 892 259 926 353 q 797 101 858 165 q 650 2 736 36 q 461 -32 564 -32 q 276 3 357 -32 q 142 105 196 39 q 60 266 88 171 q 32 481 32 361 q 64 697 32 606 q 156 849 96 789 q 300 938 215 908 q 490 967 385 967 q 667 934 588 967 q 805 838 747 901 q 894 683 863 775 q 926 471 926 590 m 474 339 q 536 378 513 339 q 560 476 560 417 q 553 533 560 506 q 535 581 547 560 q 508 613 524 601 q 474 625 493 625 q 438 612 454 625 q 408 577 421 599 q 388 527 396 556 q 381 468 381 499 q 408 374 381 410 q 474 339 436 339 z "},"":{"ha":721,"x_min":31,"x_max":686,"o":"m 360 625 q 247 662 289 625 q 206 761 206 699 q 215 817 206 790 q 244 863 225 843 q 291 896 263 883 q 357 908 319 908 q 468 873 424 908 q 513 761 513 838 q 501 710 513 735 q 471 666 490 685 q 423 636 451 647 q 360 625 394 625 m 347 361 q 214 363 272 361 q 115 376 156 365 q 52 410 74 388 q 31 475 31 433 q 49 547 31 521 q 102 585 68 572 q 184 600 136 597 q 290 603 232 603 l 411 603 q 440 603 426 603 q 469 604 454 604 q 556 600 517 604 q 625 582 596 596 q 670 542 654 568 q 686 471 686 515 q 667 411 686 433 q 615 378 649 389 q 533 364 581 367 q 426 361 485 361 l 347 361 m 367 50 q 254 88 296 50 q 213 188 213 125 q 222 242 213 215 q 251 288 232 268 q 298 321 269 308 q 364 333 326 333 q 474 299 431 333 q 518 188 518 264 q 477 91 518 132 q 367 50 436 50 z "},"":{"ha":947,"x_min":32,"x_max":926,"o":"m 326 -106 q 225 -76 268 -106 q 182 0 182 -46 q 183 29 182 14 q 185 60 183 44 q 71 232 110 126 q 32 481 32 338 q 60 687 32 599 q 142 835 89 775 q 272 927 196 894 q 443 965 349 960 q 474 1017 458 996 q 501 1046 489 1039 q 519 1056 507 1049 q 548 1071 531 1064 q 588 1083 565 1078 q 638 1089 611 1089 q 756 1053 708 1089 q 803 942 803 1017 q 799 908 803 931 q 789 856 796 885 q 890 696 854 792 q 926 471 926 600 q 895 267 926 357 q 808 113 864 176 q 672 12 751 49 q 497 -31 593 -25 q 422 -90 468 -75 q 326 -106 376 -106 m 474 339 q 536 378 513 339 q 560 476 560 417 q 553 533 560 506 q 535 581 547 560 q 508 613 524 601 q 474 625 493 625 q 438 612 454 625 q 408 577 421 599 q 388 527 396 556 q 381 468 381 499 q 408 374 381 410 q 474 339 436 339 z "},"":{"ha":896,"x_min":14,"x_max":882,"o":"m 518 1000 q 440 1024 483 1000 q 358 1081 397 1047 q 292 1156 319 1115 q 263 1229 265 1196 q 272 1271 261 1251 q 299 1305 282 1290 q 338 1328 315 1319 q 381 1336 360 1336 q 422 1326 401 1336 q 458 1293 443 1315 q 504 1233 482 1257 q 554 1176 526 1208 q 583 1146 568 1161 q 618 1111 599 1131 q 633 1078 632 1096 q 605 1025 636 1050 q 518 1000 574 1000 m 449 -24 q 118 117 222 -24 q 14 542 14 258 q 32 719 14 640 q 82 852 50 797 q 160 937 114 907 q 261 967 206 967 q 399 790 399 967 q 395 731 399 760 q 387 672 392 703 q 378 608 382 642 q 375 535 375 575 q 376 481 375 521 q 382 397 376 440 q 401 321 388 354 q 440 288 415 288 q 497 357 476 288 q 517 546 517 426 q 510 693 517 629 q 503 807 503 757 q 532 928 503 890 q 626 967 561 967 q 813 858 743 967 q 882 546 882 749 q 852 311 882 417 q 766 131 822 206 q 629 17 710 57 q 449 -24 549 -24 z "},"":{"ha":896,"x_min":14,"x_max":882,"o":"m 385 999 q 343 1004 365 999 q 302 1020 321 1010 q 271 1047 283 1031 q 258 1083 258 1063 q 271 1117 258 1103 q 351 1211 308 1167 q 426 1310 393 1256 q 458 1342 440 1331 q 503 1353 475 1353 q 552 1344 528 1353 q 596 1319 576 1335 q 627 1283 615 1303 q 639 1239 639 1263 q 613 1164 639 1206 q 549 1085 588 1122 q 467 1024 511 1049 q 385 999 422 999 m 449 -24 q 118 117 222 -24 q 14 542 14 258 q 32 719 14 640 q 82 852 50 797 q 160 937 114 907 q 261 967 206 967 q 399 790 399 967 q 395 731 399 760 q 387 672 392 703 q 378 608 382 642 q 375 535 375 575 q 376 481 375 521 q 382 397 376 440 q 401 321 388 354 q 440 288 415 288 q 497 357 476 288 q 517 546 517 426 q 510 693 517 629 q 503 807 503 757 q 532 928 503 890 q 626 967 561 967 q 813 858 743 967 q 882 546 882 749 q 852 311 882 417 q 766 131 822 206 q 629 17 710 57 q 449 -24 549 -24 z "},"":{"ha":896,"x_min":14,"x_max":882,"o":"m 460 1344 q 555 1314 513 1344 q 626 1239 597 1283 q 672 1142 656 1194 q 688 1047 688 1090 q 677 1022 688 1033 q 652 1003 667 1011 q 621 992 638 996 q 592 988 604 988 q 538 1003 558 988 q 501 1042 517 1019 q 474 1092 486 1065 q 449 1139 463 1118 q 424 1108 429 1133 q 413 1056 419 1083 q 389 1005 407 1028 q 325 982 371 982 q 245 1006 281 982 q 210 1074 210 1029 q 228 1171 210 1122 q 281 1258 247 1219 q 360 1321 314 1297 q 460 1344 406 1344 m 449 -24 q 118 117 222 -24 q 14 542 14 258 q 32 719 14 640 q 82 852 50 797 q 160 937 114 907 q 261 967 206 967 q 399 790 399 967 q 395 731 399 760 q 387 672 392 703 q 378 608 382 642 q 375 535 375 575 q 376 481 375 521 q 382 397 376 440 q 401 321 388 354 q 440 288 415 288 q 497 357 476 288 q 517 546 517 426 q 510 693 517 629 q 503 807 503 757 q 532 928 503 890 q 626 967 561 967 q 813 858 743 967 q 882 546 882 749 q 852 311 882 417 q 766 131 822 206 q 629 17 710 57 q 449 -24 549 -24 z "},"":{"ha":896,"x_min":14,"x_max":882,"o":"m 325 1029 q 242 1063 272 1029 q 213 1150 213 1097 q 238 1239 213 1203 q 318 1275 264 1275 q 403 1240 372 1275 q 433 1149 433 1204 q 424 1108 433 1129 q 401 1069 415 1088 q 367 1040 386 1051 q 325 1029 347 1029 m 575 1029 q 492 1063 522 1029 q 463 1150 463 1097 q 488 1239 463 1203 q 569 1275 514 1275 q 653 1240 622 1275 q 683 1149 683 1204 q 675 1108 683 1129 q 652 1069 667 1088 q 617 1040 638 1051 q 575 1029 597 1029 m 449 -24 q 118 117 222 -24 q 14 542 14 258 q 32 719 14 640 q 82 852 50 797 q 160 937 114 907 q 261 967 206 967 q 399 790 399 967 q 395 731 399 760 q 387 672 392 703 q 378 608 382 642 q 375 535 375 575 q 376 481 375 521 q 382 397 376 440 q 401 321 388 354 q 440 288 415 288 q 497 357 476 288 q 517 546 517 426 q 510 693 517 629 q 503 807 503 757 q 532 928 503 890 q 626 967 561 967 q 813 858 743 967 q 882 546 882 749 q 852 311 882 417 q 766 131 822 206 q 629 17 710 57 q 449 -24 549 -24 z "},"":{"ha":806,"x_min":17,"x_max":788,"o":"m 339 999 q 297 1004 319 999 q 256 1020 275 1010 q 225 1047 238 1031 q 213 1083 213 1063 q 225 1117 213 1103 q 305 1211 263 1167 q 381 1310 347 1256 q 412 1342 394 1331 q 457 1353 429 1353 q 506 1344 482 1353 q 550 1319 531 1335 q 581 1283 569 1303 q 593 1239 593 1263 q 567 1164 593 1206 q 503 1085 542 1122 q 421 1024 465 1049 q 339 999 376 999 m 408 -47 q 320 -33 360 -47 q 253 8 281 -18 q 212 68 226 33 q 197 142 197 103 q 203 189 197 169 q 217 226 210 208 q 230 263 224 244 q 236 308 236 282 q 220 358 236 336 q 179 403 204 379 q 126 455 154 426 q 74 522 99 483 q 33 615 49 561 q 17 742 17 668 q 31 845 17 803 q 69 915 46 888 q 123 954 93 942 q 185 967 153 967 q 273 948 238 967 q 330 897 308 929 q 361 821 351 865 q 371 726 371 776 q 374 682 371 704 q 382 642 376 660 q 394 614 388 625 q 410 603 401 603 q 440 642 429 603 q 451 739 451 681 q 462 819 451 779 q 494 892 472 860 q 553 946 517 925 q 642 967 590 967 q 701 956 674 967 q 747 918 728 944 q 777 849 767 892 q 788 744 788 807 q 756 591 788 657 q 685 473 724 525 q 615 378 647 421 q 583 293 583 336 q 589 255 583 269 q 601 227 594 240 q 613 199 607 214 q 618 160 618 185 q 603 81 618 118 q 562 15 589 43 q 496 -31 535 -14 q 408 -47 457 -47 z "},"":{"ha":810,"x_min":35,"x_max":783,"o":"m 243 -44 q 174 -22 204 -44 q 120 40 143 1 q 81 128 97 78 q 54 235 64 179 q 40 351 44 292 q 35 464 35 410 q 44 635 35 546 q 78 798 53 724 q 152 921 104 872 q 279 969 200 969 q 344 955 321 969 q 378 917 368 940 q 391 863 389 893 q 393 799 393 832 l 393 790 q 438 833 413 818 q 500 847 464 847 q 610 824 558 847 q 701 758 663 801 q 761 651 739 714 q 783 508 783 588 q 763 364 783 429 q 704 253 743 299 q 609 181 665 207 q 481 156 553 156 q 431 169 461 156 q 383 203 400 183 q 385 190 385 196 q 385 178 385 185 q 383 92 385 132 q 367 22 381 51 q 324 -26 353 -8 q 243 -44 296 -44 m 422 442 q 453 463 442 442 q 464 499 464 483 q 453 538 464 515 q 424 560 443 560 q 406 552 414 560 q 394 534 399 544 q 387 513 389 524 q 385 493 385 501 q 395 460 385 478 q 422 442 406 442 z "},"":{"ha":806,"x_min":17,"x_max":788,"o":"m 281 1029 q 198 1063 228 1029 q 168 1150 168 1097 q 194 1239 168 1203 q 274 1275 219 1275 q 358 1240 328 1275 q 389 1149 389 1204 q 380 1108 389 1129 q 356 1069 371 1088 q 322 1040 342 1051 q 281 1029 303 1029 m 531 1029 q 448 1063 478 1029 q 418 1150 418 1097 q 444 1239 418 1203 q 525 1275 469 1275 q 608 1240 578 1275 q 639 1149 639 1204 q 631 1108 639 1129 q 608 1069 622 1088 q 573 1040 593 1051 q 531 1029 553 1029 m 408 -47 q 320 -33 360 -47 q 253 8 281 -18 q 212 68 226 33 q 197 142 197 103 q 203 189 197 169 q 217 226 210 208 q 230 263 224 244 q 236 308 236 282 q 220 358 236 336 q 179 403 204 379 q 126 455 154 426 q 74 522 99 483 q 33 615 49 561 q 17 742 17 668 q 31 845 17 803 q 69 915 46 888 q 123 954 93 942 q 185 967 153 967 q 273 948 238 967 q 330 897 308 929 q 361 821 351 865 q 371 726 371 776 q 374 682 371 704 q 382 642 376 660 q 394 614 388 625 q 410 603 401 603 q 440 642 429 603 q 451 739 451 681 q 462 819 451 779 q 494 892 472 860 q 553 946 517 925 q 642 967 590 967 q 701 956 674 967 q 747 918 728 944 q 777 849 767 892 q 788 744 788 807 q 756 591 788 657 q 685 473 724 525 q 615 378 647 421 q 583 293 583 336 q 589 255 583 269 q 601 227 594 240 q 613 199 607 214 q 618 160 618 185 q 603 81 618 118 q 562 15 589 43 q 496 -31 535 -14 q 408 -47 457 -47 z "},"":{"ha":894,"x_min":-42,"x_max":856,"o":"m 31 379 q -42 454 -42 397 q -24 508 -42 490 q 28 536 -7 526 q 31 623 29 575 q 40 720 33 671 q 60 817 47 769 q 93 900 72 864 q 143 958 114 936 q 213 981 172 981 q 258 971 238 981 q 294 949 278 961 q 322 928 310 938 q 340 918 333 918 q 355 926 347 918 q 375 942 363 933 q 409 959 388 951 q 467 967 431 967 q 623 938 551 967 q 746 851 694 908 q 826 706 797 793 q 856 501 856 618 q 815 280 856 378 q 703 115 775 182 q 535 11 632 47 q 326 -25 439 -25 q 185 10 240 -25 q 97 103 129 46 q 49 233 64 161 q 31 379 35 306 m 507 493 q 483 592 507 554 q 421 631 458 631 q 373 602 386 631 q 357 540 360 574 q 419 513 397 533 q 440 451 440 493 q 424 404 440 421 q 372 379 407 388 q 421 344 390 344 q 482 388 457 344 q 507 493 507 431 z "},"":{"ha":894,"x_min":-42,"x_max":856,"o":"m 31 379 q -42 454 -42 397 q -24 508 -42 490 q 28 536 -7 526 q 31 623 29 575 q 40 720 33 671 q 60 817 47 769 q 93 900 72 864 q 143 958 114 936 q 213 981 172 981 q 258 971 238 981 q 294 949 278 961 q 322 928 310 938 q 340 918 333 918 q 355 926 347 918 q 375 942 363 933 q 409 959 388 951 q 467 967 431 967 q 623 938 551 967 q 746 851 694 908 q 826 706 797 793 q 856 501 856 618 q 815 280 856 378 q 703 115 775 182 q 535 11 632 47 q 326 -25 439 -25 q 185 10 240 -25 q 97 103 129 46 q 49 233 64 161 q 31 379 35 306 m 507 493 q 483 592 507 554 q 421 631 458 631 q 373 602 386 631 q 357 540 360 574 q 419 513 397 533 q 440 451 440 493 q 424 404 440 421 q 372 379 407 388 q 421 344 390 344 q 482 388 457 344 q 507 493 507 431 z "},"":{"ha":576,"x_min":13,"x_max":553,"o":"m 299 0 q 199 5 250 0 q 108 23 149 10 q 41 60 67 36 q 15 122 15 85 q 22 152 15 138 q 40 178 29 167 q 61 197 50 190 q 82 204 72 204 q 108 226 97 204 q 124 285 118 249 q 131 374 128 318 q 133 481 133 429 q 131 600 133 543 q 124 693 129 657 q 107 729 119 725 q 71 733 94 733 q 31 760 49 733 q 13 829 13 786 q 35 903 13 872 q 97 956 58 935 q 188 986 136 976 q 299 996 240 996 q 487 952 421 996 q 553 833 553 908 q 532 769 553 789 q 475 750 511 750 q 458 731 465 750 q 447 680 451 711 q 440 612 443 649 q 436 540 438 575 q 435 476 435 504 q 435 435 435 447 q 435 393 435 428 q 440 319 436 358 q 453 248 444 279 q 475 217 461 217 q 502 209 489 217 q 526 189 515 201 q 542 161 536 176 q 549 131 549 146 q 483 31 549 63 q 299 0 417 0 z "},"":{"ha":678,"x_min":-79,"x_max":678,"o":"m 32 311 q -64 385 -46 315 q -56 472 -79 439 q 25 529 -33 506 q 49 669 32 593 q 98 812 65 746 q 179 922 131 878 q 296 967 228 967 q 362 938 339 967 q 396 870 385 910 q 409 788 407 831 q 411 714 411 744 q 411 670 411 692 q 410 626 411 649 q 486 608 457 628 q 529 538 515 589 q 512 452 544 485 q 404 392 479 419 q 406 358 404 378 q 411 319 407 338 q 422 289 415 301 q 442 276 429 276 q 467 284 454 276 q 495 300 481 292 q 526 316 510 308 q 564 324 543 324 q 618 307 596 324 q 653 266 640 290 q 672 213 667 242 q 678 161 678 185 q 652 69 678 104 q 588 16 626 35 q 501 -8 549 -3 q 411 -14 454 -14 q 149 72 242 -14 q 32 311 57 157 z "},"":{"ha":678,"x_min":-79,"x_max":678,"o":"m 32 311 q -64 385 -46 315 q -56 472 -79 439 q 25 529 -33 506 q 49 669 32 593 q 98 812 65 746 q 179 922 131 878 q 296 967 228 967 q 362 938 339 967 q 396 870 385 910 q 409 788 407 831 q 411 714 411 744 q 411 670 411 692 q 410 626 411 649 q 486 608 457 628 q 529 538 515 589 q 512 452 544 485 q 404 392 479 419 q 406 358 404 378 q 411 319 407 338 q 422 289 415 301 q 442 276 429 276 q 467 284 454 276 q 495 300 481 292 q 526 316 510 308 q 564 324 543 324 q 618 307 596 324 q 653 266 640 290 q 672 213 667 242 q 678 161 678 185 q 652 69 678 104 q 588 16 626 35 q 501 -8 549 -3 q 411 -14 454 -14 q 149 72 242 -14 q 32 311 57 157 z "},"":{"ha":1308,"x_min":32,"x_max":1286,"o":"m 660 6 q 461 -32 572 -32 q 276 3 357 -32 q 142 105 196 39 q 60 266 88 171 q 32 481 32 361 q 64 697 32 606 q 156 849 96 789 q 300 938 215 908 q 490 967 385 967 q 685 926 597 967 q 803 977 736 958 q 953 996 871 996 q 1078 980 1018 996 q 1185 935 1139 964 q 1258 866 1231 906 q 1286 778 1286 826 q 1271 713 1286 736 q 1231 676 1256 689 q 1174 660 1206 664 q 1111 657 1143 657 q 1053 658 1082 657 q 1003 656 1025 658 q 967 645 981 653 q 954 619 954 638 q 972 590 954 599 q 1016 578 990 581 q 1070 578 1042 576 q 1119 581 1099 581 q 1168 571 1149 581 q 1199 546 1188 561 q 1214 511 1210 531 q 1218 471 1218 492 q 1213 430 1218 450 q 1194 393 1208 410 q 1156 366 1181 376 q 1092 356 1131 356 l 1046 356 q 997 350 1018 356 q 976 322 976 344 q 991 290 976 303 q 1029 278 1006 278 q 1066 282 1044 278 q 1115 286 1088 286 q 1239 247 1192 286 q 1286 142 1286 207 q 1267 70 1286 100 q 1216 21 1247 40 q 1144 -10 1185 1 q 1063 -28 1104 -22 q 981 -35 1021 -33 q 911 -36 942 -36 q 855 -35 886 -36 q 790 -31 824 -35 q 724 -18 757 -26 q 660 6 690 -10 m 474 339 q 536 378 513 339 q 560 476 560 417 q 553 533 560 506 q 535 581 547 560 q 508 613 524 601 q 474 625 493 625 q 438 612 454 625 q 408 577 421 599 q 388 527 396 556 q 381 468 381 499 q 408 374 381 410 q 474 339 436 339 z "},"":{"ha":1308,"x_min":32,"x_max":1286,"o":"m 660 6 q 461 -32 572 -32 q 276 3 357 -32 q 142 105 196 39 q 60 266 88 171 q 32 481 32 361 q 64 697 32 606 q 156 849 96 789 q 300 938 215 908 q 490 967 385 967 q 685 926 597 967 q 803 977 736 958 q 953 996 871 996 q 1078 980 1018 996 q 1185 935 1139 964 q 1258 866 1231 906 q 1286 778 1286 826 q 1262 699 1286 725 q 1200 665 1238 674 q 1120 656 1163 656 q 1040 657 1078 657 q 978 651 1003 657 q 954 619 954 644 q 972 590 954 599 q 1016 578 990 581 q 1070 578 1042 576 q 1119 581 1099 581 q 1168 571 1149 581 q 1199 546 1188 561 q 1214 511 1210 531 q 1218 471 1218 492 q 1213 430 1218 450 q 1194 393 1208 410 q 1156 366 1181 376 q 1092 356 1131 356 q 1051 356 1072 356 q 1014 355 1031 357 q 987 345 997 353 q 976 322 976 338 q 991 290 976 303 q 1029 278 1006 278 q 1066 282 1044 278 q 1115 286 1088 286 q 1239 247 1192 286 q 1286 142 1286 207 q 1197 10 1286 57 q 953 -36 1108 -36 q 896 -36 931 -36 q 822 -33 861 -36 q 740 -21 782 -29 q 660 6 697 -12 m 474 339 q 536 378 513 339 q 560 476 560 417 q 553 533 560 506 q 535 581 547 560 q 508 613 524 601 q 474 625 493 625 q 438 612 454 625 q 408 577 421 599 q 388 527 396 556 q 381 468 381 499 q 408 374 381 410 q 474 339 436 339 z "},"":{"ha":894,"x_min":29,"x_max":882,"o":"m 29 238 q 39 295 29 267 q 66 347 49 324 q 108 385 83 371 q 164 400 133 400 q 254 384 222 400 q 311 348 286 368 q 363 312 336 328 q 436 296 389 296 q 477 308 460 296 q 494 351 494 319 q 483 372 494 363 q 458 390 472 382 q 428 403 443 397 q 404 410 413 408 q 280 439 344 425 q 161 480 215 453 q 72 556 107 507 q 38 692 38 606 q 59 806 38 754 q 124 897 81 858 q 234 961 168 936 q 390 993 300 986 q 317 1033 350 1006 q 259 1095 283 1060 q 222 1172 235 1131 q 208 1253 208 1213 q 244 1321 208 1297 q 324 1344 279 1344 q 388 1322 369 1344 q 412 1272 406 1300 q 423 1218 418 1243 q 447 1188 428 1193 q 473 1235 461 1208 q 500 1284 485 1261 q 536 1323 515 1307 q 590 1339 557 1339 q 619 1335 603 1339 q 651 1323 636 1331 q 676 1304 665 1315 q 686 1279 686 1293 q 675 1199 686 1243 q 642 1115 664 1156 q 589 1042 619 1075 q 518 993 558 1008 q 639 969 581 988 q 742 922 697 951 q 813 850 786 892 q 840 756 840 808 q 831 706 840 732 q 805 656 822 679 q 763 619 788 633 q 710 604 739 604 q 656 619 675 604 q 620 651 638 633 q 579 684 603 669 q 511 699 556 699 q 478 688 493 699 q 464 653 464 678 q 475 632 464 642 q 501 615 486 622 q 530 604 515 608 q 553 597 544 600 q 673 561 614 581 q 778 510 732 542 q 853 431 825 479 q 882 310 882 383 q 840 162 882 225 q 733 58 799 99 q 587 -3 667 17 q 429 -24 507 -24 q 271 -8 344 -24 q 144 40 197 8 q 60 122 90 72 q 29 238 29 171 z "},"":{"ha":894,"x_min":29,"x_max":882,"o":"m 29 238 q 39 295 29 267 q 66 347 49 324 q 108 385 83 371 q 164 400 133 400 q 254 384 222 400 q 311 348 286 368 q 363 312 336 328 q 436 296 389 296 q 477 308 460 296 q 494 351 494 319 q 483 372 494 363 q 458 390 472 382 q 428 403 443 397 q 404 410 413 408 q 280 439 344 425 q 161 480 215 453 q 72 556 107 507 q 38 692 38 606 q 59 806 38 754 q 124 897 81 858 q 234 961 168 936 q 390 993 300 986 q 317 1033 350 1006 q 259 1095 283 1060 q 222 1172 235 1131 q 208 1253 208 1213 q 244 1321 208 1297 q 324 1344 279 1344 q 388 1322 369 1344 q 412 1272 406 1300 q 423 1218 418 1243 q 447 1188 428 1193 q 473 1235 461 1208 q 500 1284 485 1261 q 536 1323 515 1307 q 590 1339 557 1339 q 619 1335 603 1339 q 651 1323 636 1331 q 676 1304 665 1315 q 686 1279 686 1293 q 675 1199 686 1243 q 642 1115 664 1156 q 589 1042 619 1075 q 518 993 558 1008 q 639 969 581 988 q 742 922 697 951 q 813 850 786 892 q 840 756 840 808 q 831 706 840 732 q 805 656 822 679 q 763 619 788 633 q 710 604 739 604 q 656 619 675 604 q 620 651 638 633 q 579 684 603 669 q 511 699 556 699 q 478 688 493 699 q 464 653 464 678 q 475 632 464 642 q 501 615 486 622 q 530 604 515 608 q 553 597 544 600 q 673 561 614 581 q 778 510 732 542 q 853 431 825 479 q 882 310 882 383 q 840 162 882 225 q 733 58 799 99 q 587 -3 667 17 q 429 -24 507 -24 q 271 -8 344 -24 q 144 40 197 8 q 60 122 90 72 q 29 238 29 171 z "},"":{"ha":806,"x_min":17,"x_max":788,"o":"m 281 1029 q 198 1063 228 1029 q 168 1150 168 1097 q 194 1239 168 1203 q 274 1275 219 1275 q 358 1240 328 1275 q 389 1149 389 1204 q 380 1108 389 1129 q 356 1069 371 1088 q 322 1040 342 1051 q 281 1029 303 1029 m 531 1029 q 448 1063 478 1029 q 418 1150 418 1097 q 444 1239 418 1203 q 525 1275 469 1275 q 608 1240 578 1275 q 639 1149 639 1204 q 631 1108 639 1129 q 608 1069 622 1088 q 573 1040 593 1051 q 531 1029 553 1029 m 408 -47 q 320 -33 360 -47 q 253 8 281 -18 q 212 68 226 33 q 197 142 197 103 q 203 189 197 169 q 217 226 210 208 q 230 263 224 244 q 236 308 236 282 q 220 358 236 336 q 179 403 204 379 q 126 455 154 426 q 74 522 99 483 q 33 615 49 561 q 17 742 17 668 q 31 845 17 803 q 69 915 46 888 q 123 954 93 942 q 185 967 153 967 q 273 948 238 967 q 330 897 308 929 q 361 821 351 865 q 371 726 371 776 q 374 682 371 704 q 382 642 376 660 q 394 614 388 625 q 410 603 401 603 q 440 642 429 603 q 451 739 451 681 q 462 819 451 779 q 494 892 472 860 q 553 946 517 925 q 642 967 590 967 q 701 956 674 967 q 747 918 728 944 q 777 849 767 892 q 788 744 788 807 q 756 591 788 657 q 685 473 724 525 q 615 378 647 421 q 583 293 583 336 q 589 255 583 269 q 601 227 594 240 q 613 199 607 214 q 618 160 618 185 q 603 81 618 118 q 562 15 589 43 q 496 -31 535 -14 q 408 -47 457 -47 z "},"":{"ha":803,"x_min":7,"x_max":794,"o":"m 413 982 q 313 1006 358 982 q 233 1069 267 1031 q 181 1156 200 1107 q 163 1253 163 1204 q 198 1321 163 1297 q 278 1344 233 1344 q 342 1322 324 1344 q 366 1272 360 1300 q 377 1218 372 1243 q 401 1188 382 1193 q 427 1235 415 1208 q 454 1284 439 1261 q 490 1323 469 1307 q 544 1339 511 1339 q 574 1335 557 1339 q 605 1323 590 1331 q 630 1304 619 1315 q 640 1279 640 1293 q 624 1184 640 1236 q 579 1088 608 1132 q 508 1013 550 1043 q 413 982 465 982 m 386 -19 q 230 -1 300 -19 q 110 49 160 17 q 34 128 61 82 q 7 231 7 174 q 47 357 7 303 q 142 458 86 411 q 259 552 199 506 q 361 657 319 599 q 367 668 364 660 q 354 675 367 675 q 333 675 342 675 q 256 663 297 675 q 175 650 215 650 q 69 693 110 650 q 28 803 28 736 q 322 976 28 976 q 391 977 349 976 q 483 974 433 978 q 583 963 532 971 q 674 937 633 954 q 741 891 715 919 q 767 818 767 863 q 733 693 767 760 q 652 561 700 626 q 551 438 604 496 q 457 339 497 379 q 436 319 442 324 q 431 311 431 315 q 440 307 431 307 q 559 320 501 307 q 665 333 617 333 q 761 305 728 333 q 794 222 794 276 q 764 126 794 171 q 678 49 733 82 q 549 -1 624 17 q 386 -19 474 -19 z "},"":{"ha":803,"x_min":7,"x_max":794,"o":"m 413 982 q 313 1006 358 982 q 233 1069 267 1031 q 181 1156 200 1107 q 163 1253 163 1204 q 198 1321 163 1297 q 278 1344 233 1344 q 342 1322 324 1344 q 366 1272 360 1300 q 377 1218 372 1243 q 401 1188 382 1193 q 427 1235 415 1208 q 454 1284 439 1261 q 490 1323 469 1307 q 544 1339 511 1339 q 574 1335 557 1339 q 605 1323 590 1331 q 630 1304 619 1315 q 640 1279 640 1293 q 624 1184 640 1236 q 579 1088 608 1132 q 508 1013 550 1043 q 413 982 465 982 m 386 -19 q 230 -1 300 -19 q 110 49 160 17 q 34 128 61 82 q 7 231 7 174 q 47 357 7 303 q 142 458 86 411 q 259 552 199 506 q 361 657 319 599 q 367 668 364 660 q 354 675 367 675 q 333 675 342 675 q 256 663 297 675 q 175 650 215 650 q 69 693 110 650 q 28 803 28 736 q 322 976 28 976 q 391 977 349 976 q 483 974 433 978 q 583 963 532 971 q 674 937 633 954 q 741 891 715 919 q 767 818 767 863 q 733 693 767 760 q 652 561 700 626 q 551 438 604 496 q 457 339 497 379 q 436 319 442 324 q 431 311 431 315 q 440 307 431 307 q 559 320 501 307 q 665 333 617 333 q 761 305 728 333 q 794 222 794 276 q 764 126 794 171 q 678 49 733 82 q 549 -1 624 17 q 386 -19 474 -19 z "},"":{"ha":596,"x_min":-46,"x_max":585,"o":"m 60 -167 q -15 -138 15 -167 q -46 -69 -46 -110 q -36 -31 -46 -46 q -3 -10 -26 -17 q 40 31 21 -3 q 72 115 58 65 q 94 222 85 164 q 110 336 104 281 q 118 438 115 392 q 121 511 121 485 q 65 542 85 513 q 44 603 44 572 q 56 672 44 651 q 82 701 67 693 q 113 710 97 708 q 136 719 128 711 q 142 742 140 724 q 149 787 143 761 q 165 842 154 813 q 200 895 176 871 q 262 935 224 919 q 357 951 300 951 q 444 949 403 951 q 516 933 485 946 q 566 890 547 919 q 585 808 585 861 q 572 751 585 774 q 519 729 560 729 q 489 731 504 729 q 458 733 474 733 q 431 729 440 733 q 422 706 421 725 q 439 708 429 708 q 457 708 449 708 q 529 681 506 708 q 553 608 553 653 q 539 537 553 557 q 504 512 525 517 q 460 508 483 507 q 417 500 436 510 q 414 373 417 444 q 400 228 411 301 q 367 83 389 154 q 304 -43 344 13 q 204 -133 264 -99 q 60 -167 144 -167 z "},"":{"ha":590,"x_min":49,"x_max":526,"o":"m 299 1085 q 394 1054 351 1085 q 465 979 436 1024 q 510 883 494 935 q 526 788 526 831 q 516 763 526 774 q 491 744 506 751 q 460 732 476 736 q 431 728 443 728 q 376 744 397 728 q 340 783 356 760 q 313 832 325 806 q 288 879 301 858 q 263 849 268 874 q 252 796 258 824 q 228 745 246 768 q 164 722 210 722 q 84 746 119 722 q 49 814 49 769 q 67 911 49 863 q 119 999 86 960 q 199 1061 153 1038 q 299 1085 244 1085 z "},"":{"ha":593,"x_min":49,"x_max":526,"o":"m 299 722 q 199 747 244 722 q 119 809 153 771 q 67 896 86 847 q 49 993 49 944 q 84 1061 49 1038 q 164 1085 119 1085 q 228 1063 210 1085 q 252 1012 246 1040 q 263 958 258 983 q 288 928 268 933 q 313 975 301 949 q 340 1024 325 1001 q 376 1063 356 1047 q 431 1079 397 1079 q 460 1075 443 1079 q 491 1063 476 1071 q 516 1044 506 1056 q 526 1019 526 1033 q 510 924 526 976 q 465 828 494 872 q 394 753 436 783 q 299 722 351 722 z "},"":{"ha":482,"x_min":31,"x_max":454,"o":"m 31 925 q 38 972 31 949 q 56 1012 44 994 q 84 1040 68 1029 q 118 1050 100 1050 q 167 1031 147 1050 q 204 990 186 1011 q 223 971 214 979 q 244 963 232 963 q 268 971 260 963 q 283 990 276 979 q 317 1035 299 1014 q 367 1056 336 1056 q 431 1022 407 1056 q 454 933 454 988 q 442 851 454 890 q 403 781 429 811 q 339 732 378 750 q 249 714 300 714 q 158 732 199 714 q 89 780 117 750 q 46 848 61 810 q 31 925 31 886 z "},"":{"ha":392,"x_min":86,"x_max":324,"o":"m 207 769 q 118 807 150 769 q 86 906 86 844 q 114 1004 86 964 q 201 1044 142 1044 q 292 1005 260 1044 q 324 904 324 965 q 314 858 324 882 q 288 815 304 835 q 251 783 272 796 q 207 769 231 769 z "},"":{"ha":631,"x_min":54,"x_max":556,"o":"m 303 701 q 117 753 181 701 q 54 899 54 806 q 72 991 54 949 q 123 1063 90 1033 q 200 1110 156 1093 q 299 1128 244 1128 q 400 1110 353 1128 q 482 1064 447 1093 q 536 994 517 1035 q 556 908 556 954 q 536 824 556 863 q 483 759 517 786 q 403 717 450 732 q 303 701 357 701 m 292 867 q 339 880 322 867 q 356 908 356 893 q 342 933 356 922 q 303 944 328 944 q 263 933 278 944 q 249 906 249 921 q 260 880 249 893 q 292 867 272 867 z "},"":{"ha":513,"x_min":86,"x_max":511,"o":"m 511 -274 q 497 -323 511 -303 q 461 -357 483 -343 q 410 -377 439 -371 q 351 -383 382 -383 q 242 -364 292 -383 q 158 -311 193 -344 q 105 -235 124 -278 q 86 -144 86 -192 q 103 -69 86 -110 q 150 6 119 -28 q 222 63 181 40 q 311 86 263 86 q 358 77 336 86 q 396 55 379 68 q 422 24 413 42 q 432 -10 432 7 q 417 -50 432 -32 l 403 -64 q 363 -109 379 -89 q 346 -153 346 -129 q 363 -165 346 -160 q 403 -175 379 -169 q 441 -185 422 -179 q 476 -202 460 -192 q 501 -229 492 -212 q 511 -274 511 -246 z "},"":{"ha":529,"x_min":56,"x_max":503,"o":"m 135 747 q 74 780 93 747 q 56 865 56 813 q 69 942 56 903 q 105 1013 83 981 q 154 1065 126 1044 q 210 1085 182 1085 q 251 1074 235 1085 q 283 1050 268 1063 q 310 1026 297 1038 q 339 1015 322 1015 q 359 1025 351 1015 q 375 1047 367 1035 q 396 1068 383 1058 q 429 1078 408 1078 q 483 1043 464 1078 q 503 965 503 1008 q 492 885 503 925 q 463 815 482 846 q 417 765 444 783 q 358 746 390 746 q 310 756 331 746 q 273 780 289 767 q 245 803 257 793 q 224 814 233 814 q 203 803 211 814 q 185 781 194 793 q 165 758 176 768 q 135 747 154 747 z "},"":{"ha":804,"x_min":76,"x_max":765,"o":"m 203 739 q 161 744 183 739 q 120 760 139 750 q 89 787 101 771 q 76 824 76 803 q 89 857 76 843 q 169 951 126 907 q 244 1050 211 996 q 276 1082 258 1071 q 321 1093 293 1093 q 370 1084 346 1093 q 414 1059 394 1075 q 445 1023 433 1043 q 457 979 457 1003 q 447 933 457 958 q 417 882 436 908 q 488 963 451 924 q 553 1050 524 1003 q 584 1082 567 1071 q 629 1093 601 1093 q 678 1084 654 1093 q 722 1059 703 1075 q 753 1023 742 1043 q 765 979 765 1003 q 740 904 765 946 q 676 826 714 863 q 593 764 638 789 q 511 739 549 739 q 469 744 492 739 q 428 760 447 750 q 397 787 410 771 q 385 824 385 803 q 396 856 385 840 q 302 774 356 808 q 203 739 249 739 z "},"":{"ha":835,"x_min":29,"x_max":797,"o":"m 282 707 q 356 686 331 707 q 394 633 382 665 q 408 561 406 601 q 410 481 410 521 q 406 419 410 450 q 403 358 403 389 q 403 341 403 353 q 406 318 404 329 q 414 298 408 307 q 429 289 419 289 q 460 306 454 289 q 465 342 465 324 q 461 411 465 376 q 457 482 457 446 q 461 558 457 518 q 480 631 465 597 q 524 685 494 664 q 604 707 553 707 q 678 685 647 707 q 731 630 710 664 q 766 553 753 596 q 786 467 779 510 q 795 386 793 425 q 797 321 797 347 q 790 224 797 285 q 760 106 782 164 q 700 7 738 49 q 601 -35 663 -35 q 546 -19 568 -35 q 511 15 524 -4 q 495 51 499 35 q 497 69 492 68 q 463 49 476 60 q 424 39 450 39 q 397 42 407 39 q 371 54 386 44 q 380 -15 378 26 q 374 -93 382 -56 q 343 -158 365 -131 q 276 -185 321 -185 q 199 -163 233 -185 q 136 -107 164 -142 q 88 -29 108 -72 q 55 57 68 14 q 35 139 42 100 q 29 204 29 178 q 44 412 29 319 q 89 570 58 504 q 167 672 119 636 q 282 707 215 707 z "},"":{"ha":754,"x_min":75,"x_max":688,"o":"m 374 268 q 238 275 294 268 q 145 301 182 282 q 92 355 108 321 q 75 443 75 389 q 94 547 75 510 q 150 603 113 585 q 243 626 188 622 q 374 631 299 631 l 422 631 q 534 626 485 631 q 617 603 583 622 q 669 545 651 583 q 688 438 688 507 q 668 346 688 379 q 609 295 649 313 q 510 273 569 278 q 374 268 451 268 z "},"":{"ha":868,"x_min":75,"x_max":793,"o":"m 425 268 q 266 275 332 268 q 158 301 200 282 q 95 355 115 321 q 75 443 75 389 q 97 547 75 510 q 163 603 119 585 q 272 626 207 622 q 425 631 338 631 l 482 631 q 614 626 556 631 q 712 603 672 622 q 772 545 751 583 q 793 438 793 507 q 770 346 793 379 q 701 295 747 313 q 585 273 654 278 q 425 268 517 268 z "},"":{"ha":408,"x_min":43,"x_max":392,"o":"m 292 1042 q 364 1021 336 1042 q 392 956 392 1000 q 381 915 392 936 q 364 876 371 893 q 342 823 353 850 q 332 768 332 796 q 323 707 332 736 q 295 655 314 678 q 249 619 276 632 q 186 606 222 606 q 124 618 151 606 q 79 653 97 631 q 52 703 61 675 q 43 763 43 732 q 63 858 43 808 q 115 949 82 908 q 194 1015 149 989 q 292 1042 240 1042 z "},"":{"ha":386,"x_min":18,"x_max":360,"o":"m 115 606 q 45 626 72 606 q 18 692 18 647 q 26 733 18 711 q 43 771 35 754 q 65 824 56 797 q 75 879 75 850 q 85 942 75 913 q 113 993 94 971 q 158 1028 131 1015 q 219 1042 185 1042 q 324 995 288 1042 q 360 885 360 949 q 340 788 360 838 q 288 699 321 739 q 210 632 254 658 q 115 606 165 606 z "},"":{"ha":425,"x_min":38,"x_max":379,"o":"m 135 -218 q 65 -197 92 -218 q 38 -132 38 -176 q 46 -91 38 -112 q 63 -53 54 -69 q 85 0 75 -26 q 94 56 94 26 q 104 118 94 89 q 132 169 114 147 q 177 205 150 192 q 239 218 204 218 q 343 172 307 218 q 379 61 379 125 q 360 -35 379 14 q 307 -126 340 -85 q 229 -192 274 -167 q 135 -218 185 -218 z "},"":{"ha":719,"x_min":43,"x_max":699,"o":"m 292 1042 q 364 1021 336 1042 q 392 956 392 1000 q 381 915 392 936 q 364 876 371 893 q 342 823 353 850 q 332 768 332 796 q 323 707 332 736 q 295 655 314 678 q 249 619 276 632 q 186 606 222 606 q 124 618 151 606 q 79 653 97 631 q 52 703 61 675 q 43 763 43 732 q 63 858 43 808 q 115 949 82 908 q 194 1015 149 989 q 292 1042 240 1042 m 599 1028 q 671 1007 643 1028 q 699 942 699 986 q 688 901 699 922 q 671 863 678 879 q 649 809 660 836 q 639 754 639 782 q 630 693 639 722 q 602 641 621 664 q 556 605 583 618 q 493 592 529 592 q 431 604 458 592 q 386 639 404 617 q 359 690 368 661 q 350 749 350 718 q 369 844 350 794 q 422 935 389 894 q 501 1001 456 975 q 599 1028 547 1028 z "},"":{"ha":682,"x_min":18,"x_max":660,"o":"m 115 606 q 45 626 72 606 q 18 692 18 647 q 26 733 18 711 q 43 771 35 754 q 65 824 56 797 q 75 879 75 850 q 85 942 75 913 q 113 993 94 971 q 158 1028 131 1015 q 219 1042 185 1042 q 324 995 288 1042 q 360 885 360 949 q 340 788 360 838 q 288 699 321 739 q 210 632 254 658 q 115 606 165 606 m 415 603 q 345 624 372 603 q 318 689 318 644 q 326 730 318 708 q 343 768 335 751 q 365 821 356 794 q 375 876 375 847 q 385 939 375 910 q 413 990 394 968 q 458 1026 431 1013 q 519 1039 485 1039 q 624 992 588 1039 q 660 882 660 946 q 640 785 660 835 q 588 696 621 736 q 510 629 554 656 q 415 603 465 603 z "},"":{"ha":747,"x_min":38,"x_max":710,"o":"m 135 -218 q 65 -197 92 -218 q 38 -132 38 -176 q 46 -91 38 -112 q 63 -53 54 -69 q 85 0 75 -26 q 94 56 94 26 q 104 118 94 89 q 132 169 114 147 q 177 205 150 192 q 239 218 204 218 q 343 172 307 218 q 379 61 379 125 q 360 -35 379 14 q 307 -126 340 -85 q 229 -192 274 -167 q 135 -218 185 -218 m 465 -218 q 395 -197 422 -218 q 368 -132 368 -176 q 376 -91 368 -112 q 393 -53 385 -69 q 415 0 406 -26 q 425 56 425 26 q 435 118 425 89 q 463 169 444 147 q 508 205 481 192 q 569 218 535 218 q 674 172 638 218 q 710 61 710 125 q 690 -35 710 14 q 638 -126 671 -85 q 560 -192 604 -167 q 465 -218 515 -218 z "},"":{"ha":592,"x_min":21,"x_max":561,"o":"m 282 0 q 226 5 247 0 q 192 21 204 10 q 172 50 179 32 q 160 96 165 68 q 143 319 139 204 q 150 542 147 433 q 54 576 88 550 q 21 661 21 601 q 56 758 21 729 q 163 793 90 786 q 167 861 164 829 q 182 917 169 893 q 222 953 194 940 q 301 967 250 967 q 349 958 326 967 q 388 935 371 950 q 415 901 406 921 q 425 858 425 881 l 425 793 q 529 754 497 786 q 561 657 561 722 q 526 571 561 594 q 428 540 492 547 l 429 131 q 394 32 429 64 q 282 0 360 0 z "},"":{"ha":576,"x_min":21,"x_max":553,"o":"m 278 0 q 205 13 231 0 q 167 49 179 26 q 153 105 156 72 q 149 175 151 138 q 57 206 93 182 q 21 293 21 231 q 53 385 21 358 q 146 421 86 413 q 146 482 146 451 q 149 543 146 513 q 56 574 90 550 q 21 661 21 597 q 31 721 21 697 q 58 759 40 744 q 101 781 75 774 q 160 792 126 789 q 161 817 160 800 q 165 853 163 835 q 169 888 167 871 q 175 911 171 904 q 226 957 194 947 q 297 967 258 967 q 342 959 319 967 q 381 937 364 951 q 409 902 399 922 q 419 858 419 882 l 419 793 q 519 757 486 786 q 553 657 553 728 q 543 604 553 625 q 515 570 533 583 q 474 551 497 557 q 421 540 450 544 l 421 425 q 520 388 488 418 q 553 289 553 358 q 543 236 553 257 q 516 202 533 215 q 475 183 499 189 q 422 172 451 176 q 419 98 422 131 q 401 44 415 65 q 357 11 386 22 q 278 0 328 0 z "},"":{"ha":693,"x_min":89,"x_max":603,"o":"m 347 356 q 241 372 289 356 q 159 416 193 388 q 107 485 125 444 q 89 574 89 525 q 105 662 89 619 q 153 737 121 704 q 233 789 185 769 q 343 808 281 808 q 447 794 400 808 q 529 751 494 781 q 583 678 564 722 q 603 574 603 635 q 585 491 603 531 q 533 421 567 451 q 453 373 500 390 q 347 356 406 356 z "},"":{"ha":1463,"x_min":32,"x_max":1386,"o":"m 224 -25 q 145 -10 181 -25 q 85 28 110 4 q 46 85 60 53 q 32 156 32 118 q 44 225 32 192 q 81 283 57 258 q 140 323 104 308 q 222 338 175 338 q 358 294 304 338 q 411 156 411 250 q 398 90 411 122 q 360 33 385 58 q 301 -9 336 7 q 224 -25 267 -25 m 711 -25 q 633 -10 668 -25 q 572 28 597 4 q 533 85 547 53 q 519 156 519 118 q 532 225 519 192 q 568 283 544 258 q 627 323 592 308 q 710 338 663 338 q 845 294 792 338 q 899 156 899 250 q 885 90 899 122 q 848 33 872 58 q 789 -9 824 7 q 711 -25 754 -25 m 1199 -25 q 1120 -10 1156 -25 q 1060 28 1085 4 q 1021 85 1035 53 q 1007 156 1007 118 q 1019 225 1007 192 q 1056 283 1032 258 q 1115 323 1079 308 q 1197 338 1150 338 q 1333 294 1279 338 q 1386 156 1386 250 q 1373 90 1386 122 q 1335 33 1360 58 q 1276 -9 1311 7 q 1199 -25 1242 -25 z "},"":{"ha":1622,"x_min":39,"x_max":1574,"o":"m 521 717 q 503 628 521 674 q 455 544 486 582 q 378 483 424 507 q 276 460 333 460 q 176 484 221 460 q 101 546 132 508 q 55 629 71 583 q 39 718 39 675 q 54 816 39 767 q 101 905 69 865 q 181 969 133 944 q 293 993 229 993 q 401 967 358 993 q 472 901 444 942 q 510 811 499 860 q 521 717 521 763 m 301 -14 q 210 10 246 -14 q 174 85 174 35 q 197 152 174 107 q 260 257 221 197 q 351 387 300 317 q 459 528 403 457 q 572 669 515 600 q 680 796 629 739 q 770 894 731 853 q 832 953 810 936 q 914 981 868 981 q 999 950 968 981 q 1031 875 1031 919 q 1003 817 1031 861 q 933 709 976 772 q 831 569 889 646 q 713 413 774 492 q 590 260 651 335 q 478 128 529 186 q 391 32 428 69 q 342 -10 354 -6 q 322 -13 335 -12 q 301 -14 308 -14 m 286 678 q 316 694 307 678 q 325 726 325 711 q 316 758 325 740 q 286 776 307 776 q 258 758 267 776 q 250 725 250 739 q 258 694 250 711 q 286 678 267 678 m 1574 233 q 1557 144 1574 190 q 1509 61 1540 99 q 1433 -1 1478 24 q 1332 -25 1388 -25 q 1203 15 1257 -25 q 1122 111 1150 54 q 1040 15 1093 56 q 913 -25 986 -25 q 810 -1 856 -25 q 735 62 765 24 q 688 146 704 100 q 672 235 672 192 q 688 332 672 283 q 736 420 704 381 q 815 485 768 460 q 926 510 863 510 q 1055 472 1007 510 q 1126 376 1103 433 q 1211 472 1157 433 q 1346 510 1265 510 q 1454 484 1411 510 q 1524 417 1497 458 q 1563 328 1551 376 q 1574 233 1574 279 m 922 194 q 951 212 942 194 q 960 243 960 229 q 951 276 960 258 q 922 293 942 293 q 892 275 901 293 q 882 242 882 257 q 892 210 882 226 q 922 194 901 194 m 1342 194 q 1370 212 1361 194 q 1379 243 1379 229 q 1370 276 1379 258 q 1342 293 1361 293 q 1311 275 1321 293 q 1301 242 1301 257 q 1311 210 1301 226 q 1342 194 1321 194 z "},"":{"ha":524,"x_min":28,"x_max":475,"o":"m 415 142 q 344 153 385 142 q 260 183 303 164 q 175 231 217 203 q 101 292 133 258 q 48 363 68 325 q 28 439 28 400 q 48 507 28 471 q 100 580 68 543 q 172 651 132 617 q 253 710 213 685 q 331 752 294 736 q 394 768 368 768 q 419 755 408 768 q 439 724 431 742 q 451 688 447 707 q 456 656 456 668 q 437 586 456 618 q 391 528 418 554 q 333 482 364 503 q 278 444 303 461 q 308 420 283 438 q 362 382 332 403 q 420 339 392 361 q 463 297 449 317 q 473 270 471 285 q 475 242 475 256 q 472 208 475 225 q 463 176 469 190 q 444 151 456 161 q 415 142 433 142 z "}}}
